<svg xmlns="http://www.w3.org/2000/svg" width="98" height="124"><path fill="#1f2229" fill-rule="nonzero" d="m44.76 2.569-3.131 6.775-.297.634c-5.018 10.58-9.1 16.527-16.297 22.47l-2.077 1.696-1.541 1.329-.842.74a120.16 120.16 0 0 0-7.227 6.988c-2.684 2.834-4.991 5.615-6.816 8.29-1.448 2.126-2.573 4.167-3.343 6.138-7.764 21.24-.975 44.162 16.886 57.022 20.327 14.641 47.935 11.647 64.923-6.005 1.63-1.727 3.919-4.619 6.2-8.419 3.883-6.456 6.23-13.232 6.23-20.088 0-19.113-5.845-34.405-17.563-45.578-2.821-2.689-7.484-.691-7.484 3.206l-.018 1.426c-.173 7.98-1.825 14.047-4.947 18.392l-.46.598.03-.217c.43-3.37.607-7.157.607-12.374 0-17.174-4.955-34.22-15.779-44.392C49.61-.868 46.031-.173 44.76 2.573v-.004zm5.154 9.964.067.093c5.85 8.485 8.755 20.672 8.755 32.966l-.018 2.733c-.07 4.716-.345 7.94-.899 10.991l-.465 2.29c-.265 1.204-.531 2.232-1.439 5.673-.917 3.494 2.507 6.554 5.877 5.257l1.098-.443c8.99-3.853 14.668-11.209 17.05-21.705l.332-1.62.735 1.142c5.04 8.184 7.564 18.228 7.564 30.23 0 5.017-1.846 10.331-4.964 15.526a47.86 47.86 0 0 1-3.525 5.093l-1.059 1.284a9.977 9.977 0 0 1-.442.492c-13.942 14.494-36.634 16.957-53.334 4.929C10.642 96.946 5.097 78.217 11.474 60.76c.47-1.196 1.285-2.67 2.379-4.282 1.527-2.241 3.542-4.673 5.934-7.192a103.62 103.62 0 0 1 4.969-4.907l1.71-1.55a92.894 92.894 0 0 1 2.39-2.068l.607-.505c8.671-6.873 13.614-13.614 19.087-24.849l1.364-2.874z"/></svg>