<svg xmlns="http://www.w3.org/2000/svg"><defs><font id="icomoon2" horiz-adv-x="1024"><font-face units-per-em="1024" ascent="960" descent="-64"/><glyph horiz-adv-x="512"/><glyph unicode="" glyph-name="check-mark" d="M839.793 725.958 416.681 285.826l-232.34 241.75c-5.862 6.212-14.139 10.076-23.332 10.076s-17.47-3.864-23.316-10.059c-6.012-6.295-9.693-14.839-9.693-24.232s3.697-17.92 9.693-24.215l255.523-266.281c5.862-6.212 14.156-10.092 23.349-10.092s17.487 3.864 23.332 10.076l446.528 464.697c5.929 6.312 9.576 14.839 9.576 24.215s-3.647 17.903-9.593 24.232c-5.846 6.162-14.123 10.009-23.299 10.009s-17.453-3.847-23.299-10.026l-.017-.017z"/><glyph unicode="" glyph-name="clock" d="M512 64c-212.077 0-384 171.923-384 384s171.923 384 384 384 384-171.923 384-384S724.077 64 512 64zm0 51.2c183.8 0 332.8 149 332.8 332.8S695.8 780.8 512 780.8 179.2 631.8 179.2 448s149-332.8 332.8-332.8zm-51.2 511.937c0 14.173 11.363 25.663 25.6 25.663 14.138 0 25.6-11.667 25.6-25.663V371.264c0-14.173-11.363-25.663-25.6-25.663-14.138 0-25.6 11.667-25.6 25.663v255.873zM640.076 396.8c14.096 0 25.524-11.363 25.524-25.6 0-14.138-11.598-25.6-25.524-25.6H486.324c-14.096 0-25.524 11.363-25.524 25.6 0 14.138 11.598 25.6 25.524 25.6h153.752z"/><glyph unicode="" glyph-name="close" d="m554.78 447.979 332.454-332.454c11.758-11.758 11.666-30.82-.147-42.633-11.896-11.896-30.901-11.879-42.633-.147L512 405.199 179.546 72.745c-11.732-11.732-30.737-11.749-42.633.147-11.813 11.813-11.905 30.875-.147 42.633L469.22 447.979 136.766 780.433c-11.758 11.758-11.666 30.82.147 42.633 11.896 11.896 30.901 11.879 42.633.147L512 490.759l332.454 332.454c11.732 11.732 30.737 11.749 42.633-.147 11.813-11.813 11.905-30.875.147-42.633L554.78 447.979z"/><glyph unicode="" glyph-name="download" d="m760.677 486.536.134.045c8.682-8.809 8.682-23.13 0-31.94L537.007 228.759c-4.386-4.427-10.114-6.641-15.842-6.641-5.683 0-11.412 2.168-15.842 6.596L281.564 454.596c-8.682 8.809-8.682 23.13 0 31.94 8.727 8.809 22.958 8.809 31.64 0l185.541-187.302v510.178c0 12.469 10.069 22.588 22.376 22.588 12.352 0 22.376-10.12 22.376-22.588V299.234l185.586 187.302c8.682 8.809 22.913 8.809 31.595 0zM879.158 64h-716.03C126.118 64 96 94.404 96 131.765v90.353c0 12.469 10.024 22.588 22.376 22.588s22.376-10.12 22.376-22.588v-90.353c0-12.469 10.024-22.588 22.376-22.588h716.03c12.352 0 22.376 10.12 22.376 22.588v90.353c0 12.469 10.024 22.588 22.376 22.588s22.376-10.12 22.376-22.588v-90.353c0-37.361-30.118-67.765-67.128-67.765z"/><glyph unicode="" glyph-name="edit" d="M265.257 411.521v-82.264h82.264l332.05 332.05-82.264 82.264-332.05-332.05zm357.95 409.751 134.065-134.065c14.304-14.304 14.304-37.496 0-51.8L388.594 266.729a36.629 36.629 0 0 0-25.9-10.728H228.629c-20.229 0-36.628 16.399-36.628 36.628v134.065a36.629 36.629 0 0 0 10.728 25.9l368.678 368.678c14.304 14.304 37.496 14.304 51.8 0zM224.917 128C206.737 128 192 142.327 192 160s14.738 32 32.917 32h542.166c18.18 0 32.917-14.327 32.917-32s-14.738-32-32.917-32H224.917z"/><glyph unicode="" glyph-name="enter" d="M711.934 768c-13.323-.1-24.107-10.781-24.107-23.921V373.656c0-44.303-36.251-80.265-81.154-80.685H242.251l75.326 75.465c4.366 4.4 7.047 10.421 7.047 17.061s-2.681 12.661-7.047 17.061c-4.326 4.36-10.358 7.06-17.039 7.06s-12.713-2.7-17.039-7.06L167.048 285.891c-4.366-4.4-7.047-10.421-7.047-17.081s2.681-12.681 7.047-17.081l116.431-116.667c4.326-4.36 10.358-7.06 17.039-7.06s12.713 2.7 17.039 7.06c4.366 4.4 7.047 10.421 7.047 17.061s-2.681 12.661-7.047 17.061l-75.326 75.465h364.402C678.242 245.369 736 302.693 736 373.317V744.08c0 13.141-10.764 23.821-24.086 23.921h.02z"/><glyph unicode="" glyph-name="filter" d="M825.718 776.524c-8.215 14.118-23.264 23.453-40.499 23.476H238.781c-17.235-.023-32.307-9.358-40.384-23.246-4.073-6.875-6.397-14.899-6.397-23.476s2.324-16.578 6.397-23.453l220.881-380.669V110.721c.046-19.199 11.62-35.708 28.188-42.928 5.707-2.368 11.989-3.702 18.547-3.794 12.656.023 24.092 5.035 32.514 13.129l94.022 90.201c8.79 8.507 14.267 20.418 14.336 33.593v151.454l218.81 377.657c3.958 6.668 6.305 14.715 6.305 23.315 0 8.53-2.324 16.532-6.351 23.407l.069-.23zM561.991 368.241l-1.91-11.956V200.946l-94.045-90.224v245.563l-2.738 10.117-224.54 386.877h546.438L561.991 368.241z"/><glyph unicode="" glyph-name="home" d="M885.083 470.258 543.057 788.074c-8.316 7.397-19.345 11.925-31.405 11.925s-23.089-4.528-31.45-11.97l-344.581-320.26c-4.685-4.326-7.621-10.513-7.621-17.373 0-3.161.628-6.187 1.748-8.966 3.609-8.765 12.217-14.929 22.259-14.929h73.368V171.674c.336-49.741 40.73-89.911 90.516-89.911h95.493c26.339 0 47.702 21.251 47.881 47.545v263.816c.09 16.991 13.898 30.733 30.889 30.733h43.061c17.014 0 30.822-13.719 30.957-30.71V129.309c.179-26.317 21.564-47.59 47.903-47.59h87.804c50.93 0 92.242 41.111 92.601 91.951v252.675h79.667c13.158 0 23.851 10.67 23.851 23.851 0 8.384-4.326 15.759-10.872 20.018l-.045.045zm-116.788 3.99c-13.226 0-23.94-10.67-24.053-23.851V173.692c-.179-24.456-20.04-44.227-44.541-44.227h-.224l-87.042-.179v263.861c-.336 43.398-35.574 78.434-79.017 78.434h-43.577c-43.443 0-78.681-35.059-78.972-78.434l.202-263.636h-95.089c-23.335 0-42.277 18.83-42.434 42.142v278.7c-.112 13.203-10.849 23.873-24.053 23.873h-36.471l298.628 277.512 298.673-277.512-42.03.022z"/><glyph unicode="" glyph-name="limited" d="M360.106 247.618c42.197-32.036 94.825-51.047 151.894-51.047h.019c138.772.168 251.241 112.638 251.41 251.429 0 57.07-19.011 109.697-51.047 151.894L360.106 247.618zm-48.488 48.488 352.276 352.276c-42.197 32.036-94.825 51.047-151.894 51.047-138.866 0-251.429-112.563-251.429-251.429 0-57.07 19.011-109.697 51.047-151.894zM512 768h.02c176.62-.24 319.74-143.36 319.98-320 0-176.74-143.26-320-320-320S192 271.26 192 448s143.26 320 320 320z"/><glyph unicode="" glyph-name="internet" d="M512 832c-212.088 0-384-171.912-384-384S299.912 64 512 64s384 171.912 384 384c-.264 211.968-172.032 383.736-383.976 384H512zm280.8-548.592c-25.872 17.832-55.536 33.264-87.072 44.88 3.264 36.6 6.72 77.76 6.72 119.688s-3.456 83.088-10.104 123.144c36.72 8.808 67.992 25.416 96.48 45.696-.12.144.864 1.2 1.728 2.328 29.856-48.84 47.52-107.976 47.52-171.24 0-63.816-17.976-123.456-49.104-174.096-.888 4.728-3.24 7.464-6.072 9.552l-.096.048zM512 112c-52.992 0-108.528 70.272-135.552 184.56 40.68 11.16 87.384 17.568 135.6 17.568s94.92-6.408 139.32-18.432C620.552 182.224 564.992 112 512 112zm0 250.08h-.264c-51.36 0-101.16-6.768-148.512-19.464-.84 32.328-3.6 68.568-3.6 105.456s2.76 73.128 8.112 108.528c42.936-15.768 92.808-22.536 144.264-22.536s101.328 6.768 148.776 19.464c.84-32.328 3.624-68.544 3.624-105.432s-2.784-73.104-8.136-108.504c-42.768 15.696-92.472 22.416-143.712 22.416h-.576l.024.072zM512 784c52.992 0 108.528-70.296 135.552-184.56-40.68-11.16-87.384-17.568-135.6-17.568s-94.92 6.408-139.32 18.432C403.472 713.8 459.008 784 512 784zm262.56-126.888a21.802 21.802 0 0 1-4.896-2.256c-22.008-15.672-47.304-29.352-74.232-39.744-15.072 55.8-37.704 105.648-68.544 149.304 60.12-23.52 109.704-59.952 147.144-106.56l.528-.744zM396.32 763.048c-29.952-42.336-52.584-92.208-64.776-146.016-29.616 8.376-54.72 21.912-77.76 38.184a32.883 32.883 0 0 1-4.272 1.632c37.8 47.448 87.456 83.976 144.456 105.528l2.352.672zm-172.8-143.712a22.175 22.175 0 0 1 3.528-3.792c27.144-19.296 58.248-35.784 91.416-48-3.264-36.576-6.72-77.688-6.72-119.616s3.456-83.04 10.08-123.072c-36.96-8.904-68.424-25.656-97.08-46.152.288-.024-.552-.936-1.32-1.92-29.832 48.84-47.472 107.976-47.472 171.216 0 63.312 17.664 122.472 48.336 172.872l-.768-1.536zm26.184-380.88c1.656.648 3.072 1.368 4.416 2.232 22.128 15.768 47.544 29.496 74.616 39.936 15.096-55.8 37.728-105.648 68.544-149.304-60.096 23.544-109.68 59.952-147.12 106.536l-.456.6zm378.048-105.6c29.952 42.288 52.56 92.112 64.752 145.872 28.224-7.8 52.128-20.424 74.184-35.52 1.704-1.176 5.184-2.52 8.928-2.976-38.016-48-88.08-84.936-145.632-106.608l-2.232-.768z"/><glyph unicode="" glyph-name="loader" d="M512 160c-159.058 0-288 128.942-288 288s128.942 288 288 288 288-128.942 288-288-128.942-288-288-288zm0 38.4c137.85 0 249.6 111.75 249.6 249.6S649.85 697.6 512 697.6 262.4 585.85 262.4 448 374.15 198.4 512 198.4zm-38.4 383.953c0 10.63 8.906 19.247 19.2 19.247 10.604 0 19.2-8.751 19.2-19.247V390.448c0-10.63-8.906-19.247-19.2-19.247-10.604 0-19.2 8.751-19.2 19.247v191.905zM607.746 409.6c10.744 0 19.454-8.906 19.454-19.2 0-10.604-8.698-19.2-19.454-19.2H493.053c-10.744 0-19.454 8.906-19.454 19.2 0 10.604 8.698 19.2 19.454 19.2h114.693z"/><glyph unicode="" glyph-name="location" d="M512 864c-159.444-1.75-288-131.375-288-291.005v-2.5c0-155.104 257.837-483.241 268.817-497.118C497.319 67.651 504.222 64 512 64s14.681 3.651 19.133 9.327C542.163 87.255 800 415.391 800 570.62v2.375C800 732.65 671.419 862.249 512.15 864H512zm0-734.363C430.94 236.282 273.271 465.5 273.271 570.62c-.025 1.25-.05 2.751-.05 4.226 0 131.85 106.896 238.72 238.779 238.72s238.779-106.87 238.779-238.72c0-1.475-.025-2.976-.05-4.451 0-104.845-157.693-334.013-238.754-440.708l.025-.05zm0 567.607c-.75.025-1.626.025-2.501.025-73.207 0-132.558-59.336-132.558-132.525s59.351-132.525 132.558-132.525 132.533 59.311 132.558 132.5v1.2c0 72.089-58.05 130.649-129.981 131.45l-.075-.125zm0-214.816c-.45 0-1-.025-1.551-.025-45.495 0-82.361 36.857-82.361 82.34s36.866 82.34 82.361 82.34c45.495 0 82.361-36.857 82.361-82.34v-.575c0-44.783-36.091-81.165-80.76-81.64l-.05-.1z"/><glyph unicode="" glyph-name="lock" d="M766.118 163.765c0-12.469-10.12-22.588-22.588-22.588H291.765c-12.469 0-22.588 10.12-22.588 22.588v361.412c0 12.469 10.12 22.588 22.588 22.588H743.53c12.469 0 22.588-10.12 22.588-22.588V163.765zM359.529 660.706c0 87.191 70.927 158.118 158.118 158.118s158.118-70.927 158.118-158.118v-67.765H359.53v67.765zm384-67.765h-22.588v67.765C720.941 772.789 629.73 864 517.647 864s-203.294-91.211-203.294-203.294v-67.765h-22.588c-37.361 0-67.765-30.404-67.765-67.765V163.764c0-37.361 30.404-67.765 67.765-67.765H743.53c37.361 0 67.765 30.404 67.765 67.765v361.412c0 37.361-30.404 67.765-67.765 67.765z"/><glyph unicode="" glyph-name="print" d="M785.744 575.082h-41.752V678.68c-.188 31.701-25.607 57.32-56.958 57.32H336.967c-31.333 0-56.771-25.619-56.977-57.301V575.082H237.9c-60.469 0-109.543-49.452-109.899-110.592v-92.062c.357-61.178 49.412-110.63 109.899-110.63h42.109v-76.459c.169-31.701 25.607-57.339 56.958-57.339h350.086c31.352 0 56.771 25.638 56.958 57.32v76.478h42.09c60.469 0 109.543 49.452 109.899 110.592v91.967c-.3 61.216-49.393 110.725-109.899 110.725h-.357zM327.936 678.68c.113 5.074 4.168 9.161 9.18 9.218h349.729c5.012-.057 9.068-4.143 9.161-9.199V575.082h-368.09V678.68h.019zm368.109-493.227c-.075-5.074-4.149-9.18-9.161-9.237H337.155c-5.031.057-9.105 4.143-9.199 9.218v194.805c.113 5.074 4.168 9.161 9.18 9.218h349.71c3.755-.038 6.984-2.338 8.429-5.607a8.886 8.886 0 0 0 .77-3.611V185.453zm151.951 186.956c-.207-34.571-27.935-62.509-62.102-62.509h-42.052v70.244c0 8.039-1.652 15.698-4.637 22.616-8.861 20.412-29.024 34.666-52.453 34.666H336.966c-31.333 0-56.771-25.619-56.977-57.301v-70.244h-41.865c-34.186 0-61.915 27.938-62.102 62.49v91.967c.207 34.571 27.935 62.509 62.102 62.509h548.089c34.186 0 61.915-27.938 62.102-62.49V372.39l-.319.019z"/><glyph unicode="" glyph-name="search" d="M711.099 548.551c0 129.911-105.397 235.24-235.402 235.24-130.042 0-235.445-105.323-235.445-235.24 0-129.907 105.394-235.197 235.445-235.197 130.015 0 235.402 105.296 235.402 235.197zm-48.176-212.91 164.676-233.656c7.671-10.885 5.059-25.922-5.836-33.587s-25.945-5.054-33.616 5.831L624.108 306.982c-43.174-26.534-94.003-41.837-148.411-41.837C318.998 265.145 192 392.018 192 548.552c0 156.541 127.005 283.449 283.697 283.449 156.656 0 283.654-126.916 283.654-283.449 0-84.841-37.308-160.972-96.428-212.91zm-313.229 212.91c0-13.313-10.801-24.105-24.126-24.105s-24.126 10.792-24.126 24.105c0 96.147 78.01 174.089 174.241 174.089 13.324 0 24.126-10.792 24.126-24.105s-10.801-24.105-24.126-24.105c-69.582 0-125.99-56.358-125.99-125.88z"/><glyph unicode="" glyph-name="secure" d="M512.01 424.613c-25.012-.038-45.282-20.328-45.282-45.359 0-25.05 20.309-45.359 45.359-45.359s45.359 20.309 45.359 45.359-20.309 45.359-45.359 45.359h-.077zm194.296 180.399h-50.503v32.287c0 86.879-48.373 130.702-143.793 130.702-127.458 0-143.793-69.699-143.793-130.702v-32.287h-50.503c-34.072-.038-61.694-27.68-61.713-61.752V215.248c.019-34.091 27.622-61.713 61.694-61.752h388.593c34.072.038 61.694 27.68 61.713 61.752V543.26c-.019 34.053-27.584 61.675-61.617 61.752h-.077zm-286.319 32.286c0 47.662 6.411 79.181 92.023 79.181 76.628 0 92.023-30.233 92.023-79.181v-32.287H419.987v32.287zm296.262-422.05c-.134-5.452-4.511-9.828-9.924-10.001H317.79c-5.432.173-9.79 4.549-9.924 9.982V543.26c.134 5.432 4.492 9.809 9.905 10.001h388.612c5.432-.173 9.809-4.549 9.943-9.982V215.248h-.077z"/><glyph unicode="" glyph-name="settings" d="M512.04 170.925c44.603 0 84.773-24.854 105.076-63.402a356.923 356.923 0 0 1 59.761 24.617 119.42 119.42 0 0 0-6.491 38.785c0 65.46 53.27 118.73 118.73 118.73 13.219 0 26.358-2.216 38.785-6.491 10.013 19.155 18.284 39.141 24.617 59.761-38.548 20.263-63.402 60.433-63.402 105.076s24.854 84.773 63.402 105.076a356.923 356.923 0 0 1-24.617 59.761 119.42 119.42 0 0 0-38.785-6.491c-65.46 0-118.73 53.27-118.73 118.73 0 13.219 2.216 26.358 6.491 38.785-19.155 10.013-39.141 18.284-59.761 24.617-20.263-38.548-60.433-63.402-105.076-63.402s-84.773 24.854-105.076 63.402c-20.58-6.332-40.606-14.604-59.761-24.617a119.42 119.42 0 0 0 6.491-38.785c0-65.46-53.27-118.73-118.73-118.73a119.393 119.393 0 0 0-38.785 6.491c-10.013-19.155-18.284-39.141-24.617-59.761 38.548-20.263 63.402-60.433 63.402-105.076s-24.854-84.773-63.402-105.076c6.332-20.58 14.604-40.606 24.617-59.761a119.42 119.42 0 0 0 38.785 6.491c65.46 0 118.73-53.27 118.73-118.73 0-13.219-2.216-26.358-6.491-38.785 19.155-10.013 39.141-18.284 59.761-24.617 20.263 38.548 60.433 63.402 105.076 63.402zM418.283 63.989c-1.623 0-3.285.198-4.947.633a393.834 393.834 0 0 0-101.474 41.912c-9.221 5.422-12.467 17.176-7.361 26.556 6.293 11.556 9.617 24.617 9.617 37.875 0 43.653-35.5 79.153-79.153 79.153-13.219 0-26.318-3.324-37.875-9.617-9.38-5.105-21.134-1.86-26.556 7.361-18.68 31.82-32.769 65.934-41.912 101.474-2.572 10.052 3.047 20.382 12.862 23.667 32.215 10.844 53.903 41.001 53.903 74.998s-21.648 64.154-53.903 74.998c-9.815 3.324-15.435 13.614-12.862 23.667a393.834 393.834 0 0 0 41.912 101.474c5.422 9.221 17.176 12.467 26.556 7.361 11.517-6.293 24.617-9.617 37.875-9.617 43.653 0 79.153 35.5 79.153 79.153 0 13.219-3.324 26.318-9.617 37.875-5.105 9.38-1.86 21.134 7.361 26.556 31.82 18.68 65.934 32.769 101.474 41.912 10.052 2.572 20.382-3.047 23.667-12.862 10.844-32.215 41.001-53.903 74.998-53.903s64.154 21.648 74.998 53.903c3.324 9.815 13.654 15.435 23.667 12.862a393.834 393.834 0 0 0 101.474-41.912c9.221-5.422 12.467-17.176 7.361-26.556-6.293-11.556-9.617-24.617-9.617-37.875 0-43.653 35.5-79.153 79.153-79.153 13.219 0 26.318 3.324 37.875 9.617 9.38 5.105 21.134 1.86 26.556-7.361 18.68-31.82 32.769-65.934 41.912-101.474 2.572-10.052-3.047-20.382-12.862-23.667-32.215-10.844-53.903-41.001-53.903-74.998s21.648-64.154 53.903-74.998c9.815-3.324 15.435-13.614 12.862-23.667a393.834 393.834 0 0 0-41.912-101.474c-5.422-9.221-17.176-12.467-26.556-7.361-11.556 6.293-24.617 9.617-37.875 9.617-43.653 0-79.153-35.5-79.153-79.153 0-13.219 3.324-26.318 9.617-37.875 5.105-9.38 1.86-21.134-7.361-26.556-31.82-18.68-65.934-32.769-101.474-41.912-10.052-2.572-20.382 3.047-23.667 12.862-10.844 32.215-41.001 53.903-74.998 53.903s-64.154-21.648-74.998-53.903c-2.77-8.192-10.448-13.496-18.759-13.496h.04zm93.757 265.242c65.46 0 118.73 53.27 118.73 118.73s-53.27 118.73-118.73 118.73c-65.46 0-118.73-53.27-118.73-118.73s53.27-118.73 118.73-118.73zm0 197.882c43.653 0 79.153-35.5 79.153-79.153s-35.5-79.153-79.153-79.153c-43.653 0-79.153 35.5-79.153 79.153s35.5 79.153 79.153 79.153z"/><glyph unicode="" glyph-name="add" d="M512 832c-212.088 0-384-171.912-384-384S299.912 64 512 64s384 171.912 384 384c-.288 211.968-172.032 383.712-383.976 384H512zm0-706.56c-178.152 0-322.56 144.408-322.56 322.56S333.848 770.56 512 770.56c178.152 0 322.56-144.408 322.56-322.56-.216-178.056-144.504-322.344-322.536-322.56H512zm168.96 353.28H542.72v138.24c0 16.968-13.752 30.72-30.72 30.72s-30.72-13.752-30.72-30.72V478.72H343.04c-16.968 0-30.72-13.752-30.72-30.72s13.752-30.72 30.72-30.72h138.24V279.04c0-16.968 13.752-30.72 30.72-30.72s30.72 13.752 30.72 30.72v138.24h138.24c16.968 0 30.72 13.752 30.72 30.72s-13.752 30.72-30.72 30.72z"/><glyph unicode="" glyph-name="back" d="M773.564 475.714H250.882l172.191 180.979c4.787 5.084 7.715 11.991 7.715 19.601s-2.944 14.517-7.731 19.617c-4.692 4.988-11.305 8.09-18.642 8.09s-13.95-3.102-18.642-8.09L167.716 466.682c-4.771-5.084-7.715-11.991-7.715-19.585s2.944-14.501 7.731-19.601l216.293-227.358c4.692-5.02 11.305-8.138 18.642-8.138s13.95 3.118 18.642 8.138c4.787 5.1 7.731 12.007 7.731 19.601s-2.944 14.501-7.731 19.601L249.134 420.335h524.414c14.706.48 26.452 12.694 26.452 27.706s-11.746 27.227-26.405 27.706l-.031-.032z"/><glyph unicode="" glyph-name="delivery" d="M165.327 629.693h291.151c11.385 0 20.615 9.23 20.615 20.615s-9.23 20.615-20.615 20.615H165.327c-11.385 0-20.615-9.23-20.615-20.615s9.23-20.615 20.615-20.615zm-33.688-194.115h118.038c11.385 0 20.615 9.23 20.615 20.615s-9.23 20.615-20.615 20.615H131.639c-11.385 0-20.615-9.23-20.615-20.615s9.23-20.615 20.615-20.615zm16.752 96.549h184.945c11.385 0 20.615 9.23 20.615 20.615s-9.23 20.615-20.615 20.615H148.391c-11.385 0-20.615-9.23-20.615-20.615s9.23-20.615 20.615-20.615zm765.032-18.501-75.121 94.862c-12.361 15.207-31.044 24.823-52.005 24.823H639.288a19.22 19.22 0 0 1-5.286-1.098l3.192 17.606c1.281 6.14 2.013 13.215 2.013 20.452 0 24.64-8.478 47.309-22.668 65.24-16.468 19.822-41.413 32.488-69.286 32.488-.488 0-.976 0-1.484-.02h-270.74c-11.385 0-20.615-9.23-20.615-20.615s9.23-20.615 20.615-20.615h270.882c.346 0 .752.02 1.159.02 15.471 0 29.316-6.973 38.567-17.931 8.173-10.694 13.052-24.152 13.052-38.729 0-4.676-.508-9.23-1.464-13.621l-52.981-305.24c-7.421-41.576-41.555-73.311-83.72-76.991l-75.019-.02c-9.413 44.239-48.163 76.95-94.557 76.95-.976 0-1.952-.02-2.907-.041-50.846-1.484-94.658-30.679-116.94-73.006-20.513 7.156-34.521 26.429-34.521 48.976 0 .752.02 1.484.041 2.216v.061c0 11.141-9.047 20.188-20.188 20.188h-.529c-11.039-.325-19.883-9.372-19.883-20.493v-.549c-.02-.488-.02-1.118-.02-1.728 0-39.99 24.966-74.165 60.158-87.766.651-.508.488-.752.427-1.037-1.281-6.14-2.033-13.194-2.033-20.432 0-24.701 8.62-47.39 23.014-65.24 17.931-21.286 44.849-34.846 74.938-34.846.793 0 1.565 0 2.358.02 65.586 2.114 119.522 49.85 131.192 112.447.244 1.647.285 2.399.427 3.192h198.526c-.813-4.859-1.281-10.45-1.281-16.142 0-24.498 8.559-47.004 22.831-64.671 17.931-21.286 44.849-34.846 74.938-34.846.752 0 1.504 0 2.257.02 65.586 2.094 119.543 49.85 131.192 112.447.285 1.647.285 2.399.407 3.192h55.502c10.023.061 18.318 7.339 19.944 16.915l35.964 207.126c.793 3.964 1.24 8.539 1.24 13.215 0 16.346-5.51 31.39-14.76 43.405l.183-.183zm-567.156-275.74c-9.027-43.832-46.109-76.727-91.324-79.227-.813-.041-1.464-.041-2.114-.041-17.687 0-33.525 7.868-44.198 20.31-8.376 10.633-13.398 24.132-13.398 38.79 0 4.615.508 9.128 1.443 13.459 8.966 43.405 46.048 76.28 91.243 78.801.813.041 1.464.041 2.135.041 17.687 0 33.525-7.868 44.198-20.31 8.376-10.633 13.398-24.132 13.398-38.79a62.51 62.51 0 0 0-1.443-13.459l.061.427zm428.91 0c-9.027-43.832-46.13-76.706-91.324-79.227-.813-.02-1.443-.041-2.094-.041-17.687 0-33.525 7.868-44.219 20.31-8.376 10.633-13.377 24.112-13.377 38.77 0 4.635.508 9.149 1.443 13.479 8.966 43.405 46.048 76.28 91.243 78.801.813.041 1.484.041 2.135.041 17.667 0 33.504-7.868 44.178-20.31 8.335-10.612 13.316-24.071 13.316-38.689a63.38 63.38 0 0 0-1.464-13.56l.163.427zm111.695 226.378-32.996-189.967h-39.563c-9.454 44.239-48.203 76.95-94.597 76.95-.956 0-1.931-.02-2.887-.041-52.025-1.586-96.691-32.163-118.424-76.097l-50.419-.793c18.033 18.643 30.821 42.45 35.944 68.981l43.873 252.808a19.411 19.411 0 0 1 11.385-4.066h146.074c.325.02.712.02 1.098.02 8.132 0 15.39-3.659 20.249-9.433l75.121-94.902c3.558-4.798 5.693-10.816 5.693-17.342 0-2.175-.244-4.29-.691-6.323l.142.203z"/><glyph unicode="" glyph-name="excluded" d="M713.02 831.928H311.335a88.879 88.879 0 0 1-3.713.072C245.188 832 194.294 781.844 192 719.072V177.433c2.176-63.109 53.14-113.432 115.693-113.432 1.277 0 2.554.024 3.831.072h293.253c20.433 0 38.974 8.227 52.596 21.564l152.799 150.251c13.409 13.265 21.757 31.758 21.828 52.243v430.726c-2.318 62.965-53.187 113.12-115.622 113.12-1.182 0-2.365-.024-3.547-.048h.189zM250.816 177.432v541.423c2.01 30.463 26.866 54.425 57.255 54.425 1.182 0 2.341-.048 3.5-.096H713.09c.97.048 2.081.096 3.216.096 30.389 0 55.269-23.939 57.326-54.233V319.432H614.424c-15.963 0-28.947-13.049-29.112-29.216V122.814H311.476a63.128 63.128 0 0 0-3.169-.096c-30.531 0-55.505 24.082-57.468 54.521l-.024.192zm393.219-22.427V260.69h107.699L644.035 155.005zm-58.793 252.698c5.179-5.301 12.345-8.563 20.291-8.563h.662c15.916 0 28.805 13.097 28.805 29.216 0 8.059-3.216 15.375-8.443 20.676l-73.053 73.207 73.053 73.207c5.25 5.277 8.514 12.593 8.514 20.676s-3.264 15.399-8.514 20.652c-5.368 5.349-12.7 8.635-20.811 8.635s-15.467-3.286-20.811-8.635l-72.769-73.207-73.077 73.207c-5.345 5.277-12.652 8.515-20.717 8.515s-15.372-3.262-20.741-8.539c-5.297-5.301-8.585-12.665-8.585-20.796s3.287-15.519 8.585-20.82l73.053-73.207-72.769-72.919c-5.297-5.301-8.585-12.665-8.585-20.82s3.287-15.519 8.585-20.82c5.345-5.301 12.652-8.563 20.717-8.563s15.372 3.262 20.741 8.563l72.769 73.207 73.1-72.871z"/><glyph unicode="" glyph-name="fast-action-1" d="M686.82 460.225c22.616 21.9 36.688 52.704 36.688 86.851 0 65.369-51.52 118.513-115.638 119.986-1.214.044-2.515.066-3.795.066-31.506 0-60.085-12.665-81.053-33.267-21.987-21.812-35.648-52.243-35.648-85.906 0-66.359 53.059-120.162 118.5-120.162 31.311 0 59.803 12.313 80.988 32.454l-.065-.066.022.044zm-30.205 32.035c-13.422-13.105-31.701-21.196-51.845-21.196-41.307 0-74.786 33.949-74.786 75.835s33.479 75.835 74.786 75.835h1.93c40.526-.923 73.051-34.477 73.051-75.703 0-21.526-8.869-40.963-23.093-54.749l-.043-.022zm206.86 284.454c-.629 10.906-8.977 19.635-19.537 20.734-11.774 1.341-288.476 28.584-454.593-131.684-8.196-7.894-15.981-16.337-23.527-25.066h-1.019c-86.517-19.107-186-38.302-186.998-38.5-10.191-1.979-17.802-10.972-17.802-21.746 0-5.937 2.32-11.346 6.071-15.303l102.953-109.212c-1.496-5.013-3.144-9.916-4.532-15.04-2.125-7.586-3.361-16.293-3.361-25.286 0-.704 0-1.429.022-2.133l-76.347.11c-12.056 0-21.814-9.894-21.814-22.12s9.758-22.12 21.814-22.12h87.254c4.705-9.433 10.365-17.546 17.043-24.692l101.305-107.497a102.439 102.439 0 0 1 22.052-17.15l.499-90.611c0-12.247 9.801-22.185 21.879-22.185s21.879 9.938 21.879 22.185v76.693c2.19-.132 4.25-.66 6.418-.66h.087c7.589 0 14.983.901 22.074 2.595 4.337 1.033 9.085 2.463 13.986 3.716l102.671-108.883c3.99-4.222 9.584-6.86 15.786-6.86h.043c2.017 0 3.99.286 5.855.792 7.568 2.111 13.509 8.245 15.395 16.029.26 1.143 23.917 100.747 46.88 187.29v1.033c8.955 7.234 17.672 14.71 25.847 22.603 166.268 160.158 152.369 441.027 151.697 452.966h.022zM225.397 566.425c26.389 5.255 63.251 12.709 101.327 20.778-15.07-23.988-29.056-51.649-40.483-80.651l-60.844 59.872zm249.49-315.412c-3.534-.814-7.611-1.253-11.774-1.253-16.132 0-30.682 6.882-40.938 17.942L320.783 375.265c-9.801 10.202-15.851 24.164-15.851 39.578 0 5.079.651 10.026 1.908 14.71 19.645 80.057 59.109 149.34 112.841 204.243 111.106 107.19 283.944 121.613 368.965 121.613 12.576 0 23.245-.286 31.506-.682 0-64.775-10.582-275.658-138.384-398.943-56.29-51.385-126.436-88.28-204.063-104.243l-2.819-.528zm131.184-88.457-59.499 63.104c32.764 11.346 60.757 24.274 87.276 39.556-12.295-39.314-21.336-76.143-27.776-102.55v-.11zM292.009 287.842c-4.033 4.705-9.931 7.674-16.523 7.674-5.508 0-10.538-2.067-14.376-5.475l-68.433-59.696a22.304 22.304 0 0 1-7.568-16.777c0-12.247 9.779-22.163 21.857-22.163 5.464 0 10.473 2.045 14.311 5.409l68.433 59.696a22.223 22.223 0 0 1 7.741 16.908c0 5.585-2.038 10.708-5.421 14.6l-.022-.176zm13.66-50.352-68.455-59.718a22.304 22.304 0 0 1-7.568-16.777c0-12.247 9.779-22.163 21.857-22.163 5.464 0 10.473 2.045 14.311 5.409l68.433 59.696c4.684 4.09 7.611 10.114 7.611 16.821 0 12.247-9.801 22.185-21.879 22.185-5.464 0-10.451-2.023-14.289-5.387l-.022-.066z"/><glyph unicode="" glyph-name="fast-action-2" d="M494.076 335.815c-1.625.406-3.506.641-5.43.641-10.968 0-20.182-7.483-22.812-17.616-16.59-67.131-58.493-122.246-114.742-155.811-8.017-4.725-12.55-12.122-12.55-20.567 0-4.425 1.24-8.573 3.399-12.079 4.148-6.713 11.588-11.181 20.054-11.181 4.447 0 8.616 1.24 12.186 3.378 67.922 40.492 117.607 105.784 136.827 183.134.834 3.656 1.069 5.537 1.069 7.461 0 10.989-7.611 20.203-17.852 22.662l-.15-.021zm126.608 9.664c-1.625.406-3.506.641-5.43.641-10.968 0-20.182-7.483-22.812-17.616-16.59-67.131-58.493-122.225-114.742-155.79-7.996-4.725-12.528-12.122-12.528-20.567 0-4.425 1.24-8.552 3.378-12.058 4.148-6.734 11.588-11.224 20.075-11.224a23.36 23.36 0 0 1 12.186 3.399c67.922 40.471 117.585 105.784 136.805 183.113.834 3.656 1.069 5.537 1.069 7.461 0 10.989-7.611 20.203-17.852 22.662l-.15-.021zM832.38 736.675C809.034 743.196 601.271 800 431.649 800c-92.914 0-156.517-16.697-194.444-51.053-125.859-114.079-62.128-541.064-53.063-597.356a36.705 36.705 0 0 1 10.604-24.351c6.948-6.927 16.547-11.224 27.152-11.224h.406c16.034 0 29.696 10.155 34.934 24.372a27.03 27.03 0 0 1 .877 2.929c20.332 88.895 88.104 332.959 157.287 396.071 70.701 64.33 325.861 111.749 418.262 124.598 1.112.15 2.074.342 3.014.599 15.778 4.276 27.323 18.621 27.323 35.639 0 18.514-13.64 33.843-31.427 36.494l-.192-.043zM224.25 202.046c-4.703 36.9-9.578 82.31-12.742 130.841l50.412-2.352c-16.056-49.129-29.076-95.522-37.649-128.403l-.021-.086zm159.339 371.506c-40.343-36.729-76.944-116.645-106.041-197.03l-68.606 3.057c-5.601 136.677 3.998 284.386 59.84 334.99 28.049 25.42 84.341 38.867 162.76 38.867 67.131-1.069 131.974-7.547 195.064-19.006l-10.262-65.463c-91.546-22.662-188.03-54.602-232.755-95.351v-.064zm280.43 106.554 2.138 47.141c45.324-8.68 85.004-17.873 112.861-24.736-29.76-4.981-70.573-12.485-115.063-22.32l.064-.086z"/><glyph unicode="" glyph-name="help-1" d="M512 832c-212.088 0-384-171.912-384-384S299.912 64 512 64s384 171.912 384 384c-.264 211.968-172.032 383.736-383.976 384H512zm334.872-360H728.984c-11.664 101.544-91.464 181.32-192 192.864L535.976 782.8c166.44-12.384 298.44-144.36 310.824-309.672l.072-1.128zM512 277.6c-94.104 0-170.4 76.296-170.4 170.4S417.896 618.4 512 618.4 682.4 542.104 682.4 448c-.144-94.056-76.344-170.256-170.376-170.4H512zm-24 505.68V665.2c-101.568-11.808-181.32-91.608-192.984-192.192L176.744 472c12.504 166.632 144.624 298.776 310.128 311.208l1.128.072zM177.128 424H295.04c11.664-101.544 91.44-181.32 191.976-192.864l1.008-117.936c-166.44 12.384-298.44 144.36-310.824 309.672l-.072 1.128zM536 112.72v118.32c101.568 11.616 181.392 91.392 192.984 191.952L847.256 424c-12.552-166.608-144.648-298.704-310.128-311.208L536 112.72z"/><glyph unicode="" glyph-name="help-2" d="M512 832c-212.088 0-384-171.912-384-384S299.912 64 512 64s384 171.912 384 384c-.264 211.968-172.032 383.736-383.976 384H512zm0-720c-185.568 0-336 150.432-336 336s150.432 336 336 336 336-150.432 336-336c-.24-185.472-150.528-335.76-335.976-336H512zm0 553.68c-76.488-.048-138.504-61.992-138.648-138.456 0-13.272 10.752-24.024 24-24.024s24 10.752 24 24c.072 50.064 40.632 90.624 90.696 90.72 27.456-1.224 51.192-16.032 64.776-37.824 6.912-10.68 10.896-23.304 10.896-36.888 0-11.376-2.808-22.104-7.776-31.512-8.808-14.736-21.84-26.616-37.44-33.96-32.784-13.752-55.008-45.072-55.008-81.576 0-.504 0-1.008.024-1.512.552-39.768.552-56.088.552-56.088 0-13.248 10.752-24 24-24s24 10.752 24 24 0 16.32-.552 56.64c-.312 21.6 7.728 27.36 30.984 41.04 24.192 12.192 43.584 30.888 56.28 53.808 8.304 15.936 12.984 33.984 12.984 53.16 0 22.92-6.696 44.28-18.216 62.208-22.104 35.4-60.936 59.16-105.384 60.264H512zm0-378.96c-16.776 0-30.36-13.584-30.36-30.36S495.224 226 512 226s30.36 13.584 30.36 30.36v.144c0 16.68-13.536 30.216-30.216 30.216H512z"/><glyph unicode="" glyph-name="help-3" d="M767.206 634.394c-.843 37.452-31.49 67.485-69.144 67.485-.482 0-.939 0-1.42-.024h-.313a71.657 71.657 0 0 1-22.92-3.745l.506 16.949c-.843 37.452-31.49 67.485-69.144 67.485-.482 0-.939 0-1.42-.024h-.048c-8.667 0-16.973-1.488-24.677-4.249-7.15 31.114-34.765 53.705-67.675 53.705h-.867c-.361 0-.819.024-1.3.024-37.678 0-68.326-30.033-69.168-67.389v-15.437c-6.789 2.209-14.614 3.529-22.727 3.601-.433 0-.867.024-1.324.024-37.774 0-68.47-30.153-69.192-67.653l1.083-180.128-18.105 51.856c-10.232 27.008-35.92 45.854-66.038 45.854h-.915a79.37 79.37 0 0 1-21.764-3.265c-17.96-5.618-32.863-18.294-41.433-34.763a63.508 63.508 0 0 1-7.198-29.433c0-7.394 1.252-14.501 3.587-21.103l65.942-214.651C309.899 138.903 393.946 63.999 526.36 63.999c135.255 0 227.848 84.266 241.643 219.909v2.641l-.794 347.845zM526.453 112.231c-109.663 0-177.266 62.179-219.205 201.423L240.8 529.962a15.203 15.203 0 0 0-.915 5.234c0 2.641.674 5.138 1.854 7.322 2.721 5.186 7.439 9.075 13.145 10.683 2.383.768 4.959 1.2 7.632 1.248.289 0 .578.024.891.024 9.365 0 17.406-5.57 20.994-13.564l65.364-187.162c3.346-9.363 12.158-15.965 22.51-15.965 13.169 0 23.834 10.635 23.834 23.767v.384l-1.95 323.357c1.878 10.995 11.364 19.254 22.775 19.254s20.897-8.259 22.751-19.11l.024-256.544c0-13.132 10.689-23.791 23.859-23.791s23.859 10.659 23.859 23.791v335.625c1.926 10.971 11.388 19.206 22.799 19.206s20.873-8.235 22.775-19.062l.024-337.69c0-.216-.024-.48-.024-.768 0-13.156 10.689-23.815 23.883-23.815s23.883 10.659 23.883 23.815c0 .264 0 .528-.024.792v288.042c1.878 10.995 11.364 19.254 22.775 19.254s20.897-8.259 22.751-19.11l.024-292.555c0-13.132 10.689-23.791 23.859-23.791s23.859 10.659 23.859 23.791V634.37c1.926 10.971 11.388 19.206 22.799 19.206s20.873-8.235 22.775-19.062l.746-346.812c-11.628-109.954-84.071-175.495-193.998-175.495l.12.024z"/><glyph unicode="" glyph-name="included" d="M712.792 831.928H311.326a88.844 88.844 0 0 1-3.713.072c-62.43 0-113.32-50.156-115.613-112.928V177.433c2.176-63.109 53.136-113.432 115.684-113.432 1.277 0 2.554.024 3.831.072h293.278c20.384 0 38.9 8.227 52.45 21.564l152.929 150.251c13.361 13.313 21.709 31.782 21.827 52.219v430.75c-2.317 62.965-53.184 113.12-115.613 113.12-1.253 0-2.53-.024-3.784-.072l.189.024zM250.741 177.432v541.423c2.01 30.463 26.864 54.425 57.251 54.425 1.182 0 2.341-.048 3.5-.096h401.301a48.55 48.55 0 0 0 3.358.096c30.387 0 55.241-23.939 57.227-54.233V319.432h-159.03c-15.962 0-28.945-13.049-29.11-29.216V122.814H311.304a60.31 60.31 0 0 0-3.121-.096c-30.529 0-55.501 24.082-57.464 54.521l.024.192zm393.166-22.427V260.69h107.691L643.907 155.005zm30.789 402.973c5.297 5.301 8.608 12.665 8.608 20.82s-3.287 15.519-8.584 20.82c-5.321 5.349-12.651 8.635-20.715 8.635s-15.395-3.286-20.715-8.635L473.526 439.604l-82.625 82.658c-5.321 5.325-12.651 8.635-20.715 8.635s-15.395-3.286-20.715-8.635c-5.297-5.253-8.56-12.569-8.56-20.652s3.287-15.423 8.56-20.652l103.364-103.622c5.344-5.301 12.651-8.563 20.715-8.563s15.371 3.262 20.739 8.563l180.408 180.642z"/><glyph unicode="" glyph-name="movies" d="M785.856 736H238.161c-60.877-.144-110.162-49.519-110.162-110.396v-355.2c0-60.895 49.285-110.27 110.144-110.396h547.695C846.715 160.152 896 209.527 896 270.404v355.2c0 60.895-49.285 110.27-110.144 110.396zm62.155-465.613c0-34.381-27.792-62.263-62.155-62.407H238.161c-34.363.144-62.155 28.026-62.155 62.407v355.2c0 34.381 27.81 62.263 62.155 62.407h547.695c34.363-.144 62.155-28.026 62.155-62.407v-355.2zM643.294 468.804 404.736 606.632c-3.438 2.016-7.578 3.222-12.006 3.222-13.248 0-23.994-10.746-23.994-23.994V310.186c0-8.838 4.77-16.56 11.88-20.718a24.608 24.608 0 0 1 12.096-3.276c4.428 0 8.568 1.188 12.114 3.276l238.45 137.756c7.218 4.23 12.006 11.952 12.006 20.79s-4.77 16.56-11.88 20.718l-.108.072zM416.725 351.748v192.531l166.557-96.284-166.557-96.248z"/><glyph unicode="" glyph-name="music" d="M799.979 715.944c.021.42.021.945.021 1.449 0 27.372-21.757 49.682-48.917 50.606H386.21c-27.265-.924-49.002-23.234-49.002-50.606 0-.483 0-.966.021-1.449l-.483-436.887c-22.43 14.411-49.8 22.982-79.189 22.982h-.883C185.747 302.039 128 255.823 128 199.041s57.662-103.04 128.716-103.04c71.053 0 128.695 46.216 128.695 103.04 0 .714-.273 1.365-.273 2.08s.273.84.273 1.302l.441 400.944h365.399V334.622c-22.409 14.39-49.779 22.961-79.147 22.961h-.841c-70.927 0-128.653-46.216-128.653-103.04s57.662-103.019 128.695-103.019c71.032 0 128.695 46.237 128.695 103.019 0 2.395-.673 4.664-.883 7.016.399 1.26.715 2.731.883 4.243v450.164l-.021-.021zM256.695 144.401c-43.242 0-79.987 25.041-79.987 54.724s36.62 54.682 79.987 54.682c43.368 0 79.945-25.062 79.945-54.682s-36.62-54.724-79.945-54.724zm129.178 507.471v64.072c.273.903.441 1.933.441 3.025 0 .252 0 .504-.021.756l363.528.231a5.404 5.404 0 0 0 1.387-3.613c0-.147 0-.273-.021-.399v-64.051l-365.315-.021zm285.39-451.865c-43.242 0-79.945 25.062-79.945 54.682s36.62 54.724 79.945 54.724c43.326 0 79.945-25.041 79.945-54.724s-36.62-54.682-79.945-54.682z"/><glyph unicode="" glyph-name="my-services" d="M780.944 832h-378.96c-56.52-.24-103.44-41.16-112.968-94.968l-67.608-.696a82.119 82.119 0 0 1-6.192.216c-45.624 0-83.088-34.872-87.192-79.416L128 143.584c4.128-44.904 41.592-79.8 87.24-79.8 2.184 0 4.32.072 6.456.24L526.4 64c12.696 0 24.288 4.728 33.12 12.504l64.92 58.224h156.504c63.6.216 115.056 51.816 115.056 115.44V716.56c0 63.624-51.456 115.224-115.032 115.44h-.024zM175.832 143.56V656.8c4.464 18.408 20.784 31.848 40.272 31.848 1.872 0 3.72-.12 5.544-.36l416.904.024a40.91 40.91 0 0 0 5.328.336c19.464 0 35.808-13.464 40.2-31.584l.048-363.048H520.232c-13.248 0-24-10.752-24-24v-158.04H221.384a40.258 40.258 0 0 0-5.304-.336c-19.488 0-35.832 13.464-40.224 31.608l-.024.312zm368.28-16.464v118.872h132.552L544.112 127.096zm304.056 123.192v-.048c0-37.176-30.048-67.32-67.176-67.464h-102.96l40.392 36.216c8.208 7.224 13.392 17.712 13.512 29.4V656.8c-4.128 44.904-41.616 79.776-87.216 79.776-2.16 0-4.32-.072-6.432-.24l-300.168.024c8.616 27.672 33.912 47.448 63.864 47.64h378.984c37.152-.144 67.2-30.288 67.2-67.464V250.288zM304.04 528.04h251.856c13.248 0 24 10.752 24 24s-10.752 24-24 24H304.04c-13.248 0-24-10.752-24-24s10.752-24 24-24zm251.856-126.696c13.248 0 24 10.752 24 24s-10.752 24-24 24H304.04c-13.248 0-24-10.752-24-24s10.752-24 24-24h251.856z"/><glyph unicode="" glyph-name="my-tele2" d="M510.867 609.871c.036 24.781 20.07 44.901 44.838 44.972h372.986c23.038-2.361 40.876-21.592 40.91-45.014V35.358c-.071-24.762-20.028-44.816-44.81-44.959H555.719c-24.766.036-44.837 20.148-44.908 45.006l.468 220.388-13.993-3.019c-4.824-1.041-9.77-1.748-15.338-2.188l-5.242-.297c-2.254-.155-2.254-.155-3.828-.196H177.062c-4.694.192-6.741.317-8.965.503a109.674 109.674 0 0 0-15.875 2.345c-35.362 9.811-63.678 32.965-79.338 63.704-12.069 22.271-18.485 47.235-18.485 73.105 0 30.087 8.655 58.811 24.911 83.931 37.418 57.592 93.061 101.111 158.549 123.908A167.275 167.275 0 0 0 161.061 738.4c0 92.347 74.656 167.198 166.786 167.198 92.121 0 166.786-74.87 166.786-167.198 0-58.242-30.037-111.312-77.312-142.132 30.288-10.222 58.742-25.208 84.383-44.398a257.078 257.078 0 0 0 9.162-7.625v65.624zM553.4 195.356h373.582v308.801H553.4V195.356zm.028 414.473V546.78h373.584v62.913c-.023 1.367-1.125 2.473-2.278 2.5H555.845c-1.324-.05-2.395-1.143-2.417-2.363zm-225.691 3.885c68.549 0 124.113 55.71 124.113 124.464s-55.564 124.464-124.113 124.464c-68.358 0-123.84-55.427-124.112-123.976.028-68.932 55.541-124.743 124.112-124.951zm183.176-309.063-.374 178.893c-10.395 12.697-22.068 24.309-34.449 34.327-43.239 32.417-95.514 50.521-150.589 51.258-82.593 0-161.616-44.75-210.933-119.528-11.434-17.712-17.607-38.315-17.607-59.85 0-18.594 4.594-36.577 13.072-52.117 15.258-28.696 39.903-44.778 67.895-44.778h294.028c.91 0 1.612.028 3.539.13.339.018.845.04 1.518.066 1.002.06 1.035.062 1.875.081 11.596 1.158 22.592 5.168 32.024 11.517zM553.427 35.55c.023-1.367 1.125-2.473 2.278-2.5h369.159c1.178.188 2.099 1.213 2.12 2.335v117.319H553.428V35.549zm155.678 61.173c0 17.258 13.955 31.25 31.321 31.277 17.105-.105 30.964-14.052 30.964-31.277 0-17.258-13.955-31.25-31.143-31.25s-31.143 13.992-31.143 31.25zM862 445.917c11.791 0 21.337-9.571 21.337-21.367s-9.546-21.367-21.337-21.367H618.383c-11.791 0-21.337 9.571-21.337 21.367s9.546 21.367 21.337 21.367H862zm-70.95-77.329c11.763 0 21.281-9.543 21.281-21.311s-9.518-21.311-21.281-21.311H618.355c-11.763 0-21.281 9.543-21.281 21.311s9.518 21.311 21.281 21.311H791.05z"/><glyph unicode="" glyph-name="sheets" d="M542.499 800.053V677.187l122.887-3.15-122.887 126.017zm149.38-163.698-168.353 4.316c-10.028.257-18.024 8.459-18.024 18.489v167.851H208.62c-23.234 0-43.624-20.387-43.624-43.617V272.165c0-23.23 20.39-43.617 43.624-43.617h439.635c23.234 0 43.624 20.387 43.624 43.617v364.191zM356.141 191.557v-14.95c0-23.23 20.39-43.617 43.624-43.617h391.848c23.234 0 43.624 20.387 43.624 43.617v511.229c0 23.23-20.39 43.617-43.624 43.617h-130.55l67.811-69.538V272.163c0-43.659-36.954-80.607-80.62-80.607H356.141zm268.852 576.886h166.621c43.667 0 80.62-36.948 80.62-80.607V176.607c0-43.659-36.954-80.607-80.62-80.607H399.766c-43.667 0-80.62 36.948-80.62 80.607v14.95H208.621c-43.667 0-80.62 36.948-80.62 80.607v511.229c0 43.659 36.954 80.607 80.62 80.607h323.19l93.183-95.557zm-316.026-312.12c-10.216 0-18.498 8.28-18.498 18.495s8.282 18.495 18.498 18.495h238.932c10.216 0 18.498-8.28 18.498-18.495s-8.282-18.495-18.498-18.495H308.967zm0-73.98c-10.216 0-18.498 8.28-18.498 18.495s8.282 18.495 18.498 18.495h238.932c10.216 0 18.498-8.28 18.498-18.495s-8.282-18.495-18.498-18.495H308.967z"/><glyph unicode="" glyph-name="social-network" d="M862.534 456.796c9.164 13.808 16.469 30.875 16.469 53.715 0 28.239-12.543 86.674-95.499 89.408-18.515.6-109.673.672-157.135.672 5.252 49.141 10.193 146.439-32.593 197.786-17.148 20.601-42.809 33.624-71.517 33.624-.791 0-1.559 0-2.35-.024-97.25 0-98.161-83.436-98.521-114.901l-.24-17.411c.264-4.101.432-8.874.432-13.694 0-41.538-11.632-80.366-31.825-113.414-7.171-14.558-22.04-25.518-39.62-27.604-20.361 20.337-48.301 32.952-79.167 32.952-61.276 0-110.944-49.644-110.968-110.92v-292.11c0-61.252 49.644-110.872 110.848-110.872 30.002 0 57.199 11.919 77.153 31.25 15.061 1.967 32.521 3.118 50.268 3.118 29.595 0 58.446-3.19 86.242-9.209 27.58-4.988 63.89-9.113 100.8-11.008 13.886-.552 28.563-.767 45.16-.767 24.894 0 54.465.504 86.098 1.415 57.99 1.727 92.621 29.451 92.621 74.275 0 14.222-2.758 26.693-7.746 37.989 38.205 5.06 67.224 36.766 68.639 75.522.024 18.467-4.677 33.912-12.807 47.006 27.652 10.552 46.67 36.885 46.67 67.655 0 1.271-.024 2.566-.096 3.837 0 30.277-18.385 60.683-41.315 71.715zM208.229 174.872v291.99c.696 34.127 28.516 61.54 62.763 61.54s62.067-27.412 62.763-61.492V174.752c-.719-34.103-28.539-61.492-62.763-61.492-34.271 0-62.115 27.436-62.763 61.54v.072zm518.676 58.974c-42.953-.336-85.906 0-86.482 0-13.622 0-24.414-10.792-24.414-24.103 0-13.286 10.744-24.055 24.007-24.103 1.607 0 20.026-.168 44.2-.168 12.855 0 27.316 0 41.754.192 29.163-1.103 35.015-12.783 35.015-32.521 0-6.116 0-24.726-45.615-26.045-51.803-1.559-97.706-1.799-125.91-.815-37.125 1.943-71.565 5.9-105.356 11.847-26.189 5.3-62.187 8.778-99.001 8.778-2.446 0-4.892-.024-7.339-.048 2.806 8.394 4.293 18.035 4.437 28.012V466.91c-.168 12.399-2.374 24.199-6.283 35.207 24.079 7.986 43.337 24.486 55.376 45.639 24.343 39.644 38.588 87.033 38.588 137.757 0 4.773-.12 9.521-.384 14.222l.264 16.74c.528 46.479 7.89 67.224 50.412 67.224.696.048 1.511.072 2.326.072 13.79 0 26.093-6.307 34.199-16.212 34.919-41.85 24.486-148.909 17.483-186.778a24.343 24.343 0 0 1-.384-4.341c0-13.334 10.816-24.151 24.151-24.151 1.583 0 160.205 0 184.092-.624 40.507-1.343 48.637-16.812 48.637-41.442 0-35.998-46.431-38.732-51.731-38.924-49.452-1.631-86.602-.911-86.938-.935-13.79 0-24.606-10.792-24.606-24.127 0-13.143 10.528-23.839 23.623-24.103.743 0 8.994-.144 22.664-.144 11.512 0 27.005 0 44.944.528.528-.12 1.151-.192 1.799-.264.336 0 25.351 1.564 48.085.839 42.06-1.341 47.27-19.69 47.27-38.42 0-19.882-9.953-33.432-58.614-35.063-2.326-.216-127.732.024-131.33.024-13.31 0-24.103-10.792-24.103-24.103s10.792-24.103 24.103-24.103c.887 0 87.153 0 110.201-.6 42.426-1.247 45.975-17.627 45.975-34.295-.144-29.907-47.246-31.777-49.141-31.849-13.406-.456-29.571-.695-45.975-.839z"/><glyph unicode="" glyph-name="all-services" d="M772.37 832H403.278c-66.085-.144-119.96-52.256-122.911-117.635-46.223-18.666-78.318-62.98-78.438-114.804v-5.542C158.128 574.465 128.12 531.327 128 481.158V187.442c.144-68.139 55.339-123.345 123.462-123.441h521.027c68.148.096 123.366 55.303 123.51 123.417v521.141c-.144 68.187-55.435 123.393-123.606 123.441h-.024zm-369.092-48.273H772.37c41.45-.12 75.008-33.709 75.08-75.169v-11.78c-20.461 16.195-46.607 26.008-75.032 26.176H329.661c6.98 34.813 37.276 60.677 73.617 60.749v.024zm-77.863-109.262H772.37c41.402 0 74.984-33.518 75.08-74.929v-21.137c-20.461 16.195-46.607 26.008-75.032 26.176H250.839c2.711 39.108 35.045 69.794 74.576 69.89zm259.782-118.403V416.786H429.304v139.276h155.893zM847.45 187.441c-.096-41.411-33.678-74.929-75.08-74.929H251.367c-41.402.024-74.96 33.542-75.056 74.929v293.716c.096 41.387 33.654 74.905 75.056 74.929h129.411V416.81c.048-26.752 21.732-48.441 48.478-48.513h155.797c26.746.072 48.43 21.761 48.478 48.513v139.3h138.742c41.402 0 74.984-33.518 75.08-74.929V187.465l.096-.024z"/><glyph unicode="" glyph-name="attached-file" d="M350.235 564.997h308.457c13.05.432 23.486 11.107 23.486 24.229s-10.435 23.822-23.462 24.229H350.211c-13.074-.432-23.486-11.107-23.486-24.229s10.435-23.822 23.462-24.229h.048zm308.481-127.768c13.386 0 24.229 10.843 24.229 24.229s-10.843 24.229-24.229 24.229H350.259c-13.386 0-24.229-10.843-24.229-24.229s10.843-24.229 24.229-24.229h308.457zm45.22 394.723H305.039c-.504 0-1.104.024-1.703.024-60.789 0-110.208-48.723-111.335-109.272V173.392C193.105 112.747 242.547 64 303.36 64c.6 0 1.175 0 1.775.024h291.401c18.952 0 36.08 7.749 48.411 20.247L796.968 236.82c12.355 12.547 20.007 29.771 20.031 48.795v437.041C815.871 783.277 766.453 832 705.664 832c-.6 0-1.199 0-1.799-.024l.072-.024zM239.379 173.368v549.216c1.391 33.945 29.243 60.933 63.404 60.933.768 0 1.559-.024 2.327-.048h398.802c.648.024 1.439.048 2.207.048 34.161 0 62.013-26.988 63.404-60.813V311.956H606.226c-13.122-.168-23.702-10.867-23.702-24.013V112.388H304.989a60.963 60.963 0 0 0-2.207-.048c-34.185 0-62.037 27.012-63.404 60.861v.168zm390.645-36.152v126.305h125.873L630.024 137.216z"/><glyph unicode="" glyph-name="calendar" d="M798.409 132.747c30.202 0 55.16 25.421 55.16 56.575v466.74c0 31.154-24.959 56.575-55.16 56.575H225.591c-30.202 0-55.16-25.421-55.16-56.575v-466.74c0-31.154 24.959-56.575 55.16-56.575h572.818zm0-42.431H225.591c-53.812 0-97.591 44.59-97.591 99.006v466.74c0 54.415 43.78 99.006 97.591 99.006h572.818c53.812 0 97.591-44.59 97.591-99.006v-466.74c0-54.415-43.78-99.006-97.591-99.006zM299.845 842.785c0 11.717 9.498 21.215 21.215 21.215s21.215-9.498 21.215-21.215V654.203c0-11.717-9.498-21.215-21.215-21.215s-21.215 9.498-21.215 21.215v188.582zm371.978 0c0 11.717 9.498 21.215 21.215 21.215s21.215-9.498 21.215-21.215V654.203c0-11.717-9.498-21.215-21.215-21.215s-21.215 9.498-21.215 21.215v188.582zm-522.608-332.38c-11.717 0-21.215 9.498-21.215 21.215s9.498 21.215 21.215 21.215h725.569c11.717 0 21.215-9.498 21.215-21.215s-9.498-21.215-21.215-21.215H149.215zm305.484-122.578c-11.717 0-21.215 9.498-21.215 21.215s9.498 21.215 21.215 21.215h114.564c11.717 0 21.215-9.498 21.215-21.215s-9.498-21.215-21.215-21.215H454.699zm-210.033 0c-11.717 0-21.215 9.498-21.215 21.215s9.498 21.215 21.215 21.215H359.23c11.717 0 21.215-9.498 21.215-21.215s-9.498-21.215-21.215-21.215H244.666zm420.066 0c-11.717 0-21.215 9.498-21.215 21.215s9.498 21.215 21.215 21.215h114.564c11.717 0 21.215-9.498 21.215-21.215s-9.498-21.215-21.215-21.215H664.732zM454.699 236.961c-11.717 0-21.215 9.498-21.215 21.215s9.498 21.215 21.215 21.215h114.564c11.717 0 21.215-9.498 21.215-21.215s-9.498-21.215-21.215-21.215H454.699zm-210.033 0c-11.717 0-21.215 9.498-21.215 21.215s9.498 21.215 21.215 21.215H359.23c11.717 0 21.215-9.498 21.215-21.215s-9.498-21.215-21.215-21.215H244.666zm420.066 0c-11.717 0-21.215 9.498-21.215 21.215s9.498 21.215 21.215 21.215h114.564c11.717 0 21.215-9.498 21.215-21.215s-9.498-21.215-21.215-21.215H664.732z"/><glyph unicode="" glyph-name="change" d="M921.876 523.526h.083c8.07-8.112 8.07-21.299 0-29.411l-83.2-83.2c-4.118-4.035-9.443-6.074-14.768-6.074-5.283 0-10.608 1.997-14.685 6.074l-83.2 83.2c-8.112 8.112-8.112 21.299 0 29.411 8.07 8.112 21.299 8.112 29.37 0l47.59-47.549c-4.701 156.499-133.453 282.422-291.117 282.422-108.285 0-207.002-59.53-257.587-155.334-5.366-10.15-18.013-14.019-28.163-8.653-10.109 5.366-14.019 17.971-8.653 28.122C275.412 731.984 388.231 800 511.949 800c88.899 0 172.515-34.611 235.373-97.469 60.861-60.819 95.264-141.107 97.386-226.803l47.798 47.798c8.07 8.112 21.299 8.112 29.37 0zM797.725 340.004h.042c10.15-5.366 14.019-18.013 8.653-28.163-57.907-109.45-170.726-177.424-294.403-177.424-88.899 0-172.474 34.611-235.331 97.427-60.861 60.819-95.264 141.149-97.386 226.845l-47.798-47.798c-8.112-8.112-21.299-8.112-29.411 0-8.112 8.07-8.112 21.299 0 29.37l83.2 83.242c8.112 8.07 21.299 8.07 29.411 0l83.2-83.242c8.112-8.07 8.112-21.299 0-29.37-4.077-4.077-9.402-6.074-14.726-6.074s-10.65 1.955-14.726 6.074l-47.549 47.549c4.659-156.499 133.453-282.422 291.075-282.422 108.243 0 206.96 59.488 257.629 155.334 5.366 10.109 17.971 14.019 28.122 8.653z"/><glyph unicode="" glyph-name="cart-empty" d="M128 741.191c0 14.32 5.387 26.72 14.32 26.72l16.026.053c33.733.107 68.772.267 94.505-4.32 23.28-4.693 37.04-22.08 42.133-45.52l22.586-102.799 500.687-.133c15.306 0 36.266 0 48.453-12.293 12.347-12.507 6.56-41.119 6.56-41.119l-64.319-228.529s-6.56-22.933-16.16-35.013c-9.627-12.08-16.4-18.346-40.879-18.346l-374.875-.027c-16.453 0-29.146 4.267-39.92 18.48s-13.546 34.906-13.546 34.906l-54.373 251.516-23.386 108.505c-4 22.186-41.626 21.493-57.759 21.146h-1.68c-1.147-.053-2.213-.053-3.067-.053h-41.013c-9.387 0-14.293 12.507-14.293 26.826zm200.931-179.437 49.146-228.556 375.329.053c20.72 74.799 64.266 228.503 64.266 228.503H328.931zm172.584-372.341c0-33.893-27.573-61.413-61.573-61.413s-61.573 27.493-61.573 61.413c0 33.866 27.573 61.333 61.573 61.333 34.026.027 61.573-27.466 61.573-61.333zM680.98 128c34 0 61.599 27.493 61.599 61.413 0 33.866-27.546 61.333-61.599 61.333-34 0-61.599-27.44-61.599-61.333.053-33.92 27.626-61.413 61.599-61.413z"/><glyph unicode="" glyph-name="hamburger" d="M0 768h1024v-53.333H0V768zm0-293.333h1024v-53.333H0v53.333zm0-293.334h1024V128H0v53.333z"/><glyph unicode="" glyph-name="login" d="m491.045 594.669 114.477-128.29c10.413-10.414 10.413-27.298 0-37.713L493.333 301.332c-10.413-10.413-27.299-10.413-37.712 0-10.413 10.416-10.413 27.299 0 37.713L520 421.332l-360-.477v53.333l360 .477-66.667 82.29c-10.413 10.414-10.413 27.298 0 37.712s27.299 10.414 37.712 0zM346.667 768h346.667c58.909 0 106.667-47.756 106.667-106.667V234.666c0-58.909-47.757-106.667-106.667-106.667H346.667v53.333h346.667c29.456 0 53.333 23.877 53.333 53.333v426.667c0 29.455-23.877 53.333-53.333 53.333H346.667v53.333z"/><glyph unicode="" glyph-name="logout" d="m425.005 651.972-221.377 94.894a20.51 20.51 0 0 1-2.117-9.132v-498.13c0-14.57 12.204-33.043 25.571-38.771l214.279-91.863c3.985-1.66 6.642-1.536 7.347-1.079s1.868 2.864 1.868 7.181v498.13c0 14.529-12.204 33.043-25.571 38.771zm212.369-101.037v.042c-11.457 0-20.755 9.298-20.755 20.755v166.043c0 11.457-9.298 20.755-20.755 20.755H281.876l159.485-68.368c28.435-12.163 50.726-45.952 50.726-76.92V218.889h103.777c11.457 0 20.755 9.298 20.755 20.755v166.043c0 11.457 9.298 20.755 20.755 20.755 11.498 0 20.755-9.298 20.755-20.755V239.644c0-34.329-27.937-62.266-62.266-62.266H492.086v-62.266c0-17.974-7.513-33.25-20.548-41.843-7.181-4.732-15.608-7.14-24.45-7.14-7.181 0-14.695 1.577-22.084 4.691l-214.279 91.863c-28.435 12.163-50.726 45.952-50.726 76.92v498.13c0 34.329 27.937 62.266 62.266 62.266h373.597c34.329 0 62.266-27.937 62.266-62.266V571.69c0-11.457-9.257-20.755-20.755-20.755zm284.503-47.575.083.042c8.053-8.095 8.053-21.254 0-29.348L797.428 349.522c-4.11-4.027-9.423-6.061-14.736-6.061-5.272 0-10.585 1.993-14.653 6.061-8.095 8.095-8.095 21.254 0 29.348l89.041 89.082H595.852c-11.415 0-20.755 9.298-20.755 20.755s9.34 20.755 20.755 20.755H857.08l-89.041 89.082c-8.095 8.095-8.095 21.254 0 29.348 8.053 8.095 21.254 8.095 29.307 0L921.878 503.36z"/><glyph unicode="" glyph-name="user-drop" d="M512 832c211.968 0 384-172.032 384-384S723.968 64 512 64 128 236.032 128 448s172.032 384 384 384zm115.2-230.4c0 63.744-51.456 115.2-115.2 115.2s-115.2-51.456-115.2-115.2S448.256 486.4 512 486.4s115.2 51.456 115.2 115.2zM262.4 294.4C300.8 217.6 396.8 160 512 160c106.896 0 192 38.4 249.6 134.4-1.152 76.416-173.184 119.04-249.6 119.04-76.8 0-248.448-42.624-249.6-119.04z"/><glyph unicode="" glyph-name="alert-large" d="M512.14 382.569c14.714 0 26.648 11.935 26.648 26.648v204.97c0 14.714-11.935 26.648-26.648 26.648s-26.648-11.935-26.648-26.648v-204.97c0-14.714 11.935-26.648 26.648-26.648zm0 385.431H512c-176.723 0-320-143.257-320-320s143.257-320 320-320c176.683 0 319.92 143.197 320 319.86-.12 176.663-143.217 319.86-319.84 320.14h-.02zm0-586.943H512c-147.435 0-266.943 119.528-266.943 266.943S364.585 714.943 512 714.943c147.435 0 266.943-119.528 266.943-266.943v-.14c-.16-147.276-119.528-266.643-266.803-266.803zm0 162.329c-17.073 0-30.926-13.834-30.926-30.926s13.834-30.926 30.926-30.926c17.073 0 30.926 13.834 30.926 30.926s-13.854 30.906-30.926 30.926z"/><glyph unicode="" glyph-name="success-large" d="M512.4 768h-.4c-176.723 0-320-143.257-320-320s143.257-320 320-320c176.723 0 320 143.257 320 320v.14c-.1 176.503-143.097 319.6-319.56 319.86h-.04zm0-586.943h-.4c-147.435 0-266.943 119.528-266.943 266.943S364.585 714.943 512 714.943c147.376 0 266.883-119.448 266.943-266.803-.02-147.316-119.288-266.763-266.523-267.083h-.02zm109.552 367.579L477.475 403.899l-74.627 74.907c-4.918 5.717-12.155 9.316-20.251 9.316-14.714 0-26.648-11.935-26.648-26.648a26.592 26.592 0 0 1 9.276-20.211l93.599-93.579a25.045 25.045 0 0 1 18.152-7.737h.84c7.177 0 13.674 2.959 18.332 7.737l163.129 163.409c4.798 4.818 7.757 11.455 7.757 18.792s-2.959 13.974-7.757 18.792c-4.758 4.818-11.355 7.797-18.652 7.797s-13.894-2.979-18.652-7.797l-.02-.04z"/><glyph unicode="" glyph-name="balance" d="M585.202 800c-118.822 0-246.798-29.309-246.798-93.628V587.858c-119.79-18.615-210.403-121.023-210.403-244.598 0-136.624 110.747-247.37 247.37-247.37 50.874 0 98.16 15.359 137.46 41.676 21.08-3.037 46.561-4.467 72.35-4.467 108.59 0 224.442 24.535 243.718 77.829 1.87 3.015 3.015 6.667 3.103 10.584v484.839c0 64.318-127.954 93.628-246.82 93.628l.022.022zm202.812-454.517c0-12.74-59.257-43.458-169.586-48.783 2.883 13.797 4.533 29.64 4.533 45.857 0 13.224-1.1 26.207-3.213 38.837 61.149-.682 118.822 12.63 170.972 36.043l-2.707-71.953zm0 127.382c0-10.738-54.064-44.822-178.651-49.091-9.792 28.099-23.412 52.436-40.51 73.868a145.527 145.527 0 0 1 16.393-.902c75.782 0 155.107 11.97 202.768 37.275v-61.149zm0 117.524c0-14.391-71.051-49.597-202.768-49.597-22.004 0-43.7 1.056-64.626 3.125h-.396c-38.221 27.967-85.816 45.262-137.372 46.693l-.33 59.411c47.661-25.305 126.964-37.275 202.746-37.275s155.107 11.97 202.768 37.275v-59.609l-.022-.022zM585.202 755.992c131.717 0 202.768-35.207 202.768-49.575s-71.051-49.597-202.768-49.597c-131.717 0-202.746 35.207-202.746 49.597s71.095 49.575 202.746 49.575zm-413.304-412.6c.022 112.353 91.119 203.428 203.472 203.428s203.472-91.097 203.472-203.472c0-112.353-91.075-203.45-203.428-203.472-112.353.11-203.428 91.163-203.516 203.516zm413.26-166.219c-8.802 0-17.449.374-26.119.704 19.056 21.036 34.634 45.659 45.615 72.658 2.112 1.628 3.895 1.628 5.699 1.628 64.164 0 125.203 13.467 180.412 37.737l-2.883-63.108c.132-14.391-70.963-49.597-202.68-49.597l-.044-.022z"/><glyph unicode="" glyph-name="bank-card" d="M796.425 704h-568.85C172.507 703.636 128 658.913 128 603.796V274.814c0-55.117 44.508-99.84 99.542-100.204h568.883c55.068.364 99.575 45.087 99.575 100.204v328.982c0 55.117-44.508 99.84-99.542 100.204h-.033zM180.701 529.826h662.334v-86.897H180.701v86.897zm46.874 120.944h568.85c25.788-.182 46.61-21.12 46.61-46.924v-20.789H180.701v20.739c0 25.903 20.971 46.924 46.874 46.974zm568.85-422.93h-568.85c-25.903.066-46.874 21.07-46.874 46.974v114.869h662.334V274.748c0-25.804-20.822-46.742-46.593-46.924l-.017.017z"/><glyph unicode="" glyph-name="cart" d="M429.943 271.544c-.497 0-1.062.023-1.649.023-53.661 0-97.178-43.516-97.178-97.178s43.516-97.178 97.178-97.178c53.661 0 97.178 43.516 97.178 97.178v.746c0 52.938-42.68 95.912-95.483 96.387l-.045.023zm0-145.846h-.791c-26.91 0-48.713 21.803-48.713 48.713s21.803 48.713 48.713 48.713c26.887 0 48.713-21.803 48.713-48.691v-.339c0-26.548-21.397-48.103-47.9-48.374l-.023-.023zm243.633 145.846c-.497 0-1.062.023-1.649.023-53.661 0-97.178-43.516-97.178-97.178s43.516-97.178 97.178-97.178c53.661 0 97.178 43.516 97.178 97.178v.746c0 52.938-42.68 95.912-95.483 96.387l-.045.023zm0-145.846h-.791c-26.91 0-48.713 21.803-48.713 48.713s21.803 48.713 48.713 48.713c26.887 0 48.713-21.803 48.713-48.691v-.339c0-26.548-21.397-48.103-47.877-48.374l-.045-.023zm172.145 524.593c-16.245 21.826-41.98 35.812-70.991 35.812H270.201l-19.273 94.625c-2.259 11.026-11.839 19.205-23.34 19.273H120.22c-13.376 0-24.221-10.845-24.221-24.221s10.845-24.221 24.221-24.221h87.959l90.671-446.688c2.237-11.026 11.817-19.228 23.317-19.273h443.118c10.981.068 20.199 7.501 22.956 17.623l72.482 267.877c2.079 7.275 3.276 15.613 3.276 24.244 0 20.696-6.869 39.766-18.437 55.107l.158-.158zm-30.976-66.359-67.489-249.915H341.645l-61.614 303.666h494.633c13.534 0 25.554-6.53 33.055-16.607 5.4-7.14 8.586-16.042 8.586-25.667 0-4.09-.565-8.021-1.649-11.772l.09.294z"/><glyph unicode="" glyph-name="promised-payment" d="M889.014 519.776c-4.361 4.287-10.373 6.956-17.02 6.956s-12.638-2.648-17.02-6.956l-50.129-49.513C801.31 653.121 651.156 800 466.454 800 279.529 800 128 649.569 128 464s151.53-336 338.454-336c118.379 0 222.553 60.315 283.033 151.692 3.197 4.939 4.636 9.415 4.636 14.228 0 13.177-10.754 23.853-24.027 23.853a24.105 24.105 0 0 1-20.132-10.802c-52.669-79.545-142.067-131.264-243.616-131.264-160.463 0-290.548 129.142-290.548 288.441s130.085 288.441 290.548 288.441c159.828 0 289.532-128.112 290.548-286.55l-54.469 53.716c-4.361 4.287-10.373 6.956-17.02 6.956s-12.638-2.648-17.02-6.956c-4.34-4.287-7.028-10.235-7.028-16.792s2.688-12.504 7.028-16.792l93.251-92.154c4.361-4.287 10.373-6.956 17.02-6.956s12.638 2.648 17.02 6.956l93.272 92.154c4.361 4.287 7.049 10.235 7.049 16.813s-2.688 12.504-7.028 16.792h.042zM465.036 671.993h-.169c-13.231 0-23.964-10.634-24.006-23.769v-184.14c.021-13.135 10.754-23.769 24.006-23.769h90.71c13.231 0 23.942 10.634 23.942 23.769s-10.712 23.769-23.942 23.769h-66.493v160.35c-.042 13.135-10.775 23.769-24.027 23.769l-.021.021z"/><glyph unicode="" glyph-name="rouble" d="M523.064 388.305C675.557 388.305 800 487.684 800 610.152S675.582 831.999 523.064 831.999H326.37c-18.594 0-33.646-14.84-33.646-33.118s15.076-33.118 33.646-33.118h94.804V454.566H289.645c-18.594 0-33.646-14.84-33.646-33.118s15.076-33.118 33.646-33.118h131.529v-77.974H289.645c-18.594 0-33.646-14.84-33.646-33.118s15.076-33.118 33.646-33.118h131.529V94.883c1.417-17.341 16.053-30.882 33.89-30.882s32.473 13.541 33.89 30.761v149.357h198.844c18.594 0 33.646 14.84 33.646 33.118s-15.076 33.118-33.646 33.118H488.954v77.974l34.11-.024zm-33.987 377.458h33.988c115.109 0 208.936-69.941 208.936-155.611s-93.827-155.611-208.936-155.611h-33.988v311.221z"/><glyph unicode="" glyph-name="wallet" d="M924.619 428.019c24.872-.143 44.91-20.282 44.981-45.176V35.561c-.035-24.893-20.131-45.091-45.008-45.162H386.786c-24.828.071-44.918 20.274-44.953 45.176v211.613l-163.674.003c-45.241 1.072-85.585 27.258-105.186 66.814C60.848 336.353 54.4 361.427 54.4 387.409c0 30.153 8.713 58.983 25.055 84.255 37.614 57.857 93.561 101.566 159.412 124.446-47.354 30.401-77.235 83.24-77.235 141.508 0 92.779 75.026 167.981 167.611 167.981 92.575 0 167.611-75.221 167.611-167.981 0-58.867-30.545-112.499-78.451-143.396 32.104-10.893 62.316-26.725 89.651-46.951 20.343-16.232 38.584-34.806 54.853-55.889l226.408 77.632c40.288 14.255 85.246-9.737 100.403-53.01l30.032-87.986h4.871zm2.306-180.829-236.534.046c-3.252-.02-6.035-2.642-6.239-5.378l-.019-89.088c.212-3.349 2.956-5.973 6.284-6.021.284.016.284.016.903.027h235.605V247.19zm-62.744 211.58-86.211-30.751h96.704l-10.493 30.751zm-14.745 43.206c-7.437 21.265-28.257 32.874-46.013 26.61L509.724 427.991h142.483c1.235.75 2.55 1.38 3.942 1.878l194.225 69.366-.938 2.741zM329.131 612.312c68.92 0 124.796 56.007 124.796 125.111s-55.876 125.111-124.796 125.111c-68.813 0-124.64-55.821-124.796-124.796 0-69.219 55.849-125.295 124.796-125.425zm153.102-99.03c-44.761 33.448-98.567 52.548-155.422 54.367-83.063 0-162.522-44.947-212.044-120.067-11.484-17.782-17.692-38.52-17.692-60.173 0-18.729 4.623-36.82 13.148-52.424 15.403-28.824 40.202-44.982 68.331-44.982h163.362v92.874c.068 19.803 12.982 36.971 31.584 42.844 1.241.823 2.666 1.57 4.46 2.327l141.48 49.161c-11.371 13.241-23.888 25.371-37.207 36.074zM926.926 382.72c-.017 1.333-1.116 2.435-2.306 2.457l-537.614.001c-1.335-.023-2.448-1.141-2.47-2.363l-.001-347.145c.017-1.361 1.099-2.445 2.334-2.456h537.996c1.152.181 2.05 1.186 2.06 2.333v68.47H690.454c-26.632 0-48.37 21.286-49.033 48.173l.003 89.934c.661 26.604 22.409 47.878 49.03 47.878h236.471l.001 92.718zm-151.5-185.738c0-16.031-12.632-29.092-28.448-29.733l-1.304.003c-16.341.042-29.578 13.343-29.578 29.785.021 16.404 13.307 29.701 29.665 29.701 16.38 0 29.665-13.317 29.665-29.757z"/><glyph unicode="" glyph-name="autopayment" d="M883.501 519.681c-4.328 4.286-10.296 6.955-16.894 6.955s-12.544-2.647-16.894-6.955l-49.756-49.525C796.49 653.043 647.411 800 463.999 800c-185.576 0-336-150.445-336-336s150.445-336 336-336c117.498 0 220.918 60.325 280.991 151.684 3.215 4.938 4.665 9.434 4.665 14.267 0 8.3-4.286 15.612-10.758 19.835a23.917 23.917 0 0 1-13.111 3.887c-8.342 0-15.675-4.244-19.982-10.716-52.277-79.593-141.052-131.345-241.909-131.345-159.312 0-288.45 129.139-288.45 288.45s129.139 288.45 288.45 288.45c158.639 0 287.379-128.067 288.429-286.475l-54.021 53.685c-4.328 4.286-10.296 6.955-16.894 6.955s-12.544-2.647-16.894-6.955c-4.307-4.286-6.976-10.233-6.976-16.788s2.669-12.502 6.976-16.788l92.599-92.137c4.328-4.286 10.296-6.955 16.894-6.955s12.544 2.647 16.894 6.955l92.557 92.137c4.307 4.286 6.976 10.233 6.976 16.788s-2.669 12.502-6.976 16.788l.042-.042z"/><glyph unicode="" glyph-name="chatbot-main" d="M658.427 409.793c-29.517-29.659-54.446-39.538-143.762-39.538-84.895 0-111.76 7.385-143.739 39.538-4.374 4.508-10.468 7.313-17.232 7.313-13.241 0-23.996-10.766-23.996-24.073 0-6.809 2.82-12.947 7.338-17.335 45.961-46.203 90.01-53.66 177.558-53.66s131.717 7.457 177.558 53.66c5.139 4.436 8.365 10.981 8.365 18.27 0 13.283-10.731 24.073-23.996 24.073-7.194 0-13.671-3.189-18.069-8.224l-.024-.024zm127.152 299.254h-64.795l81.286 81.833c4.35 4.364 7.051 10.382 7.051 17.047 0 13.307-10.755 24.073-23.996 24.073a23.86 23.86 0 0 1-16.946-7.025L653.002 709.167H370.831L255.654 824.975c-4.35 4.34-10.325 7.025-16.946 7.025-13.265 0-23.996-10.79-23.996-24.073 0-6.666 2.701-12.684 7.051-17.047l81.286-81.833h-64.795C177.355 708.975 128 659.439 128 598.322V322.541c.024-55.746 41.037-101.853 94.432-109.694l.598-124.751v-.024c0-13.283 10.731-24.073 23.996-24.073 5.21 0 10.038 1.654 13.958 4.484l199.81 143.141h324.834c60.947 0 110.373 49.584 110.373 110.725V598.37c0 61.117-49.379 110.677-110.302 110.725l-.12-.048zm62.405-386.505c0-34.575-27.94-62.579-62.381-62.579H453.24a23.639 23.639 0 0 1-13.958-4.532L271.093 134.948v100.87c0 13.283-10.731 24.073-23.996 24.073h-8.748c-34.465 0-62.381 28.029-62.381 62.579v275.733c0 34.575 27.94 62.579 62.381 62.579h547.373c34.465 0 62.381-28.029 62.381-62.579V322.518l-.12.024zM434.335 470.598h.12c23.303 0 42.185 18.942 42.185 42.319s-18.882 42.319-42.185 42.319-42.185-18.942-42.185-42.319v-.048c0-23.353 18.858-42.271 42.137-42.271h-.072zm161.807 0h.096c23.303 0 42.185 18.942 42.185 42.319s-18.882 42.319-42.185 42.319-42.185-18.942-42.185-42.319v-.048c0-23.353 18.858-42.271 42.137-42.271h-.048z"/><glyph unicode="" glyph-name="chatbot-regular" d="M658.371 439.073c-29.525-29.419-54.471-39.232-143.75-39.232-84.961 0-111.835 7.335-143.75 39.232a23.946 23.946 0 0 1-16.209 6.275c-13.256 0-24.002-10.692-24.002-23.883 0-6.256 2.43-11.971 6.387-16.228 45.814-45.827 89.982-53.222 177.574-53.222s131.759 7.375 177.594 53.222a23.686 23.686 0 0 1 6.367 16.208c0 13.191-10.746 23.883-24.002 23.883-6.267 0-11.971-2.378-16.229-6.295l.02.04zM785.812 735.96H238.147c-60.858-.14-110.148-49.265-110.148-109.841V352.396c0-55.28 41.034-101.027 94.441-108.702l.603-123.771v-.06c0-9.173 5.202-17.148 12.834-21.145A23.983 23.983 0 0 1 247.024 96c5.242 0 10.083 1.659 14.02 4.497l199.848 141.998h324.959c60.858.14 110.148 49.265 110.148 109.841v273.823c0 60.576-49.289 109.721-110.148 109.841l-.04-.04zm62.144-383.444c0-34.215-27.798-61.955-62.144-62.095H453.14c-5.222 0-10.043-1.659-13.959-4.497L271.007 166.41v100.088c0 13.191-10.746 23.883-24.002 23.883h-8.878c-34.366.14-62.164 27.88-62.164 62.095v273.543c0 34.215 27.798 61.955 62.144 62.095h547.685c34.366-.14 62.164-27.88 62.164-62.095V352.516zM434.22 499.41h.201c23.299 0 42.199 18.786 42.199 41.99s-18.88 41.99-42.199 41.99c-23.299 0-42.199-18.786-42.199-41.99.02-23.103 18.8-41.85 41.978-41.99h.02zm161.987 0c23.279.02 42.139 18.806 42.139 41.99s-18.88 41.99-42.199 41.99-42.199-18.786-42.199-41.99v-.14c0-23.103 18.82-41.83 42.038-41.83h.201l.02-.02z"/><glyph unicode="" glyph-name="chatbot-sad" d="M514.689 416.809c-87.594 0-131.773-7.456-177.602-53.655a24.013 24.013 0 0 1-6.383-16.327c0-13.282 10.734-24.07 24.002-24.07a23.804 23.804 0 0 1 16.233 6.353c29.501 29.656 54.459 39.534 143.75 39.534 84.964 0 111.835-7.384 143.774-39.534 4.327-4.363 10.304-7.049 16.926-7.049s12.599 2.685 16.926 7.049c4.351 4.363 7.052 10.381 7.052 17.046s-2.701 12.683-7.052 17.046c-45.853 46.199-90.008 53.655-177.602 53.655l-.024-.048zm271.197 292.178h-64.811l81.354 81.825a24.038 24.038 0 0 1 7.029 17.046c0 13.33-10.782 24.142-24.074 24.142a23.957 23.957 0 0 1-17.045-7.096L653.133 709.107H370.652L255.446 824.904a23.789 23.789 0 0 1-16.209 6.329c-13.244 0-24.002-10.765-24.002-24.07a24.014 24.014 0 0 1 6.383-16.351l81.354-81.825h-64.811c-60.866-.144-110.162-49.651-110.162-110.714V322.398c0-55.717 41.024-101.82 94.455-109.564l.598-124.739v-.048c0-9.254 5.212-17.286 12.838-21.313a23.477 23.477 0 0 1 11.045-2.733h.12c5.212.048 10.041 1.702 13.985 4.507l199.835 143.128h324.963C846.704 211.78 896 261.287 896 322.35v275.995c0 61.063-49.295 110.571-110.138 110.714l.024-.072zm62.181-386.47c0-34.475-27.803-62.43-62.157-62.574H453.226a23.65 23.65 0 0 1-13.961-4.531L271.082 134.94v77.821c0 28.41 0 47.182-24.002 47.182h-8.869c-34.354.144-62.157 28.098-62.157 62.574v275.659c0 34.475 27.803 62.43 62.157 62.574h547.701c34.354-.144 62.157-28.098 62.157-62.574V322.517zM434.292 470.56h.191c23.309 0 42.195 18.94 42.195 42.315s-18.886 42.315-42.195 42.315-42.195-18.94-42.195-42.315c.024-23.279 18.791-42.171 41.98-42.315h.024zm162.015 0c23.285.024 42.147 18.964 42.147 42.315s-18.886 42.315-42.195 42.315-42.195-18.94-42.195-42.315v-.144c0-23.279 18.815-42.171 42.052-42.171h.191z"/><glyph unicode="" glyph-name="chatbot-wink" d="M717.232 451.488c-3.705 2.517-8.271 4.003-13.196 4.003-8.295 0-15.611-4.243-19.866-10.716-23.093-35.095-45.66-49.79-133.251-67.746-83.049-17.044-110.875-15.222-148.551 9.877a23.917 23.917 0 0 1-13.316 4.027c-13.292 0-24.073-10.812-24.073-24.14 0-8.342 4.231-15.702 10.662-20.041 25.508-18.123 57.159-28.959 91.344-28.959.813 0 1.65 0 2.462.024 32.775 1.103 64.092 5.418 94.261 12.681 82.714 16.972 124.478 33.034 160.241 87.619 2.51 3.74 3.992 8.342 3.992 13.281 0 8.318-4.207 15.654-10.638 19.993l-.072.096zm68.634 257.51h-64.809l81.352 81.817a24.035 24.035 0 0 1 7.028 17.044c0 13.329-10.782 24.14-24.073 24.14a23.957 23.957 0 0 1-17.045-7.096L653.117 709.117H370.645L255.443 824.903a23.793 23.793 0 0 1-16.208 6.329c-13.244 0-24.001-10.764-24.001-24.068a24.003 24.003 0 0 1 6.383-16.349l81.352-81.817H238.16c-60.864-.144-110.158-49.647-110.158-110.704V322.373c0-55.712 41.022-101.81 94.452-109.553l.598-124.728v-.048c0-9.253 5.211-17.284 12.837-21.311A23.477 23.477 0 0 1 246.934 64h.12c5.211 0 10.04 1.678 13.985 4.507l199.853 143.115h324.952c60.864.144 110.158 49.647 110.158 110.704v275.969c0 61.057-49.294 110.56-110.134 110.704zm62.179-386.505c0-34.472-27.803-62.424-62.155-62.568H453.168a23.649 23.649 0 0 1-13.913-4.507L271.077 134.957v77.814c0 28.407 0 47.153-24.001 47.153h-8.869c-34.353.144-62.155 28.096-62.155 62.568v275.609c0 34.472 27.803 62.424 62.155 62.568H785.89c34.353-.144 62.155-28.096 62.155-62.568V322.492zM431.174 470.522c23.284.024 42.146 18.962 42.146 42.311s-18.886 42.311-42.194 42.311c-23.308 0-42.194-18.938-42.194-42.311v-.144c0-23.277 18.814-42.167 42.05-42.167h.191zm140.878 18.219h91.201c13.244 0 24.001 10.764 24.001 24.068s-10.734 24.068-24.001 24.068h-91.201c-13.244 0-24.001-10.764-24.001-24.068s10.734-24.068 24.001-24.068z"/><glyph unicode="" glyph-name="chatbot-annoyed" d="M431.184 470.56c23.285.024 42.147 18.964 42.147 42.315s-18.886 42.315-42.195 42.315-42.195-18.94-42.195-42.315v-.144c0-23.279 18.815-42.171 42.052-42.171h.191zm161.752 0h.191c23.309 0 42.195 18.94 42.195 42.315s-18.886 42.315-42.195 42.315-42.195-18.94-42.195-42.315v-.144c0-23.279 18.791-42.147 42.004-42.171zm192.95 238.427h-64.811l81.354 81.825a24.038 24.038 0 0 1 7.029 17.046c0 13.33-10.782 24.142-24.074 24.142a23.957 23.957 0 0 1-17.045-7.096L653.133 709.107H370.652L255.446 824.904a23.789 23.789 0 0 1-16.209 6.329c-13.244 0-24.002-10.765-24.002-24.07a24.014 24.014 0 0 1 6.383-16.351l81.354-81.825h-64.811c-60.866-.144-110.162-49.651-110.162-110.714V322.398c0-55.717 41.024-101.82 94.455-109.564l.598-124.739v-.048c0-9.254 5.212-17.286 12.838-21.313a23.477 23.477 0 0 1 11.045-2.733h.12c5.212.048 10.041 1.702 13.985 4.507l199.835 143.128h324.963C846.704 211.78 896 261.287 896 322.35v275.995c0 61.063-49.295 110.571-110.138 110.714l.024-.072zm62.181-386.47c0-34.475-27.803-62.43-62.157-62.574H453.226a23.65 23.65 0 0 1-13.961-4.531L271.082 134.94v77.821c0 28.41 0 47.182-24.002 47.182h-8.869c-34.354.144-62.157 28.098-62.157 62.574v275.659c0 34.475 27.803 62.43 62.157 62.574h547.701c34.354-.144 62.157-28.098 62.157-62.574V322.517zm-115.684 36.849-74.876 39.126c-3.203 1.702-7.005 2.709-11.045 2.709s-7.841-1.007-11.164-2.757l-74.039-38.743-78.246 40.925c-3.203 1.726-7.005 2.733-11.045 2.733s-7.841-1.007-11.164-2.781l-77.864-40.637-69.114 36.106c-3.203 1.702-7.005 2.685-11.045 2.685-13.268 0-24.026-10.789-24.026-24.094 0-9.254 5.212-17.31 12.862-21.337l80.302-41.955c3.203-1.726 7.005-2.733 11.045-2.733s7.841 1.007 11.164 2.781l77.864 40.637 78.246-40.925c3.156-1.702 6.909-2.685 10.901-2.685h.143a24.289 24.289 0 0 1 11.164 2.781l74.039 38.743 63.831-33.325c3.203-1.702 7.005-2.685 11.045-2.685 13.268 0 24.002 10.789 24.002 24.07 0 9.254-5.212 17.286-12.838 21.313l-.143.048z"/><glyph unicode="" glyph-name="penguin" d="M491.137 441.856c-.34 22.679-18.995 40.941-41.968 40.941-23.167 0-41.968-18.599-41.968-41.517s18.777-41.517 41.968-41.517c23.216.12 41.968 18.767 41.968 41.733v.36zm125.662 0c-.34 22.679-18.995 40.941-41.968 40.941-23.167 0-41.968-18.599-41.968-41.517s18.777-41.517 41.968-41.517c23.216.192 41.968 18.863 41.968 41.877v.216zm-16.738-100.073H423.94a23.781 23.781 0 0 1-21.518-13.559 24.107 24.107 0 0 1-2.305-10.319c0-5.784 2.038-11.111 5.434-15.311l88.012-107.945c4.342-5.4 10.989-8.807 18.437-8.807s14.095 3.432 18.388 8.759l88.085 108.041a24.115 24.115 0 0 1 5.41 15.263c0 3.696-.825 7.2-2.305 10.343-3.833 7.944-12.033 13.463-21.518 13.559v-.024zM512 247.781l-37.602 46.053h75.203l-37.602-46.053zm205.475 374.256c-.946 6.96-4.828 12.863-10.359 16.559a23.588 23.588 0 0 1-13.415 4.152c-2.086 0-4.1-.264-6.016-.768L516.1 598.423l-171.755 43.605c-1.771.48-3.784.744-5.871.744-4.755 0-9.194-1.392-12.882-3.792-5.41-3.432-9.316-8.951-10.553-15.431-5.604-28.942-33.259-174.229-26.224-213.731 1.965-11.255 11.741-19.703 23.531-19.727 1.48 0 2.887.144 4.27.384 11.183 2.136 19.626 11.879 19.626 23.567 0 1.512-.146 2.976-.412 4.392 2.183 61.628 9.849 120.376 22.585 177.229l151.862-45.261c1.747-.48 3.76-.744 5.822-.744s4.076.264 5.992.768l151.45 38.35c8.272-50.877 13.537-110.273 14.531-170.677-.121-1.992-.194-3.072-.194-4.152 0-13.103 10.747-23.711 23.968-23.711 12.154 0 22.173 8.927 23.75 20.519 5.119 40.006-15.744 193.884-18.17 211.307l.049-.024zM512 832c-194.073 0-352-172.261-352-383.976 0-122.08 54.34-232.018 99.948-302.741 18.146-27.718 35.709-51.405 54.51-74.059 3.251-3.888 9.873-7.224 17.273-7.224h361.752a24.21 24.21 0 0 1 18.413 8.639c17.491 21.167 34.836 44.757 50.799 69.308 60.381 88.362 96.915 192.588 101.306 304.973C864.025 659.787 706.098 832 512.025 832h-.024zm212.267-661.111c-13.1-20.447-27.413-40.221-42.211-58.964H342.913c-15.041 18.935-29.354 38.854-42.696 59.396-42.211 65.3-92.427 166.286-92.427 276.679 0 185.292 136.336 335.979 304.21 335.979S816.21 633.22 816.21 448c-4.561-103.842-38.281-199.092-93.155-278.935l1.213 1.824z"/><glyph unicode="" glyph-name="snake" d="M369.436 540.582h.6c23.143 0 41.916 18.773 41.916 41.916s-18.773 41.916-41.916 41.916c-23.143 0-41.916-18.773-41.916-41.916v-.288c0-22.878 18.461-41.436 41.292-41.628h.024zm270.772 0h.624c23.143 0 41.916 18.773 41.916 41.916s-18.773 41.916-41.916 41.916c-23.143 0-41.916-18.773-41.916-41.916v-.312c0-22.902 18.485-41.484 41.364-41.604h-.072zm-201.08-299.196c-10.467-4.681-17.621-14.98-17.621-26.96 0-16.277 13.18-29.456 29.456-29.456s29.456 13.18 29.456 29.456c-4.177 15.892-18.413 27.44-35.362 27.44-2.065 0-4.105-.168-6.098-.504l.168.024zm131.316 0c-10.467-4.681-17.621-14.98-17.621-26.96 0-16.277 13.18-29.456 29.456-29.456s29.456 13.18 29.456 29.456c-4.177 15.892-18.413 27.44-35.362 27.44-2.065 0-4.105-.168-6.098-.504l.168.024zm253.08 40.235c-24.943-10.995-42.684-34.186-45.805-61.793.696-20.19 7.13-38.387 17.693-53.487 12.411-21.894 10.971-23.479 7.778-26.936-20.262-22.014-75.357-15.196-116.193-4.537 68.587 62.442 111.439 152.107 111.439 251.759 0 1.32 0 2.617-.024 3.913-.024 26.503-2.929 52.503-8.45 77.542 55.504 31.281 91.706 91.082 91.706 159.357 0 103.349-82.943 187.301-185.908 188.933-20.646-.024-40.355-3.409-58.769-9.603.768.624.384 1.08-.192 1.32C597.668 823.237 552.415 832 505.098 832c-48.206 0-94.275-9.099-136.622-25.687-14.5 6.698-34.138 10.059-54.543 10.059-87.217-.264-160.269-60.473-180.147-141.592A193.227 193.227 0 0 1 128 627.751V627.463c0-68.251 36.154-128.052 90.361-161.277-4.249-23.094-7.178-49.118-7.202-75.789 0-179.979 131.701-326.396 293.627-326.396 49.382.168 95.595 13.636 135.254 37.018-.96-.672-.792-1.056-.504-1.176 33.705-13.084 72.692-21.294 113.408-22.71 3.049-.216 5.882-.312 8.738-.312 29.384 0 56.08 11.427 75.933 30.056 28.352 30.801 9.555 63.882-1.68 83.64-5.474 7.682-9.435 16.829-11.211 26.72 4.249 10.611 12.147 18.605 22.014 22.95 7.37 4.369 12.051 12.027 12.051 20.79 0 4.393-1.176 8.498-3.217 12.027-4.009 7.034-11.571 11.763-20.238 11.763a23.212 23.212 0 0 1-11.811-3.217v.072zm10.995 346.13c0-76.726-62.201-138.927-138.927-138.927s-138.927 62.201-138.927 138.927v.096c0 12.123 1.512 23.887 4.345 35.122 14.716 60.761 69.476 105.918 134.798 105.918 76.606 0 138.711-62.105 138.711-138.711 0-.84 0-1.704-.024-2.545l.024.12zm-659.466 0v.096c0 12.123 1.512 23.887 4.345 35.122 15.316 61.457 70.892 106.998 137.079 106.998 78.022 0 141.28-63.258 141.28-141.28s-63.258-141.28-141.28-141.28c-77.71 0-140.752 62.73-141.28 140.295l-.144.048zm83.16-237.379c.216 19.902 2.233 39.203 5.93 57.928 14.692-6.458 31.929-9.051 49.79-9.051 103.085 1.728 185.98 85.68 185.98 188.981 0 59.321-27.32 112.256-70.076 146.921 22.23 5.786 48.134 8.955 74.805 8.955s52.575-3.169 77.398-9.123c-33.657-25.087-56.512-60.065-66.547-100.108-3.793-15.028-5.81-30.777-5.81-47.005v-1.2c0-103.037 83.111-186.652 185.932-187.493 18.125.048 35.53 2.689 51.975 7.61 1.945-17.165 3.841-36.538 3.865-56.344 0-153.667-110.671-278.67-246.573-278.67S258.309 236.776 258.309 390.419l-.096-.048z"/><glyph unicode="" glyph-name="toucan" d="M622.996 643.999v.096c0 23.368-19.136 42.297-42.76 42.297s-42.76-18.929-42.76-42.297 19.136-42.297 42.76-42.297h.073c23.575 0 42.663 18.881 42.687 42.201zm272.81-194.549c.121 3.527.194 7.677.194 11.852 0 104.028-42.057 198.363-110.259 267.243-63.206 60.723-148.653 99.23-243.147 102.516-8.756.576-16.541.936-23.987.936-1.334 0-2.571-.144-3.881-.144-1.698 0-3.299.168-4.996.144-.606 0-1.116-.336-1.722-.384-216.977-3.983-368.977-127.972-379.479-311.484-7.543-131.642 66.02-259.11 191.971-332.573 3.565-2.159 7.883-3.431 12.515-3.431 13.388 0 24.254 10.748 24.254 23.992 0 2.231-.315 4.39-.873 6.43-5.215 19.505-23.793 142.631 20.689 214.246 8.925 14.515 20.98 26.343 35.314 34.788-3.662-111.417 9.799-229.121 113.824-331.757 3.832-3.767 7.81-7.389 11.884-10.94a765.518 765.518 0 0 0-71.04-8.517c-13.024-.48-23.405-11.036-23.405-23.992 0-13.267 10.866-24.016 24.278-24.016.315 0 .606 0 .922.024h1.771c47.223 3.239 91.001 10.364 133.325 21.161 32.04-14.059 74.824-21.545 119.378-21.545 5.045 0 10.065.096 15.062.288 5.045-.024 11.011-.024 17.099.168 13.291.144 24.012 10.82 24.012 23.992 0 13.243-10.866 23.992-24.254 23.992h-.776a607.032 607.032 0 0 0-16.905-.24c-18.288 0-36.357.84-54.208 2.447C861.682 194.97 894.861 349.117 895.88 449.474l-.073-.024zm-480.618 71.975c0-1.08-.218-2.255-.291-3.503-33.883-11.732-61.411-34.308-79.02-63.434-36.599-59.044-39.437-139.824-35.023-195.34-75.624 57.436-123.89 146.901-123.89 247.498 0 3.743.073 7.485.194 11.204 9.071 158.753 139 262.565 331.917 265.78-48.508-65.785-81.033-145.965-90.371-232.983-.194-2.615-.558-2.999-.582-3.479l-.364-4.798c-.897-6.79-1.892-13.627-2.595-20.849l.024-.096zm50.933 15.235c8.246 93.831 45.67 177.754 103.177 244.187 71.161-8.997 134.198-40.234 182.221-86.634 41.741-41.626 71.938-94.743 85.35-154.123-81.906-11.516-152.922-52.902-200.678-113.193-43.124-55.709-68.784-125.572-68.784-201.362 0-26.007 3.032-51.318 8.731-75.598-5.918 6.694-10.842 11.132-15.523 15.763C448.1 276.829 456.226 408.712 466.17 536.731l-.049-.072zm162.987-392.936c-8.174 24.951-12.903 53.669-12.903 83.491 0 63.89 21.659 122.765 58.113 169.837 40.286 51.198 100.824 86.226 169.778 93.28 2.28-11.372 2.983-24.663 2.983-38.123v-2.543c-1.116-112.233-43.924-244.811-217.947-305.87l-.024-.072z"/><glyph unicode="" glyph-name="user" d="M669.831 629.488c0 87.027-70.533 157.576-157.546 157.576-87.039 0-157.576-70.545-157.576-157.576 0-87.024 70.53-157.546 157.576-157.546 87.02 0 157.546 70.526 157.546 157.546zM622.229 459.42c92.069-22.601 170.282-73.709 215.796-147.266 14.697-23.771 25.976-58.042 25.976-87.099 0-86.929-70.469-156.977-157.576-156.977H317.547c-87.083 0-157.546 70.053-157.546 156.977 0 29.065 11.265 63.355 25.952 87.109 45.601 73.662 123.969 124.806 216.213 147.354-55.613 36.09-92.393 98.728-92.393 169.968 0 111.847 90.655 202.512 202.512 202.512 111.833 0 202.482-90.67 202.482-202.512 0-71.303-36.846-133.992-92.538-170.067zM512 427.568c-123.416 0-233.839-51.825-287.834-139.045-10.567-17.091-19.23-43.46-19.23-63.467 0-62.047 50.286-112.041 112.61-112.041h388.878c62.35 0 112.64 49.99 112.64 112.041 0 19.989-8.674 46.345-19.256 63.461C745.841 375.735 635.4 427.568 512 427.568z"/><glyph unicode="" glyph-name="user-circle" d="M522.621 410.291a160.234 160.234 0 0 0-18.679-.125c-105.319-3.633-198.729-56.681-245.695-144.673-4.009-7.481-8.109-17.702-11.318-28.544C309.011 159.082 404.682 109.178 512 109.178c110.259 0 208.224 52.677 270.099 134.235-2.803 8.35-6.075 16.086-9.287 22.117-47.584 89.197-143.038 142.51-250.191 144.762zm86.704 33.302c86.135-22.6 159.555-76.433 202.05-154.397 25.181 47.368 39.449 101.421 39.449 158.803 0 187.115-151.709 338.824-338.824 338.824S173.176 635.114 173.176 447.999c0-60.073 15.637-116.497 43.063-165.423a144.607 144.607 0 0 0 2.169 4.22c41.502 77.754 113.518 131.872 198.377 155.456-35.799 27.582-58.807 70.351-58.807 118.468 0 83.427 69.165 150.799 154.232 150.799 85.043 0 154.202-67.377 154.202-150.799 0-47.343-22.275-89.51-57.088-117.128zM512 64c-212.065 0-384 171.935-384 384s171.935 384 384 384 384-171.935 384-384S724.065 64 512 64zm109.237 496.721c0 58.204-48.673 105.623-109.026 105.623-60.379 0-109.056-47.415-109.056-105.623 0-58.2 48.67-105.592 109.056-105.592 60.36 0 109.026 47.396 109.026 105.592z"/><glyph unicode="" glyph-name="bear" d="M415.961 526.229v.203c0 23.244-18.852 42.096-42.096 42.096s-42.096-18.852-42.096-42.096c0-23.244 18.852-42.096 42.096-42.096h.113c23.154 0 41.938 18.762 41.983 41.893zm233.994 41.893c-23.064-.113-41.713-18.829-41.713-41.893 0-23.131 18.762-41.893 41.893-41.893s41.893 18.762 41.893 41.893c-.045 23.154-18.807 41.893-41.983 41.893h-.09zm194.624 11.059c29.1 22.501 47.637 57.412 47.637 96.648v.315c-.225 67.998-55.43 123.067-123.473 123.067-51.195 0-95.093-31.15-113.81-75.521-42.817 14.505-91.895 23.379-143.023 23.379s-100.206-8.852-145.748-25.113c-15.766 46.533-59.844 78.043-111.288 78.043-68.111 0-123.315-55.205-123.315-123.315 0-39.506 18.582-74.665 47.479-97.233-31.6-46.826-50.745-104.373-51.038-166.38C128 228.74 300.281 78.893 512 78.893s384 149.848 384 334.111c-.315 62.074-19.46 119.599-52.029 167.258l.608-1.081zm-75.881 172.191h.068c41.601 0 75.363-33.65 75.498-75.228-.135-23.897-11.509-45.092-29.1-58.606-32.389 35.542-70.903 64.822-114.103 86.062 9.347 28.672 36.195 47.794 67.525 47.794h.158l-.045-.023zm-513.599 0c31.352-.045 58.223-19.122 69.732-46.285-45.362-22.794-84.012-52.187-116.018-87.706-18.019 13.537-29.28 34.911-29.28 58.921 0 41.465 33.605 75.07 75.07 75.07h.496zm256.856-624.707c-185.299 0-336.003 128.473-336.003 286.361s150.771 286.361 336.003 286.361 336.003-128.473 336.003-286.361-150.704-286.361-336.003-286.361zm88.224 311.993H423.686c-13.199 0-23.875-10.699-23.875-23.875 0-4.392 1.194-8.514 3.243-12.05l84.89-146.469v-44.979c0-13.244 10.744-24.01 24.01-24.01s24.01 10.744 24.01 24.01v44.979l85.003 146.582c2.005 3.424 3.198 7.545 3.198 11.937 0 13.199-10.699 23.875-23.875 23.875h-.113zm-88.224-128.292-46.691 80.521h93.382l-46.691-80.521z"/><glyph unicode="" glyph-name="cat" d="M416.011 502.524c-.226 23.07-18.999 41.684-42.091 41.684-23.251 0-42.091-18.84-42.091-42.091s18.84-42.091 42.091-42.091h.023c23.251.113 42.069 18.999 42.069 42.272v.226zM650.012 545h-.43c-23.477 0-42.498-19.021-42.498-42.498s19.021-42.498 42.498-42.498c23.477 0 42.498 19.021 42.498 42.498v.249c0 23.273-18.795 42.159-42.046 42.295l-.023-.045zm-41.164-244.518c-24.744.136-46.66 12.191-60.276 30.715l39.332 36.64c4.795 4.478 7.803 10.834 7.803 17.89 0 3.144-.588 6.152-1.674 8.934-3.483 8.911-12.146 15.244-22.278 15.267H452.47c-10.155-.023-18.795-6.356-22.278-15.267a24.28 24.28 0 0 1-1.674-8.911c0-7.057 2.986-13.412 7.78-17.89l39.49-36.437c-13.774-18.727-35.69-30.76-60.411-30.918-13.073-.43-23.477-11.105-23.477-24.201s10.404-23.771 23.409-24.201c39.332.045 74.276 18.501 96.78 47.203 22.934-28.475 57.697-46.841 96.735-47.203h.068c13.367 0 24.223 10.834 24.223 24.223s-10.834 24.201-24.201 24.223l-.068-.068zm255.013 250.036c12.417 15.403 23.341 62.402 26.033 221.38v.475c0 12.033-8.776 22.007-20.265 23.884-7.079.995-165.04 23.703-250.67-55.91-32.094 8.685-68.961 13.661-106.958 13.661s-74.864-4.976-109.944-14.339c-82.712 80.36-240.673 57.629-247.594 56.589-11.625-1.9-20.378-11.852-20.378-23.861v-.52c2.691-158.956 13.638-205.932 26.055-221.358-20.197-39.445-32.072-86.037-32.139-135.388 0-186.843 172.278-338.81 384-338.81s384 151.967 384 338.788c-.09 49.374-11.965 95.966-32.954 137.13l.814-1.719zm-22.414 199.939c-.95-53.106-4.569-104.244-10.743-154.568-39.852 59.1-92.709 99.721-153.573 124.849 51.523 32.614 127.812 32.253 164.316 29.629v.09zm-658.916 0c36.55 2.669 112.793 3.008 166.872-28.792-63.397-26.055-116.254-66.676-156.174-117.86-6.107 42.385-9.726 93.478-10.675 145.227l-.023 1.425zm329.492-625.713c-185.305 0-336.006 130.277-336.006 290.386s150.768 290.386 336.006 290.386c185.237 0 336.006-130.277 336.006-290.386S697.306 124.744 512.023 124.744z"/><glyph unicode="" glyph-name="frog" d="M445.041 408.463c-10.26-4.815-17.235-15.052-17.235-26.932 0-16.38 13.275-29.654 29.654-29.654s29.654 13.275 29.654 29.654v.022c-4.432 15.93-18.81 27.427-35.864 27.427-2.205 0-4.342-.18-6.435-.562l.225.045zm133.85 0c-10.26-4.815-17.235-15.052-17.235-26.932 0-16.38 13.275-29.654 29.654-29.654s29.654 13.275 29.654 29.654v.022c-4.432 15.93-18.81 27.427-35.864 27.427-2.205 0-4.342-.18-6.435-.562l.225.045zM261.175 610.059c22.995.157 41.557 18.81 41.557 41.827 0 23.107-18.72 41.827-41.827 41.827s-41.827-18.72-41.827-41.827v-.022c.135-23.062 18.855-41.714 41.962-41.714h.157l-.022-.09zm501.583 0c22.995.135 41.602 18.81 41.602 41.827 0 23.107-18.72 41.827-41.827 41.827s-41.827-18.72-41.827-41.827v-.022c.135-23.062 18.855-41.714 41.939-41.714h.068l.045-.09zm96.68-55.192c21.465 25.582 34.514 58.859 34.514 95.173v.112c-.675 82.888-68.016 149.847-151.017 149.847-51.996 0-97.851-26.279-125.008-66.261-32.039 7.537-68.444 12.172-105.928 12.172s-73.889-4.635-108.673-13.365c-24.435 41.152-70.289 67.409-122.263 67.409-83.001 0-150.342-66.936-151.017-149.78v-.09c0-36.337 13.027-69.614 34.649-95.466-22.995-40.724-36.494-89.571-36.697-141.545 0-183.844 172.279-333.353 384-333.353s384 149.51 384 333.308c-.225 52.064-13.747 100.933-37.349 143.435l.787-1.597zM743.07 752.368c56.181-.382 101.586-46.012 101.586-102.261 0-56.474-45.787-102.261-102.261-102.261s-102.261 45.787-102.261 102.261v.022c.225 56.541 46.102 102.306 102.688 102.306h.202l.045-.067zm-462.14 0c56.204-.36 101.608-46.012 101.608-102.261 0-56.474-45.787-102.261-102.261-102.261s-102.261 45.787-102.261 102.261v.022c.225 56.541 46.124 102.306 102.71 102.306h.157l.045-.067zm231.048-625.015c-149.982 0-277.24 83.991-320.349 199.481 71.999-48.149 190.144-78.051 320.754-78.051 129.597 0 247.36 29.632 319.651 77.308C788.61 211.006 661.6 127.352 511.978 127.352zm335.558 277.06c-.292-.36-.697-.517-.967-.922C803.1 340.447 665.65 296.416 512.383 296.416c-154.459 0-292.157 44.414-334.816 107.998-.337.495-.855.742-1.215 1.192 0 2.407-.427 4.792-.427 7.357.292 40.004 9.922 77.668 26.864 111.035 21.802-15.412 49.049-23.715 78.253-23.715 82.956 0 150.275 67.004 150.792 149.825-.067 13.95-2.025 27.382-5.625 40.117 25.964 4.86 55.484 8.257 85.791 8.257s59.826-3.397 88.221-9.81c-6.03-11.182-7.987-24.592-8.032-38.474.495-82.911 67.814-149.915 150.77-149.915 29.204 0 56.451 8.302 79.558 22.68 15.727-32.287 25.357-69.974 25.492-109.91 0-2.857-.36-5.76-.45-8.662l-.022.022z"/><glyph unicode="" glyph-name="hamster" d="M373.953 558.206c-22.672-.335-40.94-18.782-40.94-41.521 0-22.941 18.581-41.521 41.521-41.521s41.521 18.581 41.521 41.521c-.157 22.963-18.827 41.521-41.812 41.521h-.291zm276.004 0c-22.672-.335-40.94-18.782-40.94-41.521 0-22.941 18.581-41.521 41.521-41.521s41.521 18.581 41.521 41.521c-.157 22.963-18.827 41.521-41.812 41.521h-.291zm189.496 28.329c7.021 10.017 12.857 21.554 16.971 33.874 9.458 26.585 28.106 91.159 2.415 137.041-11.627 20.347-31.258 34.97-54.512 39.643-9.1 1.878-18.961 2.907-29.067 2.907-29.894 0-57.71-8.988-80.852-24.416a134.57 134.57 0 0 1-44.92-46.194C608.28 743.387 561.124 751.839 512 751.839s-96.279-8.452-140.082-23.992c-8.407 20.325-23.835 36.222-42.282 47.737C306.449 791.012 278.634 800 248.74 800a147.276 147.276 0 0 1-29.492-2.974c-22.807-4.606-42.46-19.207-53.886-39.129-25.892-46.262-7.267-110.791 1.923-136.504 4.405-13.281 10.263-24.819 17.552-35.261-35.395-49.481-56.502-111.462-56.838-178.361 0-90.466 0-258.743 248.077-258.743 9.458.067 18.715.715 27.77 1.945 19.766-39.867 60.773-66.519 107.996-66.519 47.022 0 87.85 26.406 108.51 65.2 7.043-.112 14.891-.581 22.829-.626 252.818 0 252.818 168.277 252.818 258.653-.335 66.966-21.465 128.947-57.24 179.881l.693-1.029zM720.948 736.186c15.204 10.352 33.986 16.524 54.199 16.524 6.417 0 12.7-.626 18.76-1.811 9.57-1.565 18.044-7.692 22.896-16.143 11.023-19.721 8.921-57.956-5.299-97.576a162.27 162.27 0 0 0-3.958-10.062c-31.683 33.919-69.225 61.913-111.081 82.439 4.919 11.336 13.818 19.922 24.126 26.496l.358.134zm-513.818-1.61c4.919 8.631 13.371 14.757 23.343 16.389 5.635 1.096 11.895 1.722 18.29 1.722 20.235 0 39.039-6.171 54.624-16.725a92.45 92.45 0 0 0 26.16-25.132c-43.891-21.823-81.411-49.817-112.915-83.512-1.431 2.616-2.728 5.813-4.181 9.838-14.198 39.688-16.322 77.945-5.277 97.487l-.045-.067zm304.803-602.898h-.335c-24.595 0-46.418 11.94-59.968 30.342 22.024 8.184 41.208 18.089 58.828 30.14 16.859-12.767 37.228-23.142 58.939-30.699-12.029-18.312-33.383-29.649-57.397-29.716l-.067-.067zm131.249 64.596c-35.104.313-67.838 10.241-95.765 27.256 19.743 17.776 35.954 38.637 48.922 61.555 2.527 4.606 3.6 8.519 3.6 12.655 0 8.944-5.009 16.725-12.365 20.705a24.021 24.021 0 0 1-11.493 2.907c-9.033 0-16.926-4.964-21.063-12.32-12.477-22.158-27.547-41.029-45.166-57.128-17.888 16.032-32.913 34.814-44.696 55.63-4.74 8.631-12.611 13.617-21.644 13.617a24.003 24.003 0 0 1-11.56-2.951c-7.379-3.958-12.387-11.739-12.387-20.682 0-4.159 1.073-8.049 2.974-11.448 13.55-24.036 29.693-44.786 48.43-62.852-27.01-16.613-59.722-26.541-94.714-26.854-200.228 0-200.228 117.163-200.228 211.319 0 163.738 150.769 296.933 335.994 296.933s335.994-133.195 335.994-296.933c0-94.155 0-211.319-204.767-211.319l-.067-.089z"/><glyph unicode="" glyph-name="chevron" horiz-adv-x="1837" d="M1785.612 907.618c-13.517 13.629-32.26 22.053-52.926 22.053-20.455 0-38.988-8.244-52.475-21.602L918.738 147.058 157.265 908.069c-13.427 13.479-32.02 21.813-52.535 21.813-20.726 0-39.499-8.515-52.956-22.264-13.397-13.629-21.657-32.313-21.657-52.952 0-20.85 8.44-39.744 22.107-53.404L865.962-12.25c13.487-13.358 32.05-21.632 52.505-21.632s39.048 8.274 52.535 21.632l813.738 813.512c13.787 13.689 22.318 32.644 22.318 53.614 0 20.519-8.17 39.113-21.447 52.742z"/><glyph unicode="" glyph-name="circle-arrow" d="M512 960C229.216 960 0 730.784 0 448S229.216-64 512-64s512 229.216 512 512c-.384 282.624-229.376 511.616-511.968 512H512zm-8.58-659.284c11.076-.172 22.244 4.012 30.913 12.68l150.673 150.673c16.711 16.711 16.867 43.65.088 60.428-16.662 16.662-43.381 16.959-60.428-.088L503.421 403.164 382.176 524.409c-17.047 17.047-43.766 16.751-60.428.088-16.779-16.779-16.623-43.717.088-60.428l150.673-150.673c8.668-8.668 19.837-12.852 30.913-12.68zM512 17.92C274.464 17.92 81.92 210.464 81.92 448S274.464 878.08 512 878.08c237.536 0 430.08-192.544 430.08-430.08-.288-237.408-192.672-429.792-430.048-430.08H512z"/><glyph unicode="" glyph-name="expander-arrow" d="M512 576.043c8.925.338 17.922-2.903 24.713-9.694l189.252-189.252c12.754-12.754 12.899-34.142-.202-47.244-13.193-13.193-34.253-13.192-47.244-.202L512 496.17 345.481 329.651c-12.99-12.99-34.05-12.991-47.244.202-13.102 13.102-12.956 34.49-.202 47.244l189.252 189.252c6.791 6.791 15.788 10.032 24.713 9.694z"/><glyph unicode="" glyph-name="field-counter" horiz-adv-x="375" d="M192.504 3.148c-10.213-1.478-20.984 1.734-29.05 9.8L42.916 133.486c-13.369 13.369-13.494 34.92-.071 48.343 13.33 13.33 34.705 13.567 48.343-.071l96.72-96.72 96.72 96.72c13.369 13.369 34.92 13.494 48.343.071 13.33-13.33 13.567-34.705-.071-48.343L212.362 12.948c-5.587-5.587-12.603-8.861-19.857-9.8zm0 889.704c-10.213 1.478-20.984-1.734-29.05-9.8L42.916 762.514c-13.369-13.369-13.494-34.92-.071-48.343 13.33-13.33 34.705-13.567 48.343.071l96.72 96.72 96.72-96.72c13.369-13.369 34.92-13.494 48.343-.071 13.33 13.33 13.567 34.705-.071 48.343L212.362 883.052c-5.587 5.587-12.603 8.861-19.857 9.8z"/><glyph unicode="" glyph-name="field-opener" horiz-adv-x="1126" d="M577.513 137.443c-30.639-4.435-62.953 5.202-87.149 29.399L128.75 528.456c-40.107 40.107-40.481 104.759-.212 145.028 39.99 39.99 104.114 40.702 145.028-.212l290.159-290.159 290.159 290.159c40.107 40.107 104.759 40.481 145.028.212 39.99-39.99 40.702-104.114-.212-145.028L637.086 166.842c-16.761-16.761-37.808-26.582-59.572-29.399z"/><glyph unicode="" glyph-name="menu-switcher" horiz-adv-x="745" d="M744.727 308.364 372.363-64-.001 308.364h744.727zM0 587.636 372.364 960l372.364-372.364H.001z"/><glyph unicode="" glyph-name="side-arrow" horiz-adv-x="563" d="M487.935 443.086 21.252 914.724c-10.768 10.883-10.94 28.933.028 39.901l-2.607-2.607c11.252 11.252 28.738 10.886 39.69-.183l482.488-487.611a27.88 27.88 0 0 0 3.322-4.059l.468-.468c-.149.149-.298.295-.449.44.346-.516.673-1.042.982-1.577 7.664-10.971 6.477-26.252-3.162-35.792L58.312-55.973c-10.98-10.867-28.488-11.07-39.74.182l2.607-2.607c-10.968 10.968-10.773 28.851.022 39.536l466.735 461.949z"/><glyph unicode="" glyph-name="breadcrumbs-arrow" horiz-adv-x="585" d="M541.334 456.411c1-20.077-5.985-40.653-21.309-55.978L153.93 34.338C124.482 4.89 78.64 5.359 50.076 33.923c-27.729 27.729-28.378 75.061.415 103.854l318.634 318.634L50.491 775.045c-28.793 28.793-28.143 76.125-.415 103.854 28.564 28.564 74.406 29.033 103.854-.415l366.095-366.095c15.325-15.325 22.309-35.901 21.309-55.978z"/><glyph unicode="" glyph-name="messages" d="M785.607 767.98H238.211C177.261 767.6 128 718.666 128 658.358V384.204c0-55.051 40.97-100.647 94.438-108.582l.607-123.734v-.06c0-9.155 5.197-17.091 12.841-21.089 3.316-1.759 7.118-2.739 11.142-2.739 5.217 0 10.03 1.659 13.953 4.478l199.816 142.045h324.83c61.031.3 110.373 49.254 110.373 109.622v274.214c0 60.368-49.362 109.362-110.373 109.642l-.02-.02zm62.385-383.496v-.22c0-34.122-27.907-61.787-62.365-61.947H453.113a23.987 23.987 0 0 1-13.994-4.478L270.931 198.303V298.59c0 13.093-10.738 23.727-24.004 23.727h-8.756c-34.499.16-62.386 27.845-62.386 61.947v273.914c0 34.122 27.907 61.787 62.365 61.947h547.396c34.438-.22 62.264-27.885 62.264-61.947V384.483h.182zM350.182 561.59h-.384c-23.458 0-42.467-18.79-42.467-41.978s19.009-41.978 42.467-41.978 42.467 18.79 42.467 41.978v.18c0 23.048-18.867 41.718-42.143 41.798h.061zm161.798 0h-.404c-23.458 0-42.467-18.79-42.467-41.978s19.009-41.978 42.467-41.978 42.467 18.79 42.467 41.978v.18c0 23.028-18.847 41.718-42.123 41.798h.061zm161.778 0h-.384c-23.458 0-42.467-18.79-42.467-41.978s19.009-41.978 42.467-41.978 42.467 18.79 42.467 41.978v.18c0 23.048-18.867 41.718-42.143 41.798h.061z"/><glyph unicode="" glyph-name="phone" d="M688.762 100.571c30.3 0 54.857 24.557 54.857 54.857v585.143c0 30.3-24.557 54.857-54.857 54.857H347.429c-30.3 0-54.857-24.557-54.857-54.857V155.428c0-30.3 24.557-54.857 54.857-54.857h341.333zm0-36.571H347.429C296.931 64 256 104.93 256 155.429v585.143c0 50.498 40.93 91.429 91.429 91.429h341.333c50.498 0 91.429-40.93 91.429-91.429V155.429c0-50.498-40.93-91.429-91.429-91.429zM286.476 636.952c-10.099 0-18.286 8.187-18.286 18.286s8.187 18.286 18.286 18.286h463.238c10.099 0 18.286-8.187 18.286-18.286s-8.187-18.286-18.286-18.286H286.476zm0-377.904c-10.099 0-18.286 8.187-18.286 18.286s8.187 18.286 18.286 18.286h463.238c10.099 0 18.286-8.187 18.286-18.286s-8.187-18.286-18.286-18.286H286.476zm268.191-79.238c0-20.187-16.36-36.571-36.571-36.571s-36.571 16.384-36.571 36.571c0 20.187 16.36 36.571 36.571 36.571s36.571-16.384 36.571-36.571z"/><glyph unicode="" glyph-name="set-tarif" d="M498.581 715.586V662.62c0-14.626-12.016-26.483-26.839-26.483H310.71c-14.823 0-26.839 11.857-26.839 26.483v53.016a31.187 31.187 0 0 0-1.789-.051H124.628c-15.811 0-28.628 11.857-28.628 26.483s12.817 26.483 28.628 26.483h157.454c.601 0 1.198-.017 1.789-.051v53.016c0 14.626 12.016 26.483 26.839 26.483h161.032c14.823 0 26.839-11.857 26.839-26.483V768.55h403.306c14.422 0 26.113-11.857 26.113-26.483s-11.691-26.483-26.113-26.483H498.581zm268.387-264.827v-52.966c0-14.626-12.016-26.483-26.839-26.483H579.097c-14.823 0-26.839 11.857-26.839 26.483v52.966H124.33c-15.646 0-28.33 11.857-28.33 26.483s12.684 26.483 28.33 26.483h427.928v52.966c0 14.626 12.016 26.483 26.839 26.483h161.032c14.823 0 26.839-11.857 26.839-26.483v-52.966h134.194c14.823 0 26.839-11.857 26.839-26.483s-12.016-26.483-26.839-26.483H766.968zM605.935 159.525v-53.043c0-14.626-12.016-26.483-26.839-26.483H418.064c-14.823 0-26.839 11.857-26.839 26.483v52.966H120.773c-13.682 0-24.774 11.857-24.774 26.483s11.092 26.483 24.774 26.483h270.452v52.966c0 14.626 12.016 26.483 26.839 26.483h161.032c14.823 0 26.839-11.857 26.839-26.483v-53.043c.738.051 1.484.077 2.237.077h290.753c16.058 0 29.075-11.857 29.075-26.483s-13.017-26.483-29.075-26.483H608.172c-.753 0-1.498.026-2.237.077zm-53.677 79.372H444.903V132.966h107.355v105.931zm161.032 291.31H605.935V424.276H713.29v105.931zM444.903 795.034H337.548V689.103h107.355v105.931z"/><glyph unicode="" glyph-name="simcard" d="m871.697 520.716-167.516 163.43C691.692 696.421 674.556 704 655.641 704H236.942C176.704 703.621 128 654.686 128 594.399V286.174c0-60.304 48.704-109.239 108.926-109.601h550.017c60.287.297 109.058 49.248 109.058 109.585v176.99c-.066 22.556-9.359 42.938-24.303 57.569zm-24.006-234.163v-.198c0-33.694-27.203-61.029-60.848-61.243H236.942c-33.694.181-60.93 27.532-60.93 61.243v307.829c0 33.694 27.203 61.029 60.848 61.243h418.617a21.691 21.691 0 0 0 15.224-6.212l167.697-163.479c5.899-5.767 9.573-13.791 9.606-22.672V286.535l-.313.016zm-389.47 305.44H285.416c-13.28-.099-24.006-10.874-24.006-24.171V312.701c0-13.28 10.726-24.072 23.99-24.171h172.805c13.28.099 24.006 10.874 24.006 24.171v255.121c0 13.247-10.677 24.023-23.891 24.171h-.099zm-23.99-254.89H309.438v206.4h124.793v-206.4z"/><glyph unicode="" glyph-name="tarif" d="M791.072 831.952H518.096c-58.056-.504-104.928-47.712-104.928-105.84V485.944h-211.68c-40.752-.72-73.488-33.912-73.488-74.76V138.712c0-40.848 32.76-74.04 73.416-74.736h475.992c40.752.72 73.488 33.912 73.488 74.76v12.792h40.176C849.128 152.056 896 199.24 896 257.392V726.16c0 58.128-46.872 105.312-104.88 105.84l-.048-.048zm-272.976-48.48h272.976c31.44-.48 56.76-26.088 56.76-57.6v-33.6h-386.4v33.744c0 31.464 25.272 57 56.616 57.456h.048zm-56.76-139.68h386.4V361.12H705.32L591.248 474.448c-7.08 7.08-16.824 11.472-27.624 11.496H461.24v157.848h.096zm241.392-504.288V139c0-14.232-11.184-25.872-25.272-26.568H201.464c-14.136.696-25.32 12.312-25.32 26.568v271.896c0 14.232 11.184 25.872 25.272 26.568H560l142.704-142.368V139.504h.024zm88.344 60.48h-40.176v95.112c-.048 6.336-1.248 12.36-3.408 17.904l100.344-.336v-55.08c0-31.512-25.32-57.12-56.712-57.6h-.048zM432.056 376.192H261.464c-13.272-.12-24-10.896-24-24.192V197.896c0-13.296 10.728-24.072 24-24.192h170.592c13.344.048 24.144 10.872 24.144 24.216v154.056c0 13.344-10.8 24.168-24.144 24.216zm-24-154.032H285.512v105.6h122.544v-105.6z"/><glyph unicode="" glyph-name="websites" d="M738.229 543.921H273.877c-.233 0-.489.023-.745.023-13.149 0-23.809-10.659-23.809-23.809s10.659-23.809 23.809-23.809c.256 0 .535 0 .791.023h464.328c.233 0 .489-.023.745-.023 13.149 0 23.809 10.659 23.809 23.809s-10.659 23.809-23.809 23.809c-.256 0-.535 0-.791-.023h.023zM585.998 418.454H273.25c-13.149 0-23.809-10.659-23.809-23.809s10.659-23.809 23.809-23.809c.256 0 .535 0 .791.023h312.702c13.149 0 23.809 10.659 23.809 23.809s-10.659 23.809-23.809 23.809c-.256 0-.535 0-.791-.023h.047zM785.73 832H237.943c-60.534 0-109.664-48.944-109.944-109.408v-525.63c.303-60.488 49.409-109.408 109.944-109.408h548.089c60.534 0 109.664 48.921 109.967 109.385v525.63c-.303 60.511-49.409 109.432-109.967 109.432h-.303zM238.2 784.406h547.624c34.212 0 61.977-27.649 62.14-61.838v-43.964H175.967v43.94c.163 34.189 27.928 61.838 62.14 61.838h.093v.023zM785.73 135.17H238.153c-34.189 0-61.931 27.602-62.163 61.768v434.119h671.997V196.961c-.209-34.165-27.975-61.768-62.163-61.768h-.093v-.023z"/><glyph unicode="" glyph-name="wifi" d="M227.464 824.285c-156.87-159.267-156.87-418.436 0-577.718 8.955-9.092 8.955-23.804 0-32.896-4.345-4.412-10.182-6.815-16.201-6.815-6.01 0-11.827 2.398-16.201 6.815-174.751 177.421-174.751 466.09 0 643.51 8.955 9.092 23.446 9.092 32.401 0s8.955-23.804 0-32.896zm64.459-512.29c8.955-9.092 8.955-23.804 0-32.896-4.348-4.415-10.172-6.815-16.201-6.815s-11.852 2.4-16.2 6.815c-139.226 141.337-139.226 371.317 0 512.669 8.955 9.092 23.446 9.092 32.401 0s8.955-23.804 0-32.896c-121.345-123.214-121.345-323.678 0-446.877zm64.429 414.344c8.938-9.098 8.938-23.814 0-32.912-85.819-87.131-85.819-228.889 0-316.02 8.955-9.092 8.955-23.804 0-32.896-4.348-4.415-10.172-6.815-16.201-6.815s-11.852 2.4-16.201 6.816c-50.149 50.932-77.778 118.743-77.778 190.913 0 72.175 27.633 140.001 77.779 190.914a22.654 22.654 0 0 0 32.401 0zm440.184 97.946c-8.955 9.092-8.955 23.804 0 32.896s23.446 9.092 32.401 0c174.751-177.421 174.751-466.09 0-643.51-4.373-4.417-10.19-6.815-16.201-6.815-6.019 0-11.855 2.403-16.201 6.815-8.955 9.092-8.955 23.804 0 32.896 156.87 159.282 156.87 418.451 0 577.718zm-64.459-512.29c121.345 123.199 121.345 323.663 0 446.877-8.955 9.092-8.955 23.804 0 32.896s23.446 9.092 32.401 0c139.225-141.353 139.225-371.332 0-512.669-4.348-4.415-10.171-6.815-16.2-6.815s-11.852 2.4-16.201 6.815c-8.955 9.092-8.955 23.804 0 32.896zm-64.429 414.344a22.654 22.654 0 0 0 32.401 0c50.146-50.912 77.779-118.738 77.779-190.914 0-72.17-27.628-139.981-77.778-190.913-4.349-4.416-10.172-6.816-16.201-6.816s-11.852 2.4-16.201 6.815c-8.955 9.092-8.955 23.804 0 32.896 85.819 87.131 85.819 228.889 0 316.02-8.938 9.098-8.938 23.814 0 32.912zM397.934 532.326c0 63.839 51.165 115.785 114.043 115.785 62.888 0 114.043-51.942 114.043-115.785 0-55.33-38.709-102.405-91.13-113.3V87.263C534.89 74.404 524.642 64 511.977 64s-22.913 10.404-22.913 23.263v331.763c-52.421 10.895-91.13 57.97-91.13 113.3zm114.058-74.602c40.898 0 74.161 33.771 74.161 75.294s-33.262 75.294-74.161 75.294c-40.898 0-74.161-33.771-74.161-75.294s33.262-75.294 74.161-75.294z"/></font>
</defs>
</svg>
