<svg width="136" height="137" fill="none" xmlns="http://www.w3.org/2000/svg"><path d="M125.752 94.68A63.188 63.188 0 0 1 6.327 81.493a63.19 63.19 0 0 1 10.868-50.198" stroke="#FF59A3" stroke-width="10" stroke-linecap="round" stroke-linejoin="round" stroke-dasharray="6 30"/><path d="M67.81 80.03c6.264 0 11.342-5.077 11.342-11.341 0-6.264-5.078-11.342-11.341-11.342-6.264 0-11.342 5.078-11.342 11.342S61.547 80.03 67.81 80.03Z" stroke="#FF59A3" stroke-width="10"/><path d="M67.81 55.726V23.32M80.772 68.688h29.165" stroke="#FF59A3" stroke-width="10" stroke-linecap="round"/><path d="M67.81 5.499A63.256 63.256 0 0 1 131 68.689M7.538 17.487l26.378-4.083-2.528 22.943" stroke="#FF59A3" stroke-width="10" stroke-linecap="round" stroke-linejoin="round"/></svg>