<svg width="119" height="120" fill="none" xmlns="http://www.w3.org/2000/svg"><path d="M59.5 119.977c32.861 0 59.5-26.639 59.5-59.5 0-32.86-26.639-59.5-59.5-59.5C26.64.977 0 27.617 0 60.477c0 32.861 26.64 59.5 59.5 59.5Z" fill="#fff"/><path d="M37.904 52.103c5.842 0 10.578-4.933 10.578-11.019 0-6.085-4.736-11.018-10.578-11.018s-10.578 4.933-10.578 11.018c0 6.086 4.736 11.019 10.578 11.019ZM82.419 88.244c6.085 0 11.018-4.934 11.018-11.019S88.504 66.207 82.42 66.207c-6.085 0-11.019 4.933-11.019 11.018 0 6.085 4.934 11.019 11.019 11.019ZM85.504 32.71l-53.77 53.77" stroke="#FF59A3" stroke-width="10" stroke-linecap="round" stroke-linejoin="round"/></svg>