<svg xmlns="http://www.w3.org/2000/svg" width="112" height="146"><path d="M56.22.35c20.888 0 38.006 16.654 38.68 37.435l.014.631.006.634-.001 12.033h3.578c7.02 0 12.81 5.461 13.3 12.389l.019.316.01.313.005.315v67.645c0 7.126-5.628 12.984-12.705 13.318l-.313.011-.316.004H13.942c-7.126 0-12.985-5.628-13.318-12.705l-.012-.313-.003-.315V64.416c0-7.126 5.627-12.984 12.704-13.318l.314-.011.315-.004h3.577V39.05c0-20.913 16.68-38.007 37.432-38.68l.63-.015.639-.005zm42.277 60.489H13.942a3.578 3.578 0 0 0-3.559 3.196l-.014.187-.005.194v67.645a3.578 3.578 0 0 0 3.196 3.558l.187.015.195.004h84.555a3.578 3.578 0 0 0 3.559-3.195l.014-.187.005-.195V64.416a3.58 3.58 0 0 0-3.578-3.577zM56.22 84c2.803 0 5.12 2.15 5.359 4.922l.015.226.005.231v18.916a5.38 5.38 0 0 1-5.38 5.38 5.38 5.38 0 0 1-5.358-4.922l-.015-.226-.005-.232V89.379A5.38 5.38 0 0 1 56.22 84zm0-73.894c-15.624 0-28.426 12.454-28.93 27.989l-.01.472-.005.483v12.033h57.889V39.05c0-15.8-12.726-28.684-28.466-28.94l-.478-.004z" fill="#FF59A3" fill-rule="nonzero"/></svg>