<svg xmlns="http://www.w3.org/2000/svg" width="350" height="350"><g fill="none" fill-rule="evenodd"><circle cx="175" cy="175" r="175" fill="#D1D6DB"/><g stroke="#FFF" stroke-linejoin="round" stroke-width="18"><path d="M346.108 174.552c0 95.3-77.256 172.553-172.553 172.553-95.3 0-172.553-77.253-172.553-172.553 0-95.297 77.253-172.553 172.553-172.553 95.297 0 172.553 77.256 172.553 172.553z"/><path d="M243.314 174.552c0 95.3-31.233 172.553-69.76 172.553-38.528 0-69.76-77.253-69.76-172.553 0-95.297 31.232-172.553 69.76-172.553 38.527 0 69.76 77.256 69.76 172.553zM13.636 109.62h320.355M13.636 239.485h320.311"/></g></g></svg>