<svg width="138" height="138" fill="none" xmlns="http://www.w3.org/2000/svg"><path fill-rule="evenodd" clip-rule="evenodd" d="M110.795 135.413a4.896 4.896 0 0 0 6.925.001l17.957-17.968a4.895 4.895 0 0 0 0-6.922L97.692 72.522l27.712-16.017a4.897 4.897 0 0 0-.635-8.786L7.698 1.012a4.894 4.894 0 0 0-6.363 6.36L48.02 124.498a4.893 4.893 0 0 0 4.195 3.07 4.89 4.89 0 0 0 4.593-2.434l16.005-27.718 37.982 37.998ZM75.227 85.98a4.896 4.896 0 0 0-7.703 1.012l-14.147 24.501-38.729-97.164 97.122 38.746-24.498 14.16a4.896 4.896 0 0 0-1.012 7.7l39.033 39.049-11.036 11.043-39.03-39.047Z" fill="#FF59A3"/><path d="m110.795 135.413.354-.353v-.001l-.354.354Zm6.925.001.354.354v-.001l-.354-.353Zm17.957-17.968.354.353-.354-.353Zm0-6.922-.354.353.354-.353ZM97.692 72.522l-.25-.433-.564.325.46.461.354-.353Zm27.712-16.017-.25-.433.25.433Zm2.434-4.592.498-.036-.498.036Zm-3.069-4.194-.186.464h.001l.185-.464ZM7.698 1.012l.185-.464-.185.464ZM2.422 2.097l.353.354-.353-.354ZM1.335 7.373l-.464.185.464-.185ZM48.02 124.497l.464-.185-.464.185Zm4.195 3.07.036-.498-.036.498Zm4.593-2.434-.433-.25.433.25Zm16.005-27.718.353-.353-.46-.461-.326.564.433.25Zm2.414-11.435.353-.354-.353.354Zm-4.102-1.394-.064-.495.064.495Zm-3.6 2.406-.434-.25.433.25Zm-14.148 24.501-.464.185.381.958.516-.893-.433-.25ZM14.648 14.329l.186-.465-1.08-.43.43 1.08.464-.185Zm97.122 38.746.25.433.892-.515-.956-.382-.186.465Zm-24.498 14.16-.25-.433.25.433Zm-2.404 3.6.495.065-.495-.065Zm1.392 4.1-.354.353.354-.353Zm39.033 39.049.353.354.354-.354-.354-.353-.353.353Zm-11.036 11.043-.353.353.353.354.354-.354-.354-.353Zm.001 11.321a4.399 4.399 0 0 1-3.109-1.288l-.707.706a5.394 5.394 0 0 0 3.816 1.582v-1Zm3.109-1.288a4.4 4.4 0 0 1-3.109 1.288v1c1.432 0 2.804-.57 3.816-1.58l-.707-.708Zm17.957-17.968-17.957 17.968.707.707 17.957-17.968-.707-.707Zm-.001-6.215a4.396 4.396 0 0 1 .001 6.215l.707.707a5.395 5.395 0 0 0-.001-7.629l-.707.707ZM97.339 72.875l37.984 38.002.707-.707-37.984-38.002-.707.707Zm27.815-16.803L97.442 72.09l.5.865 27.712-16.016-.5-.866Zm2.185-4.123a4.397 4.397 0 0 1-2.185 4.123l.5.866a5.395 5.395 0 0 0 2.682-5.06l-.997.071Zm-2.755-3.766a4.397 4.397 0 0 1 2.755 3.766l.997-.072a5.395 5.395 0 0 0-3.382-4.623l-.37.929ZM7.512 1.477l117.071 46.706.371-.929L7.883.548l-.37.929Zm-4.737.974a4.394 4.394 0 0 1 4.737-.974l.37-.929a5.394 5.394 0 0 0-5.814 1.196l.707.707ZM1.8 7.188a4.396 4.396 0 0 1 .975-4.737l-.707-.707A5.396 5.396 0 0 0 .871 7.558l.929-.37Zm46.684 117.124L1.8 7.188l-.929.37 46.684 117.124.93-.37Zm3.767 2.757a4.397 4.397 0 0 1-3.767-2.757l-.928.37a5.394 5.394 0 0 0 4.623 3.384l.072-.997Zm4.124-2.186a4.392 4.392 0 0 1-4.124 2.186l-.073.997a5.391 5.391 0 0 0 5.063-2.683l-.866-.5ZM72.38 97.165l-16.005 27.718.866.5 16.005-27.718-.866-.5Zm38.769 37.894L73.166 97.062l-.707.707 37.983 37.997.707-.707ZM71.764 85.045c1.158 0 2.279.458 3.109 1.288l.707-.707a5.396 5.396 0 0 0-3.816-1.58v1Zm-.575.037c.193-.025.385-.037.575-.037v-1c-.234 0-.468.015-.703.046l.128.991Zm-3.232 2.16a4.397 4.397 0 0 1 3.234-2.16l-.13-.991a5.397 5.397 0 0 0-3.97 2.65l.866.5ZM53.81 111.743l14.147-24.501-.866-.5-14.147 24.501.866.5Zm-39.626-97.23 38.729 97.165.929-.371-38.73-97.163-.928.37Zm97.772 38.098L14.834 13.864l-.37.929 97.121 38.747.371-.929ZM87.522 67.668l24.498-14.16-.5-.865-24.498 14.159.5.865ZM85.363 70.9a4.396 4.396 0 0 1 2.16-3.233l-.501-.865a5.396 5.396 0 0 0-2.65 3.968l.991.13Zm1.25 3.681a4.395 4.395 0 0 1-1.25-3.68l-.991-.131a5.395 5.395 0 0 0 1.534 4.518l.707-.707Zm39.033 39.05-39.033-39.05-.707.707 39.033 39.05.707-.707Zm-11.035 11.749 11.035-11.042-.707-.707-11.035 11.042.707.707ZM74.873 86.333l39.031 39.047.707-.707-39.03-39.047-.708.707Z" fill="#FF59A3"/></svg>