<svg xmlns="http://www.w3.org/2000/svg" width="129" height="150"><path d="M102.041 1.635 2.043 100.003c-3.31 3.255-.778 8.822 3.773 8.558l.992-.094 9.813-.972 7.916-.771 7.804-.749 5.708-.539 10.27-.946 6.465-.573 5.647-.478 3.308-.264 2.527-.19 2.178-.152 1.484-.092.944-.05 1.074-.047.416.351.626.54 1.61 1.42 1.982 1.783 2.32 2.116 3.426 3.157 3.909 3.633 4.936 4.619 4.448 4.18 2.745 2.59 5.629 5.323 9.307 8.836 7.03 6.702c3.412 3.26 9.027.416 8.413-4.264L110.505 4.549c-.536-4.093-5.521-5.81-8.464-2.914zm-.145 14.17 15.092 115.093-6.12-5.804-5.641-5.335-10.986-10.332-5.204-4.855-2.704-2.498-2.353-2.15-1.55-1.396-1.375-1.218-1.023-.886-.914-.775-.812-.669-.299-.238-.419-.328-.51-.383-.233-.168-.326-.226-.298-.195-.271-.163-.166-.093-.155-.08-.144-.066-.134-.055-.128-.044-.14-.04-.155-.036-.172-.033-.188-.03-.205-.026-.34-.034-.25-.018-.268-.015-.597-.018-.5-.005-.74.005-1.05.026-1.453.06-1.676.091-1.575.101-3.276.24-3.877.314-4.524.39-5.84.524-9.41.868-6.147.578-6.557.626-7.13.69 82.743-81.395z" fill="#1F2229" fill-rule="nonzero"/></svg>