<svg width="366" height="366" fill="none" xmlns="http://www.w3.org/2000/svg"><mask id="mask0_412_144" style="mask-type:alpha" maskUnits="userSpaceOnUse" x="0" y="0" width="366" height="366"><path fill-rule="evenodd" clip-rule="evenodd" d="M0 0h365.736v365.729H0V0Z" fill="#fff"/></mask><g mask="url('#mask0_412_144')"><path fill-rule="evenodd" clip-rule="evenodd" d="M194.793 313.45v-23.951c49.674-5.519 89.187-45.12 94.721-94.779h23.936c-5.695 62.82-55.822 113.035-118.657 118.73Zm-11.917-70.945c-6.602 0-11.931 5.329-11.931 11.917v10.98c-36.483-5.256-65.353-34.126-70.609-70.609h10.98c6.588 0 11.917-5.343 11.917-11.917 0-6.602-5.329-11.931-11.917-11.931h-10.98c5.256-36.483 34.126-65.353 70.609-70.609v10.965a11.915 11.915 0 0 0 11.931 11.932c6.588 0 11.917-5.329 11.917-11.932v-10.965c36.483 5.256 65.353 34.126 70.609 70.609h-10.98c-6.588 0-11.917 5.329-11.917 11.931 0 6.574 5.329 11.844 11.917 11.844h10.98c-5.256 36.468-34.126 65.426-70.609 70.682v-10.98a11.909 11.909 0 0 0-11.917-11.917Zm-11.932 70.945c-62.835-5.695-112.962-55.822-118.657-118.657h23.951c5.52 49.673 45.047 89.187 94.706 94.706v23.951Zm0-261.163v23.951c-49.659 5.52-89.187 45.047-94.706 94.706h-23.95c5.694-62.835 55.821-112.962 118.656-118.657Zm23.849 0c62.835 5.695 112.962 55.822 118.657 118.657h-23.936c-5.534-49.659-45.048-89.187-94.721-94.706v-23.95Zm159.02 118.657h-16.514c-5.812-75.966-66.539-136.693-142.506-142.52v-16.5c0-6.587-5.329-11.93-11.917-11.93-6.603 0-11.932 5.343-11.932 11.93V28.44C94.978 34.25 34.251 94.977 28.439 170.944H11.925c-6.574 0-11.932 5.329-11.932 11.932 0 6.573 5.358 11.917 11.932 11.917h16.514c5.812 75.967 66.538 136.679 142.505 142.506v16.514c0 6.588 5.329 11.917 11.932 11.917a11.909 11.909 0 0 0 11.917-11.917v-16.514c75.967-5.827 136.694-66.539 142.506-142.506h16.514c6.588 0 11.931-5.344 11.931-11.917 0-6.603-5.343-11.932-11.931-11.932Z" fill="#D1D6DB"/></g></svg>