<svg xmlns="http://www.w3.org/2000/svg" width="122" height="121"><path d="M60.768.375a5.12 5.12 0 1 1 0 10.24c-27.582 0-50.023 22.442-50.023 50.024s22.44 50.022 50.023 50.022c27.583 0 50.023-22.44 50.023-50.022a5.119 5.119 0 0 1 5.12-5.12 5.119 5.119 0 0 1 5.12 5.12c0 33.228-27.034 60.263-60.263 60.263-33.23 0-60.264-27.034-60.264-60.263C.504 27.409 27.538.375 60.768.375zm49.743 15.973a5.056 5.056 0 0 1 7.226.008c1.86 1.893 1.982 4.895.32 6.94l-.16.19-.17.18-57.045 57.772a5.08 5.08 0 0 1-3.355 1.506l-.298.006-.064-.001a5.066 5.066 0 0 1-3.277-1.302l-.192-.18-.18-.19-22.55-24.866c-1.905-2.101-1.772-5.37.298-7.304a5.058 5.058 0 0 1 6.868-.048l.18.17.172.18L57.23 70.304l53.281-53.956z" fill="#000" fill-rule="nonzero"/></svg>