<svg xmlns="http://www.w3.org/2000/svg" width="120" height="117"><path d="M95.856.648c2.79 0 5.045 2.193 5.045 4.896l-.001 19.853h14.041c2.691 0 4.88 2.157 4.993 4.857l.005.22v81.228c0 2.808-2.234 5.077-4.998 5.077H19.99C8.965 116.779 0 107.671 0 96.472V30.474c0-.077.002-.154.005-.23A5.53 5.53 0 0 1 0 30.021V20.23C0 9.43 9.05.648 20.18.648zm14.088 34.903H9.994v60.921c0 5.6 4.483 10.154 9.996 10.154h89.954l-.001-14.597-9.994.001c-10.91 0-19.803-8.78-19.987-19.646l-.003-.344c0-11.024 8.966-19.99 19.99-19.99h9.994V35.551zm0 26.494h-9.995c-5.512 0-9.995 4.483-9.995 9.995s4.483 9.995 9.995 9.995h9.995v-19.99zM90.811 10.439h-70.63c-5.565 0-10.09 4.391-10.09 9.79v4.896h80.72V10.439z" fill="#000" fill-rule="nonzero"/></svg>