<svg width="255" height="265" fill="none" xmlns="http://www.w3.org/2000/svg"><path d="M108.421 7.644c10.928-9.547 27.23-9.547 38.158 0l7.399 6.463a29.002 29.002 0 0 0 21.677 7.043l9.785-.88c14.452-1.3 27.641 8.282 30.87 22.429l2.187 9.578a29 29 0 0 0 13.397 18.44l8.434 5.04c12.456 7.442 17.494 22.946 11.791 36.289l-3.86 9.035a28.997 28.997 0 0 0 0 22.792l3.86 9.035c5.703 13.343.665 28.847-11.791 36.29l-8.434 5.04a29 29 0 0 0-13.397 18.439l-2.187 9.578c-3.229 14.147-16.418 23.729-30.87 22.429l-9.785-.88a29 29 0 0 0-21.677 7.043l-7.399 6.464c-10.928 9.546-27.23 9.546-38.158 0l-7.399-6.464a29 29 0 0 0-21.677-7.043l-9.785.88c-14.452 1.3-27.64-8.282-30.87-22.429l-2.187-9.578a28.999 28.999 0 0 0-13.397-18.439l-8.434-5.04c-12.456-7.443-17.494-22.947-11.791-36.29l3.86-9.035a29 29 0 0 0 0-22.792l-3.86-9.035c-5.703-13.343-.665-28.847 11.79-36.29l8.435-5.04a29 29 0 0 0 13.397-18.439L38.69 42.7C41.92 28.552 55.108 18.97 69.56 20.27l9.785.88a29 29 0 0 0 21.677-7.043l7.399-6.463Z" fill="#D1D6DB"/></svg>