<svg xmlns="http://www.w3.org/2000/svg" width="166" height="154" viewBox="0 0 166 154">
    <g fill="none" fill-rule="evenodd">
        <g fill="#000">
            <path d="M834.887 5148.049c13.155 0 25.143 7.635 30.753 19.5l1.56-3.114c1.258-2.496 4.315-3.521 6.797-2.264 1.213.606 2.122 1.645 2.541 2.934.426 1.277.329 2.65-.277 3.863l-7.165 14.335c-.612 1.213-1.65 2.115-2.927 2.54-1.29.427-2.67.323-3.882-.27l-13.736-6.874c-2.502-1.251-3.514-4.301-2.263-6.803 1.257-2.496 4.307-3.508 6.803-2.264l3.076 1.535c-4.108-8.028-12.175-12.98-21.28-12.98-13.233 0-23.995 10.755-23.995 23.981s10.762 23.989 23.995 23.989c7.886 0 15.264-3.882 19.752-10.376.767-1.122 1.928-1.876 3.263-2.115 1.322-.232 2.67.052 3.779.825 2.302 1.58 2.888 4.747 1.296 7.042-1.451 2.109-3.147 4.043-5.037 5.772h6.649c2.798 0 5.075 2.27 5.075 5.068v18.76l31.366-12.021c1.56-.593 3.32-.387 4.681.555 1.38.947 2.2 2.508 2.2 4.178v61.577c0 1.67-.82 3.238-2.2 4.179-1.36.935-3.108 1.154-4.675.561l-31.372-12.026v18.758c0 2.799-2.277 5.069-5.075 5.069H747.07c-2.798 0-5.068-2.27-5.068-5.069v-84.52c0-2.8 2.27-5.07 5.068-5.07h6.21c-7.183-6.519-11.278-15.63-11.278-25.136 0-18.81 15.302-34.119 34.12-34.119 12.032 0 23.233 6.532 29.372 17.089 6.152-10.557 17.36-17.089 29.393-17.089zm24.633 69.393H752.133v74.384H859.52v-74.384zm38.253 13.774l-28.11 10.769v25.298l28.11 10.769v-46.836zm-92.279-32.017c-1.76 3.037-3.96 5.758-6.532 8.106h13.078c-2.58-2.354-4.779-5.075-6.546-8.106zm-29.373-41.013c-13.226 0-23.988 10.756-23.988 23.982 0 13.226 10.762 23.989 23.988 23.989 13.226 0 23.976-10.763 23.976-23.989s-10.75-23.982-23.976-23.982zm-.002 4.423c2.799 0 5.069 2.27 5.069 5.069v8.937h8.905c2.799 0 5.069 2.277 5.069 5.069s-2.27 5.069-5.069 5.069H776.12c-2.798 0-5.068-2.277-5.068-5.069v-14.006c0-2.799 2.27-5.069 5.068-5.069z" transform="translate(-742.000000, -5148.000000)"/>
        </g>
    </g>
</svg>
