<svg xmlns="http://www.w3.org/2000/svg" width="479" height="407" viewBox="0 0 479 407">
    <g fill="none" fill-rule="evenodd">
        <g fill="#D1D6DB" fill-rule="nonzero">
            <path d="M930.946 1850.456c6.647 3.308 14.46 3.308 21.108 0 198.56-97.895 228.214-205.078 228.214-260.257 1.912-36.497-10.922-72.23-35.617-99.17-24.696-26.941-59.18-42.828-95.705-44.092-39.867-.076-78.273 14.996-107.446 42.167-29.173-27.17-67.58-42.243-107.446-42.167-36.524 1.264-71.01 17.15-95.705 44.091-24.695 26.94-37.529 62.674-35.617 99.17 0 55.18 29.655 162.363 228.214 260.258z" transform="translate(-702.000000, -1446.000000)"/>
        </g>
    </g>
</svg>
