<svg width="136" height="137" viewBox="0 0 136 137" fill="none" xmlns="http://www.w3.org/2000/svg">
<path d="M125.752 94.6797C122.102 102.739 116.801 109.943 110.19 115.823C103.58 121.704 95.8083 126.131 87.3786 128.818C78.9488 131.504 70.0489 132.391 61.2548 131.42C52.4607 130.449 43.9685 127.642 36.328 123.181C28.6876 118.72 22.0691 112.704 16.901 105.523C11.7329 98.3413 8.13048 90.1549 6.32689 81.4931C4.5233 72.8314 4.55875 63.8874 6.43095 55.2402C8.30315 46.5931 11.9704 38.4354 17.1952 31.2954" stroke="#FF59A3" stroke-width="10" stroke-linecap="round" stroke-linejoin="round" stroke-dasharray="6 30"/>
<path d="M67.8105 80.0307C74.0744 80.0307 79.1523 74.9528 79.1523 68.6889C79.1523 62.4251 74.0744 57.3472 67.8105 57.3472C61.5466 57.3472 56.4688 62.4251 56.4688 68.6889C56.4688 74.9528 61.5466 80.0307 67.8105 80.0307Z" stroke="#FF59A3" stroke-width="10"/>
<path d="M67.8105 55.7259V23.3208" stroke="#FF59A3" stroke-width="10" stroke-linecap="round"/>
<path d="M80.7725 68.688H109.937" stroke="#FF59A3" stroke-width="10" stroke-linecap="round"/>
<path d="M67.8105 5.49854C84.5643 5.51569 100.627 12.1787 112.474 24.0254C124.32 35.8721 130.983 51.9347 131 68.6884" stroke="#FF59A3" stroke-width="10" stroke-linecap="round" stroke-linejoin="round"/>
<path d="M7.53809 17.4868L33.9158 13.4038L31.3882 36.3466" stroke="#FF59A3" stroke-width="10" stroke-linecap="round" stroke-linejoin="round"/>
</svg>
