<svg width="119" height="120" viewBox="0 0 119 120" fill="none" xmlns="http://www.w3.org/2000/svg">
<path d="M59.5 119.977C92.361 119.977 119 93.338 119 60.4771C119 27.6161 92.361 0.977051 59.5 0.977051C26.6391 0.977051 0 27.6161 0 60.4771C0 93.338 26.6391 119.977 59.5 119.977Z" fill="white"/>
<path d="M37.904 52.103C43.7459 52.103 48.4817 47.1698 48.4817 41.0844C48.4817 34.9991 43.7459 30.0659 37.904 30.0659C32.062 30.0659 27.3262 34.9991 27.3262 41.0844C27.3262 47.1698 32.062 52.103 37.904 52.103Z" stroke="#FF59A3" stroke-width="10" stroke-linecap="round" stroke-linejoin="round"/>
<path d="M82.4189 88.2436C88.5043 88.2436 93.4374 83.3104 93.4374 77.2251C93.4374 71.1397 88.5043 66.2065 82.4189 66.2065C76.3336 66.2065 71.4004 71.1397 71.4004 77.2251C71.4004 83.3104 76.3336 88.2436 82.4189 88.2436Z" stroke="#FF59A3" stroke-width="10" stroke-linecap="round" stroke-linejoin="round"/>
<path d="M85.5036 32.7103L31.7333 86.4807" stroke="#FF59A3" stroke-width="10" stroke-linecap="round" stroke-linejoin="round"/>
</svg>
