<svg xmlns="http://www.w3.org/2000/svg" width="141" height="61" viewBox="0 0 141 61">
    <g fill="none" fill-rule="evenodd">
        <g fill="#000" fill-rule="nonzero">
            <path d="M813.355 2977.102l-2.028 1.76-3.141 2.75-2.77 2.446-3.59 3.19-15.133 13.534-4.96 4.392-1.307 1.135-2.507 2.195-1.121.968-1.035.877-.648.54-.62.505-.596.476-.29.228-.568.436-.554.414-.543.393-.538.376-.267.183-.537.356-.54.346-.549.34c-6.802 4.103-14.387 3.827-20.877-.075-5.823-3.502-9.776-9.44-10.018-15.012l-.01-.334c-.366-8.058 3.738-14.1 11.82-18.256 7.153-3.596 14.057-2.91 20.854 1.865l.347.254.378.287.625.487.454.363 1 .817.827.69.894.757 1.294 1.11 1.046.906 4.712 4.137c1.928 1.843 5.134 1.916 7.177.209 1.909-1.364 2.484-4.3 1.348-6.487l-.112-.203c-.25-.48-.592-.878-1.15-1.393l-.762-.683-.085-.08-1.29-1.134-2.677-2.39-.626-.555-.858-.746c-.71-.61-1.413-1.197-2.182-1.819l-.958-.765-.51-.401c-6.701-5.24-13.382-7.76-21.084-7.76-15.562 0-29.06 11.265-31.386 26.005-3.151 19.065 15.066 36.464 35.171 33.664 7.048-.99 13.115-3.763 18.356-8.369l7.213-6.4 21.028-18.746 4.388-3.889 2.97-2.537 1.105-.933 1.019-.847.639-.522.61-.49.296-.235.575-.45.28-.214.55-.414.537-.394.528-.377.262-.182.522-.356.524-.346.529-.339.267-.167c6.804-4.019 14.307-3.756 20.719.081 5.878 3.518 9.894 9.582 10.179 15.377.382 7.483-4.612 14.874-12.596 18.594-7.002 3.253-15.134 2.075-21.297-3.06l-2.299-1.966-2.032-1.703-2.465-2.047-1.7-1.425-1.96-1.68c-.79-.755-1.722-1.349-2.651-1.57-2.428-.85-4.986.1-6.338 2.166-1.341 2.304-.908 5.131 1.203 6.923l2.267 2.051.986.88 1.245 1.094 1.244 1.073 1.688 1.425 1.563 1.301 1.353 1.119c6.064 5.193 13.192 7.777 21.51 7.777 6.02 0 12.286-1.96 17.964-5.576 11.132-7.622 15.951-20.465 12.171-32.499-3.753-12.073-15.732-20.758-28.628-21.765l-.45-.032c-8.67-.385-16.668 2.568-23.394 8.371z" transform="translate(-727.000000, -2968.000000)"/>
        </g>
    </g>
</svg>
