<svg xmlns="http://www.w3.org/2000/svg" width="108" height="124" viewBox="0 0 108 124">
    <g fill="none" fill-rule="evenodd">
        <g fill="#1F2229" fill-rule="nonzero">
            <path d="M994.538 225c19.271 0 32.178 12.431 35.582 31.65.578 3.262-1.598 6.376-4.861 6.954-3.263.578-6.377-1.599-6.955-4.862-2.418-13.651-10.517-21.572-23.35-21.74l-.416-.002h-5.076c-15.607 0-24.287 11.093-24.46 29.442L965 267v4h63c9.941 0 18 8.059 18 18v42c0 9.941-8.059 18-18 18h-72c-9.941 0-18-8.059-18-18v-42c0-8.919 6.487-16.323 15-17.751V267c0-24.475 13.013-41.654 35.769-41.995l.693-.005h5.076zM1028 283h-72c-3.238 0-5.878 2.566-5.996 5.775L950 289v42c0 3.238 2.566 5.878 5.775 5.996L956 337h72c3.238 0 5.878-2.566 5.996-5.775L1034 331v-42c0-3.238-2.566-5.878-5.775-5.996L1028 283zm-36 12c4.97 0 9 4.03 9 9 0 3.322-1.8 6.223-4.477 7.783L999 325h-14l2.478-13.217C984.8 310.223 983 307.323 983 304c0-4.97 4.03-9 9-9z" transform="translate(-938 -225)"/>
        </g>
    </g>
</svg>
