<svg xmlns="http://www.w3.org/2000/svg" width="112" height="146" viewBox="0 0 112 146">
    <g fill="none" fill-rule="evenodd">
        <g fill="#FF59A3" fill-rule="nonzero">
            <path d="M1112.22 4000.35c20.888 0 38.006 16.654 38.68 37.435l.014.631.006.634-.001 12.033h3.578c7.02 0 12.81 5.461 13.3 12.389l.019.316.01.313.005.315v67.645c0 7.126-5.628 12.984-12.705 13.318l-.313.011-.316.004h-84.555c-7.126 0-12.985-5.628-13.318-12.705l-.012-.313-.003-.315v-67.645c0-7.126 5.627-12.984 12.704-13.318l.314-.011.315-.004h3.577v-12.033c0-20.913 16.68-38.007 37.432-38.68l.63-.015.639-.005zm42.277 60.489h-84.555c-1.845 0-3.375 1.402-3.559 3.196l-.014.187-.005.194v67.645c0 1.844 1.403 3.375 3.196 3.558l.187.015.195.004h84.555c1.845 0 3.375-1.402 3.559-3.195l.014-.187.005-.195v-67.645c0-1.974-1.603-3.577-3.578-3.577zM1112.22 4084c2.803 0 5.12 2.15 5.359 4.922l.015.226.005.231v18.916c0 2.971-2.409 5.38-5.38 5.38-2.803 0-5.119-2.15-5.358-4.922l-.015-.226-.005-.232v-18.916c0-2.97 2.408-5.379 5.379-5.379zm0-73.894c-15.624 0-28.426 12.454-28.93 27.989l-.01.472-.005.483v12.033h57.889v-12.033c0-15.8-12.726-28.684-28.466-28.94l-.478-.004z" transform="translate(-1056.000000, -4000.000000)"/>
        </g>
    </g>
</svg>
