<svg xmlns="http://www.w3.org/2000/svg" width="176" height="220" viewBox="0 0 176 220">
    <g fill="none" fill-rule="evenodd">
        <g fill="#FF4F12" fill-rule="nonzero">
            <path d="M638.806 102.188l-.927 1.062c-2.784 3.709-2.474 9.005.927 12.361l39.9 39.376-39.901 39.403c-3.74 3.692-3.74 9.73.001 13.422l55.206 54.47c3.672 3.624 9.573 3.624 13.244 0l101.938-100.58c3.742-3.693 3.741-9.732-.001-13.424L707.256 47.716c-3.672-3.622-9.573-3.621-13.244.001l-55.206 54.471zm61.824-34.522l88.515 87.321-88.515 87.334-41.788-41.234 39.923-39.387.927-1.061c2.782-3.71 2.472-9.005-.929-12.36l-39.92-39.391 41.787-41.222z" transform="translate(-636 -45)"/>
        </g>
    </g>
</svg>
