<svg xmlns="http://www.w3.org/2000/svg" width="350" height="350" viewBox="0 0 350 350">
    <g fill="none" fill-rule="evenodd">
        <g>
            <g transform="translate(-792.000000, -4619.000000) translate(792.000000, 4619.000000)">
                <circle cx="175" cy="175" r="175" fill="#D1D6DB"/>
                <g stroke="#FFF" stroke-linejoin="round" stroke-width="18">
                    <path d="M345.108 172.552c0 95.3-77.256 172.553-172.553 172.553-95.3 0-172.553-77.253-172.553-172.553C.002 77.255 77.255-.001 172.555-.001c95.297 0 172.553 77.256 172.553 172.553z" transform="translate(1.000000, 2.000000)"/>
                    <path d="M242.314 172.552c0 95.3-31.233 172.553-69.76 172.553-38.528 0-69.76-77.253-69.76-172.553 0-95.297 31.232-172.553 69.76-172.553 38.527 0 69.76 77.256 69.76 172.553zM12.636 107.62L332.991 107.62M12.636 237.485L332.947 237.485" transform="translate(1.000000, 2.000000)"/>
                </g>
            </g>
        </g>
    </g>
</svg>
