<svg xmlns="http://www.w3.org/2000/svg" width="129" height="150" viewBox="0 0 129 150">
    <g fill="none" fill-rule="evenodd">
        <g fill="#1F2229" fill-rule="nonzero">
            <path d="M699.695 1444.208l44.577 133c1.475 4.401 7.588 4.566 9.346.36l.35-.933 3.428-9.246 2.777-7.453 2.748-7.342 2.018-5.367 3.652-9.645 2.319-6.062 2.046-5.285 1.212-3.089.937-2.355.819-2.024.568-1.374.368-.87.429-.986.498-.22.76-.326 1.981-.824 2.472-1 2.919-1.158 4.339-1.695 4.979-1.921 6.315-2.412 5.708-2.165 3.53-1.332 7.252-2.726 12.022-4.492 9.106-3.38c4.426-1.637 4.33-7.931-.145-9.431l-133-44.577c-3.914-1.312-7.642 2.416-6.33 6.33zm12.672 6.342l110.062 36.889-7.9 2.956-7.268 2.732-14.102 5.345-6.645 2.549-3.431 1.335-2.963 1.173-1.934.78-1.698.703-1.245.53-1.097.482-.957.437-.345.164-.479.233-.567.29-.254.136-.346.194-.306.183-.265.172-.156.108-.14.105-.123.1-.108.096-.096.096-.097.108-.1.124-.105.14-.11.155-.113.173-.18.292-.125.216-.131.235-.278.528-.224.447-.32.668-.437.955-.583 1.332-.652 1.546-.6 1.46-1.22 3.05-1.418 3.622-1.632 4.237-2.09 5.479-3.345 8.838-2.175 5.778-2.312 6.168-2.505 6.71-36.885-110.049z" transform="translate(-696.000000, -1415.000000) translate(770.931373, 1509.114505) rotate(64.000000) translate(-770.931373, -1509.114505)"/>
        </g>
    </g>
</svg>
