<svg width="138" height="138" viewBox="0 0 138 138" fill="none" xmlns="http://www.w3.org/2000/svg">
<path fill-rule="evenodd" clip-rule="evenodd" d="M110.795 135.413C111.713 136.332 112.96 136.848 114.258 136.848C115.557 136.848 116.802 136.331 117.72 135.414L135.677 117.446C137.588 115.534 137.588 112.435 135.677 110.524L97.6924 72.5215L125.404 56.5054C127.028 55.5668 127.973 53.7836 127.838 51.9132C127.702 50.0419 126.511 48.4132 124.769 47.7186L7.69756 1.01242C5.87948 0.287483 3.80553 0.713002 2.42168 2.09731C1.03829 3.48025 0.610935 5.55465 1.33542 7.37273L48.02 124.497C48.7142 126.24 50.3434 127.432 52.2147 127.567C54.0859 127.705 55.8696 126.758 56.8078 125.133L72.8129 97.4153L110.795 135.413ZM75.2266 85.9799C74.3017 85.055 73.054 84.5451 71.7642 84.5451C71.5519 84.5451 71.3387 84.5589 71.1255 84.5864C69.6164 84.7849 68.2853 85.674 67.5241 86.9918L53.377 111.493L14.6484 14.3286L111.77 53.0755L87.2722 67.2346C85.9549 67.9962 85.0662 69.3259 84.8677 70.835C84.6691 72.3435 85.1836 73.8581 86.2598 74.9347L125.293 113.984L114.257 125.027L75.2266 85.9799Z" fill="#FF59A3"/>
<path d="M110.795 135.413L111.149 135.06L111.149 135.059L110.795 135.413ZM117.72 135.414L118.074 135.768L118.074 135.767L117.72 135.414ZM135.677 117.446L136.031 117.799L136.031 117.799L135.677 117.446ZM135.677 110.524L135.323 110.877L135.323 110.877L135.677 110.524ZM97.6924 72.5215L97.4422 72.0886L96.8784 72.4144L97.3388 72.875L97.6924 72.5215ZM125.404 56.5054L125.154 56.0725L125.154 56.0725L125.404 56.5054ZM127.838 51.9132L128.336 51.8772L128.336 51.877L127.838 51.9132ZM124.769 47.7186L124.583 48.183L124.584 48.183L124.769 47.7186ZM7.69756 1.01242L7.88283 0.548018L7.88275 0.547984L7.69756 1.01242ZM2.42168 2.09731L2.77518 2.45092L2.77529 2.45081L2.42168 2.09731ZM1.33542 7.37273L0.870936 7.55782L0.870953 7.55786L1.33542 7.37273ZM48.02 124.497L48.4845 124.312L48.4845 124.312L48.02 124.497ZM52.2147 127.567L52.2513 127.069L52.2508 127.069L52.2147 127.567ZM56.8078 125.133L56.3748 124.883L56.3748 124.883L56.8078 125.133ZM72.8129 97.4153L73.1665 97.0618L72.7058 96.6009L72.3799 97.1652L72.8129 97.4153ZM75.2266 85.9799L75.5802 85.6264L75.5801 85.6263L75.2266 85.9799ZM71.1255 84.5864L71.0615 84.0905L71.0602 84.0906L71.1255 84.5864ZM67.5241 86.9918L67.0912 86.7418L67.0911 86.7418L67.5241 86.9918ZM53.377 111.493L52.9126 111.678L53.2944 112.636L53.81 111.743L53.377 111.493ZM14.6484 14.3286L14.8337 13.8642L13.7533 13.4332L14.184 14.5137L14.6484 14.3286ZM111.77 53.0755L112.02 53.5084L112.912 52.9929L111.956 52.6111L111.77 53.0755ZM87.2722 67.2346L87.022 66.8017L87.022 66.8017L87.2722 67.2346ZM84.8677 70.835L85.3634 70.9002V70.9002L84.8677 70.835ZM86.2598 74.9347L85.9062 75.2882L86.2598 74.9347ZM125.293 113.984L125.646 114.338L126 113.984L125.646 113.631L125.293 113.984ZM114.257 125.027L113.904 125.38L114.257 125.734L114.611 125.38L114.257 125.027ZM114.258 136.348C113.092 136.348 111.973 135.884 111.149 135.06L110.442 135.766C111.454 136.779 112.827 137.348 114.258 137.348V136.348ZM117.367 135.06C116.542 135.884 115.424 136.348 114.258 136.348V137.348C115.69 137.348 117.062 136.778 118.074 135.768L117.367 135.06ZM135.324 117.092L117.367 135.06L118.074 135.767L136.031 117.799L135.324 117.092ZM135.323 110.877C137.039 112.594 137.039 115.376 135.324 117.092L136.031 117.799C138.137 115.692 138.137 112.277 136.03 110.17L135.323 110.877ZM97.3388 72.875L135.323 110.877L136.03 110.17L98.046 72.168L97.3388 72.875ZM125.154 56.0725L97.4422 72.0886L97.9426 72.9544L125.654 56.9383L125.154 56.0725ZM127.339 51.9493C127.46 53.6286 126.612 55.2297 125.154 56.0725L125.654 56.9383C127.444 55.9039 128.485 53.9386 128.336 51.8772L127.339 51.9493ZM124.584 48.183C126.147 48.8067 127.217 50.2689 127.339 51.9494L128.336 51.877C128.187 49.815 126.874 48.0198 124.954 47.2541L124.584 48.183ZM7.51228 1.47683L124.583 48.183L124.954 47.2542L7.88283 0.548018L7.51228 1.47683ZM2.77529 2.45081C4.01763 1.20805 5.87963 0.825827 7.51237 1.47686L7.88275 0.547984C5.87932 -0.25086 3.59343 0.21795 2.06807 1.74382L2.77529 2.45081ZM1.7999 7.18764C1.14936 5.55511 1.53314 3.69255 2.77518 2.45092L2.06819 1.7437C0.543438 3.26794 0.0725146 5.55419 0.870936 7.55782L1.7999 7.18764ZM48.4845 124.312L1.79988 7.1876L0.870953 7.55786L47.5555 124.682L48.4845 124.312ZM52.2508 127.069C50.5705 126.947 49.1078 125.876 48.4845 124.312L47.5555 124.682C48.3207 126.603 50.1163 127.917 52.1785 128.066L52.2508 127.069ZM56.3748 124.883C55.5322 126.342 53.9307 127.192 52.2513 127.069L52.178 128.066C54.2411 128.218 56.207 127.173 57.2408 125.383L56.3748 124.883ZM72.3799 97.1652L56.3748 124.883L57.2408 125.383L73.2459 97.6653L72.3799 97.1652ZM111.149 135.059L73.1665 97.0618L72.4592 97.7687L110.442 135.766L111.149 135.059ZM71.7642 85.0451C72.9223 85.0451 74.0425 85.5029 74.873 86.3334L75.5801 85.6263C74.5609 84.6071 73.1858 84.0451 71.7642 84.0451V85.0451ZM71.1894 85.0823C71.3817 85.0574 71.5735 85.0451 71.7642 85.0451V84.0451C71.5303 84.0451 71.2957 84.0603 71.0615 84.0905L71.1894 85.0823ZM67.9571 87.2419C68.6405 86.0587 69.8357 85.2604 71.1907 85.0821L71.0602 84.0906C69.3971 84.3095 67.9301 85.2893 67.0912 86.7418L67.9571 87.2419ZM53.81 111.743L67.9571 87.2419L67.0911 86.7418L52.944 111.243L53.81 111.743ZM14.184 14.5137L52.9126 111.678L53.8415 111.307L15.1129 14.1435L14.184 14.5137ZM111.956 52.6111L14.8337 13.8642L14.4632 14.793L111.585 53.5399L111.956 52.6111ZM87.5224 67.6675L112.02 53.5084L111.52 52.6426L87.022 66.8017L87.5224 67.6675ZM85.3634 70.9002C85.5417 69.5453 86.3395 68.3514 87.5225 67.6674L87.022 66.8017C85.5702 67.641 84.5908 69.1066 84.3719 70.7698L85.3634 70.9002ZM86.6134 74.5812C85.647 73.6144 85.1852 72.2546 85.3634 70.9002L84.3719 70.7697C84.1531 72.4325 84.7202 74.1018 85.9062 75.2882L86.6134 74.5812ZM125.646 113.631L86.6134 74.5812L85.9062 75.2882L124.939 114.338L125.646 113.631ZM114.611 125.38L125.646 114.338L124.939 113.631L113.904 124.673L114.611 125.38ZM74.8729 86.3333L113.904 125.38L114.611 124.673L75.5802 85.6264L74.8729 86.3333Z" fill="#FF59A3"/>
</svg>
