<svg xmlns="http://www.w3.org/2000/svg" width="131" height="156" viewBox="0 0 131 156">
    <path fill="#FF59A3" fill-rule="nonzero" d="M97.55 100.208l31.466 44.647a6.752 6.752 0 0 1-1.635 9.413 6.762 6.762 0 0 1-9.417-1.634L86.67 108.231c-8.663 4.944-18.492 7.59-28.706 7.59C25.949 115.821 0 89.9 0 57.915 0 25.929 25.95 0 57.964 0c32.006 0 57.955 25.93 57.955 57.915 0 16.26-6.748 31.435-18.368 42.293zm4.85-42.293c0-24.523-19.895-44.405-44.436-44.405-24.548 0-44.446 19.88-44.446 44.405 0 24.521 19.896 44.396 44.446 44.396 24.543 0 44.436-19.876 44.436-44.396zm-67.292 0a6.757 6.757 0 0 1-6.76 6.755 6.757 6.757 0 0 1-6.759-6.755c0-20.072 16.285-36.342 36.372-36.342a6.757 6.757 0 0 1 6.76 6.755 6.757 6.757 0 0 1-6.76 6.755c-12.622 0-22.853 10.223-22.853 22.832z"/>
</svg>
