<svg xmlns="http://www.w3.org/2000/svg" width="370" height="360" viewBox="0 0 370 360">
    <g fill="none" fill-rule="evenodd">
        <g fill="#D1D6DB">
            <path d="M1104.644 5254.058l-72.404-17.964-38.256-63.694c-3.712-6.269-15.012-25.339-37.447-25.405-22.27 0-33.703 19.054-37.48 25.322l-38.19 63.777-72.404 17.964c-7.77 1.93-28.457 7.045-34.841 27.698-6.385 20.621 7.72 36.491 12.9 42.298l47.94 57.755c-.017.61-.05 1.369-.133 2.342l-5.971 73.658c-.792 7.902-2.937 28.87 14.385 41.885 6.35 4.767 13.741 7.192 21.957 7.192 9.799 0 18.344-3.464 22.98-5.344l67.52-28.193c.594-.1 2.162-.083 2.046-.198l67.983 28.325c7.588 3.068 27.78 11.234 45.118-1.782s15.194-33.983 14.385-41.753l-5.971-73.905c-.066-.908-.116-1.633-.116-2.227l47.807-57.607c5.312-5.955 19.417-21.808 13.033-42.462-6.384-20.621-27.055-25.751-34.841-27.682" transform="translate(-772.000000, -5147.000000)"/>
        </g>
    </g>
</svg>
