<svg width="366" height="366" viewBox="0 0 366 366" fill="none" xmlns="http://www.w3.org/2000/svg">
<mask id="mask0_412_144" style="mask-type:alpha" maskUnits="userSpaceOnUse" x="0" y="0" width="366" height="366">
<path fill-rule="evenodd" clip-rule="evenodd" d="M0 0H365.736V365.729H0V0Z" fill="white"/>
</mask>
<g mask="url(#mask0_412_144)">
<path fill-rule="evenodd" clip-rule="evenodd" d="M194.793 313.45V289.499C244.467 283.98 283.98 244.379 289.514 194.72H313.45C307.755 257.54 257.628 307.755 194.793 313.45ZM182.876 242.505C176.274 242.505 170.945 247.834 170.945 254.422V265.402C134.462 260.146 105.592 231.276 100.336 194.793H111.316C117.904 194.793 123.233 189.45 123.233 182.876C123.233 176.274 117.904 170.945 111.316 170.945H100.336C105.592 134.462 134.462 105.592 170.945 100.336V111.301C170.945 117.904 176.274 123.233 182.876 123.233C189.464 123.233 194.793 117.904 194.793 111.301V100.336C231.276 105.592 260.146 134.462 265.402 170.945H254.422C247.834 170.945 242.505 176.274 242.505 182.876C242.505 189.45 247.834 194.72 254.422 194.72H265.402C260.146 231.188 231.276 260.146 194.793 265.402V254.422C194.793 247.834 189.464 242.505 182.876 242.505ZM170.944 313.45C108.109 307.755 57.9821 257.628 52.2871 194.793H76.2382C81.7574 244.466 121.285 283.98 170.944 289.499V313.45ZM170.944 52.2871V76.2382C121.285 81.7574 81.7574 121.285 76.2382 170.944H52.2871C57.9821 108.109 108.109 57.9821 170.944 52.2871ZM194.793 52.2871C257.628 57.9821 307.755 108.109 313.45 170.944H289.514C283.98 121.285 244.466 81.7574 194.793 76.2382V52.2871ZM353.813 170.944H337.299C331.487 94.9775 270.76 34.2508 194.793 28.424V11.9248C194.793 5.33676 189.464 -0.00683594 182.876 -0.00683594C176.273 -0.00683594 170.944 5.33676 170.944 11.9248V28.4387C94.9775 34.2508 34.2508 94.9775 28.4387 170.944H11.9248C5.3514 170.944 -0.00683594 176.273 -0.00683594 182.876C-0.00683594 189.449 5.3514 194.793 11.9248 194.793H28.4387C34.2508 270.76 94.9775 331.472 170.944 337.299V353.813C170.944 360.401 176.273 365.73 182.876 365.73C189.464 365.73 194.793 360.401 194.793 353.813V337.299C270.76 331.472 331.487 270.76 337.299 194.793H353.813C360.401 194.793 365.744 189.449 365.744 182.876C365.744 176.273 360.401 170.944 353.813 170.944Z" fill="#D1D6DB"/>
</g>
</svg>
