<svg width="668" height="312" xmlns="http://www.w3.org/2000/svg"><g fill-rule="nonzero" fill="none"><path d="M23.624 79.165V65.339h14.16c6.468 0 11.485-4.349 11.485-10.035 0-8.251-6.133-10.593-12.488-10.593H23.624v-12.71h10.815c8.586 0 12.042-3.457 12.042-9.478 0-6.467-5.24-7.805-9.7-7.805H23.624V1.115h15.387c13.603 0 23.972 6.913 23.972 19.959 0 8.585-4.236 13.826-10.258 16.278v.335c7.248 1.561 12.935 9.812 12.935 18.732 0 13.938-9.924 22.746-26.203 22.746H23.624zm-3.345-78.05v78.05H4V1.115h16.279zm73.032 5.129 7.805 22.3-8.028 25.868h17.172l4.571 12.934h-25.98l-3.79 11.819H69.004L93.311 6.244zm1.673-5.129h16.948l27.54 78.05h-16.948l-27.54-78.05zm78.273 63.555v14.495h-25.98V1.115h16.28V64.67h9.7zm42.37 14.495V64.67h9.7V1.115h16.28v78.05h-25.98zm-3.345-14.495v14.495h-35.68V64.67h9.7V1.115h16.28V64.67h9.7zm105.144-49.06V1.115h18.51V15.61h-18.51zm-22.969 0H275.95V1.115h18.508V15.61zm3.346-14.495h16.279v78.05h-16.28V1.115zm56.865 5.129 7.805 22.3-8.029 25.868h17.171l4.572 12.934h-25.98l-3.79 11.819H330.36l24.307-72.921zm1.672-5.129h16.948l27.54 78.05h-16.947L356.34 1.115zm68.573 0v78.05h-16.28V1.115h16.28zm3.344 52.182V39.806h9.255c6.69 0 13.157-3.122 13.157-13.269 0-7.694-5.017-11.93-13.157-11.93h-9.255V1.114h10.481c20.517 0 28.21 12.488 28.21 25.422 0 15.164-8.585 26.76-27.652 26.76h-11.038zm65.005-52.182v78.05h-16.279V1.115h16.279zm30.44 0h16.279v78.05H523.7V1.115zm-3.346 32.447L496.607 73.59V46.941l23.75-40.14v26.76zm61.995 47.833V0h16.279v81.395h-16.28zm-3.346-25.087v15.275c-15.275-2.676-28.99-12.822-28.99-31.22 0-20.293 14.942-29.325 28.99-31.666V23.75c-7.804 2.564-12.042 8.808-12.042 16.279 0 8.139 4.46 13.937 12.043 16.278zm22.97 15.275V56.085c7.358-2.23 12.153-7.806 12.153-16.056 0-7.917-4.349-13.827-12.154-16.28V8.698c13.715 2.342 28.99 10.816 28.99 31.555 0 19.846-14.049 28.99-28.99 31.331z" fill="#FFF"/><path d="m4 123.37 15.387 41.143v27.652H4V123.37zm46.273 64-7.583-20.293 19.402-52.962h15.386L50.273 187.37zm-30.886-73.255 29.102 78.05H33.213L4 114.115h15.387zm42.705 50.733 15.386-41.479v68.796H62.093v-27.317zm64.224-37.688v-15.052c14.829.669 35.457 10.146 35.457 41.032 0 28.321-18.286 40.363-35.457 41.032v-15.053c9.142-.78 18.508-8.474 18.508-25.979 0-18.955-10.48-25.199-18.509-25.98zm-3.346-15.052v15.052c-8.362.781-18.508 7.36-18.508 25.98 0 17.06 9.142 25.088 18.508 25.98v15.052c-17.617-.78-35.457-13.492-35.457-41.032 0-30.105 19.959-40.363 35.457-41.032zm142.609 2.007-27.987 35.234 28.879 42.816h-19.624l-22.077-34.23v-14.83l21.854-28.99h18.955zm-44.154 0v78.05h-16.279v-78.05h16.279zm-32.447 35.234-27.986-35.234h18.955l21.854 28.99v14.83l-22.077 34.23H160.1l28.879-42.816zm105.48-20.739v-14.495h33.338v14.495h-33.339zm0 30.885v-14.16h31.554v14.16h-31.555zm0 32.67V177.67h34.787v14.495h-34.788zm-3.346-78.05v78.05h-16.279v-78.05h16.28zm86.301 14.495v-14.495h18.51v14.495h-18.51zm-22.969 0h-18.509v-14.495h18.51v14.495zm3.345-14.495h16.28v78.05h-16.28v-78.05zm92.1 14.495v-14.495h33.338v14.495h-33.338zm0 30.885v-14.16h31.554v14.16h-31.554zm0 32.67V177.67h34.787v14.495H449.89zm-3.346-78.05v78.05h-16.279v-78.05h16.28zm117.633 78.05V177.67h9.7v-63.555h16.28v63.555h10.592v33.45h-16.279v-18.955h-20.293zm-3.345-14.495v14.495h-35.68V177.67h9.7v-63.555h16.28v63.555h9.7zm-39.025 0v14.495h-25.98v-78.05h16.28v63.555h9.7zm107.486-49.06v-14.495h33.338v14.495h-33.338zm0 30.885v-14.16h31.554v14.16h-31.554zm0 32.67V177.67h34.788v14.495h-34.788zm-3.345-78.05v78.05h-16.279v-78.05h16.279zM20.279 305.165H4v-78.05h16.279v78.05zm3.345 0V290.67h10.481c8.14 0 13.157-4.237 13.157-11.93 0-10.147-6.467-11.82-13.157-11.82H23.624v-13.157h12.154c19.066 0 26.537 10.035 26.537 24.977 0 12.599-6.579 26.425-27.095 26.425H23.624zm0-78.05h31.777v14.495H23.624v-14.495zm84.183 13.046v-15.053c14.829.669 35.456 10.147 35.456 41.032 0 28.321-18.285 40.363-35.457 41.032v-15.053c9.144-.78 18.51-8.474 18.51-25.979 0-18.955-10.481-25.199-18.51-25.98zm-3.346-15.053v15.053c-8.362.78-18.508 7.358-18.508 25.979 0 17.06 9.142 25.088 18.508 25.98v15.052c-17.617-.78-35.457-13.492-35.457-41.032 0-30.105 19.959-40.363 35.457-41.032zm80.28 2.007v14.495h-9.477V258c0 20.293-1.338 29.771-6.467 37.019-4.349 6.132-10.815 10.146-22.189 10.146V290.67c12.377 0 12.377-10.593 12.377-34.454v-29.101h25.756zm3.457 14.495v-14.495h25.868v78.05h-16.279V241.61h-9.589zm55.527 63.555h-16.279v-78.05h16.279v78.05zm3.345-39.805v-13.38h12.154c19.066 0 26.536 11.819 26.536 26.76 0 12.599-6.578 26.425-27.094 26.425H247.07V290.67h10.481c8.14 0 13.157-4.237 13.157-11.93 0-10.147-6.467-13.38-13.157-13.38H247.07zm74.705 25.31v14.495h-25.98v-78.05h16.28v63.555h9.7zm42.37 14.495V290.67h9.7v-63.555h16.28v78.05h-25.98zM360.8 290.67v14.495h-35.68V290.67h9.7v-63.555h16.28v63.555h9.7zm62.328-49.06v-14.495h33.339v14.495h-33.339zm0 30.885v-14.16h31.555v14.16h-31.555zm0 32.67V290.67h34.788v14.495h-34.788zm-3.344-78.05v78.05h-16.28v-78.05h16.28z" fill="#FF59A3"/></g></svg>