<?xml version="1.0" encoding="UTF-8"?>
<svg width="280px" height="243px" viewBox="0 0 280 243" version="1.1" xmlns="http://www.w3.org/2000/svg" xmlns:xlink="http://www.w3.org/1999/xlink">
    <!-- Generator: Sketch 53.2 (72643) - https://sketchapp.com -->
    <title>Text_mobile</title>
    <desc>Created with Sketch.</desc>
    <g id="Text_mobile" stroke="none" stroke-width="1" fill="none" fill-rule="evenodd">
        <g id="ваш-тариф-может-боль" transform="translate(1.360000, 1.400000)" fill-rule="nonzero">
            <path d="M14.688,47.6 L14.688,39.168 L23.324,39.168 C27.268,39.168 30.328,36.516 30.328,33.048 C30.328,28.016 26.588,26.588 22.712,26.588 L14.688,26.588 L14.688,18.836 L21.284,18.836 C26.52,18.836 28.628,16.728 28.628,13.056 C28.628,9.112 25.432,8.296 22.712,8.296 L14.688,8.296 L14.688,1.42108547e-14 L24.072,1.42108547e-14 C32.368,1.42108547e-14 38.692,4.216 38.692,12.172 C38.692,17.408 36.108,20.604 32.436,22.1 L32.436,22.304 C36.856,23.256 40.324,28.288 40.324,33.728 C40.324,42.228 34.272,47.6 24.344,47.6 L14.688,47.6 Z M12.648,1.42108547e-14 L12.648,47.6 L2.72,47.6 L2.72,1.42108547e-14 L12.648,1.42108547e-14 Z M57.188,3.128 L61.948,16.728 L57.052,32.504 L67.524,32.504 L70.312,40.392 L54.468,40.392 L52.156,47.6 L42.364,47.6 L57.188,3.128 Z M58.208,1.42108547e-14 L68.544,1.42108547e-14 L85.34,47.6 L75.004,47.6 L58.208,1.42108547e-14 Z M105.944,38.76 L105.944,47.6 L90.1,47.6 L90.1,1.42108547e-14 L100.028,1.42108547e-14 L100.028,38.76 L105.944,38.76 Z M131.784,47.6 L131.784,38.76 L137.7,38.76 L137.7,1.42108547e-14 L147.628,1.42108547e-14 L147.628,47.6 L131.784,47.6 Z M129.744,38.76 L129.744,47.6 L107.984,47.6 L107.984,38.76 L113.9,38.76 L113.9,1.42108547e-14 L123.828,1.42108547e-14 L123.828,38.76 L129.744,38.76 Z M25.296,72.84 L25.296,64 L36.584,64 L36.584,72.84 L25.296,72.84 Z M11.288,72.84 L8.52651283e-14,72.84 L8.52651283e-14,64 L11.288,64 L11.288,72.84 Z M13.328,64 L23.256,64 L23.256,111.6 L13.328,111.6 L13.328,64 Z M48.008,67.128 L52.768,80.728 L47.872,96.504 L58.344,96.504 L61.132,104.392 L45.288,104.392 L42.976,111.6 L33.184,111.6 L48.008,67.128 Z M49.028,64 L59.364,64 L76.16,111.6 L65.824,111.6 L49.028,64 Z M90.848,64 L90.848,111.6 L80.92,111.6 L80.92,64 L90.848,64 Z M92.888,95.824 L92.888,87.596 L98.532,87.596 C102.612,87.596 106.556,85.692 106.556,79.504 C106.556,74.812 103.496,72.228 98.532,72.228 L92.888,72.228 L92.888,64 L99.28,64 C111.792,64 116.484,71.616 116.484,79.504 C116.484,88.752 111.248,95.824 99.62,95.824 L92.888,95.824 Z M132.532,64 L132.532,111.6 L122.604,111.6 L122.604,64 L132.532,64 Z M151.096,64 L161.024,64 L161.024,111.6 L151.096,111.6 L151.096,64 Z M149.056,83.788 L134.572,108.2 L134.572,91.948 L149.056,67.468 L149.056,83.788 Z M186.864,112.96 L186.864,63.32 L196.792,63.32 L196.792,112.96 L186.864,112.96 Z M184.824,97.66 L184.824,106.976 C175.508,105.344 167.144,99.156 167.144,87.936 C167.144,75.56 176.256,70.052 184.824,68.624 L184.824,77.804 C180.064,79.368 177.48,83.176 177.48,87.732 C177.48,92.696 180.2,96.232 184.824,97.66 Z M198.832,106.976 L198.832,97.524 C203.32,96.164 206.244,92.764 206.244,87.732 C206.244,82.904 203.592,79.3 198.832,77.804 L198.832,68.624 C207.196,70.052 216.512,75.22 216.512,87.868 C216.512,99.972 207.944,105.548 198.832,106.976 Z" id="ВАШТАРИФ" fill="#FFFFFF"></path>
            <path d="M2.72,133.644 L12.104,158.736 L12.104,175.6 L2.72,175.6 L2.72,133.644 Z M30.94,172.676 L26.316,160.3 L38.148,128 L47.532,128 L30.94,172.676 Z M12.104,128 L29.852,175.6 L20.536,175.6 L2.72,128 L12.104,128 Z M38.148,158.94 L47.532,133.644 L47.532,175.6 L38.148,175.6 L38.148,158.94 Z M77.316,135.956 L77.316,126.776 C86.36,127.184 98.94,132.964 98.94,151.8 C98.94,169.072 87.788,176.416 77.316,176.824 L77.316,167.644 C82.892,167.168 88.604,162.476 88.604,151.8 C88.604,140.24 82.212,136.432 77.316,135.956 Z M75.276,126.776 L75.276,135.956 C70.176,136.432 63.988,140.444 63.988,151.8 C63.988,162.204 69.564,167.1 75.276,167.644 L75.276,176.824 C64.532,176.348 53.652,168.596 53.652,151.8 C53.652,133.44 65.824,127.184 75.276,126.776 Z M162.248,128 L145.18,149.488 L162.792,175.6 L150.824,175.6 L137.36,154.724 L137.36,145.68 L150.688,128 L162.248,128 Z M135.32,128 L135.32,175.6 L125.392,175.6 L125.392,128 L135.32,128 Z M115.532,149.488 L98.464,128 L110.024,128 L123.352,145.68 L123.352,154.724 L109.888,175.6 L97.92,175.6 L115.532,149.488 Z M179.86,136.84 L179.86,128 L200.192,128 L200.192,136.84 L179.86,136.84 Z M179.86,155.676 L179.86,147.04 L199.104,147.04 L199.104,155.676 L179.86,155.676 Z M179.86,175.6 L179.86,166.76 L201.076,166.76 L201.076,175.6 L179.86,175.6 Z M177.82,128 L177.82,175.6 L167.892,175.6 L167.892,128 L177.82,128 Z M230.452,136.84 L230.452,128 L241.74,128 L241.74,136.84 L230.452,136.84 Z M216.444,136.84 L205.156,136.84 L205.156,128 L216.444,128 L216.444,136.84 Z M218.484,128 L228.412,128 L228.412,175.6 L218.484,175.6 L218.484,128 Z M12.648,239.6 L2.72,239.6 L2.72,192 L12.648,192 L12.648,239.6 Z M14.688,239.6 L14.688,230.76 L21.08,230.76 C26.044,230.76 29.104,228.176 29.104,223.484 C29.104,217.296 25.16,216.276 21.08,216.276 L14.688,216.276 L14.688,208.252 L22.1,208.252 C33.728,208.252 38.284,214.372 38.284,223.484 C38.284,231.168 34.272,239.6 21.76,239.6 L14.688,239.6 Z M14.688,192 L34.068,192 L34.068,200.84 L14.688,200.84 L14.688,192 Z M66.028,199.956 L66.028,190.776 C75.072,191.184 87.652,196.964 87.652,215.8 C87.652,233.072 76.5,240.416 66.028,240.824 L66.028,231.644 C71.604,231.168 77.316,226.476 77.316,215.8 C77.316,204.24 70.924,200.432 66.028,199.956 Z M63.988,190.776 L63.988,199.956 C58.888,200.432 52.7,204.444 52.7,215.8 C52.7,226.204 58.276,231.1 63.988,231.644 L63.988,240.824 C53.244,240.348 42.364,232.596 42.364,215.8 C42.364,197.44 54.536,191.184 63.988,190.776 Z M112.948,192 L112.948,200.84 L107.168,200.84 L107.168,210.836 C107.168,223.212 106.352,228.992 103.224,233.412 C100.572,237.152 96.628,239.6 89.692,239.6 L89.692,230.76 C97.24,230.76 97.24,224.3 97.24,209.748 L97.24,192 L112.948,192 Z M115.056,200.84 L115.056,192 L130.832,192 L130.832,239.6 L120.904,239.6 L120.904,200.84 L115.056,200.84 Z M148.92,239.6 L138.992,239.6 L138.992,192 L148.92,192 L148.92,239.6 Z M150.96,215.324 L150.96,207.164 L158.372,207.164 C170,207.164 174.556,214.372 174.556,223.484 C174.556,231.168 170.544,239.6 158.032,239.6 L150.96,239.6 L150.96,230.76 L157.352,230.76 C162.316,230.76 165.376,228.176 165.376,223.484 C165.376,217.296 161.432,215.324 157.352,215.324 L150.96,215.324 Z M196.52,230.76 L196.52,239.6 L180.676,239.6 L180.676,192 L190.604,192 L190.604,230.76 L196.52,230.76 Z M222.36,239.6 L222.36,230.76 L228.276,230.76 L228.276,192 L238.204,192 L238.204,239.6 L222.36,239.6 Z M220.32,230.76 L220.32,239.6 L198.56,239.6 L198.56,230.76 L204.476,230.76 L204.476,192 L214.404,192 L214.404,230.76 L220.32,230.76 Z M258.332,200.84 L258.332,192 L278.664,192 L278.664,200.84 L258.332,200.84 Z M258.332,219.676 L258.332,211.04 L277.576,211.04 L277.576,219.676 L258.332,219.676 Z M258.332,239.6 L258.332,230.76 L279.548,230.76 L279.548,239.6 L258.332,239.6 Z M256.292,192 L256.292,239.6 L246.364,239.6 L246.364,192 L256.292,192 Z" id="МОЖЕТБОЛЬШЕ" fill="#FF59A3"></path>
        </g>
    </g>
</svg>