<svg width="280" height="243" xmlns="http://www.w3.org/2000/svg"><g fill-rule="nonzero" fill="none"><path d="M16.048 49v-8.432h8.636c3.944 0 7.004-2.652 7.004-6.12 0-5.032-3.74-6.46-7.616-6.46h-8.024v-7.752h6.596c5.236 0 7.344-2.108 7.344-5.78 0-3.944-3.196-4.76-5.916-4.76h-8.024V1.4h9.384c8.296 0 14.62 4.216 14.62 12.172 0 5.236-2.584 8.432-6.256 9.928v.204c4.42.952 7.888 5.984 7.888 11.424 0 8.5-6.052 13.872-15.98 13.872h-9.656zm-2.04-47.6V49H4.08V1.4h9.928zm44.54 3.128 4.76 13.6-4.896 15.776h10.472l2.788 7.888H55.828L53.516 49h-9.792L58.548 4.528zm1.02-3.128h10.336L86.7 49H76.364L59.568 1.4zm47.736 38.76V49H91.46V1.4h9.928v38.76h5.916zm25.84 8.84v-8.84h5.916V1.4h9.928V49h-15.844zm-2.04-8.84V49h-21.76v-8.84h5.916V1.4h9.928v38.76h5.916zM26.656 74.24V65.4h11.288v8.84H26.656zm-14.008 0H1.36V65.4h11.288v8.84zm2.04-8.84h9.928V113h-9.928V65.4zm34.68 3.128 4.76 13.6-4.896 15.776h10.472l2.788 7.888H46.648L44.336 113h-9.792l14.824-44.472zm1.02-3.128h10.336L77.52 113H67.184L50.388 65.4zm41.82 0V113H82.28V65.4h9.928zm2.04 31.824v-8.228h5.644c4.08 0 8.024-1.904 8.024-8.092 0-4.692-3.06-7.276-8.024-7.276h-5.644V65.4h6.392c12.512 0 17.204 7.616 17.204 15.504 0 9.248-5.236 16.32-16.864 16.32h-6.732zM133.892 65.4V113h-9.928V65.4h9.928zm18.564 0h9.928V113h-9.928V65.4zm-2.04 19.788L135.932 109.6V93.348l14.484-24.48v16.32zm37.808 29.172V64.72h9.928v49.64h-9.928zm-2.04-15.3v9.316c-9.316-1.632-17.68-7.82-17.68-19.04 0-12.376 9.112-17.884 17.68-19.312v9.18c-4.76 1.564-7.344 5.372-7.344 9.928 0 4.964 2.72 8.5 7.344 9.928zm14.008 9.316v-9.452c4.488-1.36 7.412-4.76 7.412-9.792 0-4.828-2.652-8.432-7.412-9.928v-9.18c8.364 1.428 17.68 6.596 17.68 19.244 0 12.104-8.568 17.68-17.68 19.108z" fill="#FFF"/><path d="m4.08 135.044 9.384 25.092V177H4.08v-41.956zm28.22 39.032L27.676 161.7l11.832-32.3h9.384L32.3 174.076zM13.464 129.4 31.212 177h-9.316L4.08 129.4h9.384zm26.044 30.94 9.384-25.296V177h-9.384v-16.66zm39.168-22.984v-9.18c9.044.408 21.624 6.188 21.624 25.024 0 17.272-11.152 24.616-21.624 25.024v-9.18c5.576-.476 11.288-5.168 11.288-15.844 0-11.56-6.392-15.368-11.288-15.844zm-2.04-9.18v9.18c-5.1.476-11.288 4.488-11.288 15.844 0 10.404 5.576 15.3 11.288 15.844v9.18c-10.744-.476-21.624-8.228-21.624-25.024 0-18.36 12.172-24.616 21.624-25.024zm86.972 1.224-17.068 21.488L164.152 177h-11.968l-13.464-20.876v-9.044l13.328-17.68h11.56zm-26.928 0V177h-9.928v-47.6h9.928zm-19.788 21.488L99.824 129.4h11.56l13.328 17.68v9.044L111.248 177H99.28l17.612-26.112zm64.328-12.648v-8.84h20.332v8.84H181.22zm0 18.836v-8.636h19.244v8.636H181.22zm0 19.924v-8.84h21.216V177H181.22zm-2.04-47.6V177h-9.928v-47.6h9.928zm52.632 8.84v-8.84H243.1v8.84h-11.288zm-14.008 0h-11.288v-8.84h11.288v8.84zm2.04-8.84h9.928V177h-9.928v-47.6zM14.008 241H4.08v-47.6h9.928V241zm2.04 0v-8.84h6.392c4.964 0 8.024-2.584 8.024-7.276 0-6.188-3.944-7.208-8.024-7.208h-6.392v-8.024h7.412c11.628 0 16.184 6.12 16.184 15.232 0 7.684-4.012 16.116-16.524 16.116h-7.072zm0-47.6h19.38v8.84h-19.38v-8.84zm51.34 7.956v-9.18c9.044.408 21.624 6.188 21.624 25.024 0 17.272-11.152 24.616-21.624 25.024v-9.18c5.576-.476 11.288-5.168 11.288-15.844 0-11.56-6.392-15.368-11.288-15.844zm-2.04-9.18v9.18c-5.1.476-11.288 4.488-11.288 15.844 0 10.404 5.576 15.3 11.288 15.844v9.18c-10.744-.476-21.624-8.228-21.624-25.024 0-18.36 12.172-24.616 21.624-25.024zm48.96 1.224v8.84h-5.78v9.996c0 12.376-.816 18.156-3.944 22.576-2.652 3.74-6.596 6.188-13.532 6.188v-8.84c7.548 0 7.548-6.46 7.548-21.012V193.4h15.708zm2.108 8.84v-8.84h15.776V241h-9.928v-38.76h-5.848zM150.28 241h-9.928v-47.6h9.928V241zm2.04-24.276v-8.16h7.412c11.628 0 16.184 7.208 16.184 16.32 0 7.684-4.012 16.116-16.524 16.116h-7.072v-8.84h6.392c4.964 0 8.024-2.584 8.024-7.276 0-6.188-3.944-8.16-8.024-8.16h-6.392zm45.56 15.436V241h-15.844v-47.6h9.928v38.76h5.916zm25.84 8.84v-8.84h5.916V193.4h9.928V241H223.72zm-2.04-8.84V241h-21.76v-8.84h5.916V193.4h9.928v38.76h5.916zm38.012-29.92v-8.84h20.332v8.84h-20.332zm0 18.836v-8.636h19.244v8.636h-19.244zm0 19.924v-8.84h21.216V241h-21.216zm-2.04-47.6V241h-9.928v-47.6h9.928z" fill="#FF59A3"/></g></svg>