<?xml version="1.0" encoding="UTF-8"?>
<svg width="668px" height="312px" viewBox="0 0 668 312" version="1.1" xmlns="http://www.w3.org/2000/svg" xmlns:xlink="http://www.w3.org/1999/xlink">
    <!-- Generator: Sketch 53.2 (72643) - https://sketchapp.com -->
    <title>Text_desktop</title>
    <desc>Created with Sketch.</desc>
    <g id="Text_desktop" stroke="none" stroke-width="1" fill="none" fill-rule="evenodd">
        <g id="ваш-тариф-может-еще" transform="translate(4.000000, 0.000000)" fill-rule="nonzero">
            <path d="M19.624,79.165 L19.624,65.339 L33.7845,65.339 C40.2515,65.339 45.269,60.9905 45.269,55.304 C45.269,47.053 39.1365,44.7115 32.781,44.7115 L19.624,44.7115 L19.624,32.0005 L30.4395,32.0005 C39.025,32.0005 42.4815,28.544 42.4815,22.523 C42.4815,16.056 37.241,14.718 32.781,14.718 L19.624,14.718 L19.624,1.115 L35.011,1.115 C48.614,1.115 58.9835,8.028 58.9835,21.0735 C58.9835,29.659 54.7465,34.8995 48.7255,37.3525 L48.7255,37.687 C55.973,39.248 61.6595,47.499 61.6595,56.419 C61.6595,70.3565 51.736,79.165 35.457,79.165 L19.624,79.165 Z M16.279,1.115 L16.279,79.165 L5.68434189e-14,79.165 L5.68434189e-14,1.115 L16.279,1.115 Z M89.3115,6.244 L97.1165,28.544 L89.0885,54.412 L106.2595,54.412 L110.831,67.346 L84.8515,67.346 L81.0605,79.165 L65.0045,79.165 L89.3115,6.244 Z M90.984,1.115 L107.932,1.115 L135.4725,79.165 L118.5245,79.165 L90.984,1.115 Z M169.257,64.67 L169.257,79.165 L143.2775,79.165 L143.2775,1.115 L159.5565,1.115 L159.5565,64.67 L169.257,64.67 Z M211.627,79.165 L211.627,64.67 L221.3275,64.67 L221.3275,1.115 L237.6065,1.115 L237.6065,79.165 L211.627,79.165 Z M208.282,64.67 L208.282,79.165 L172.602,79.165 L172.602,64.67 L182.3025,64.67 L182.3025,1.115 L198.5815,1.115 L198.5815,64.67 L208.282,64.67 Z M313.4265,15.61 L313.4265,1.115 L331.9355,1.115 L331.9355,15.61 L313.4265,15.61 Z M290.4575,15.61 L271.9485,15.61 L271.9485,1.115 L290.4575,1.115 L290.4575,15.61 Z M293.8025,1.115 L310.0815,1.115 L310.0815,79.165 L293.8025,79.165 L293.8025,1.115 Z M350.6675,6.244 L358.4725,28.544 L350.4445,54.412 L367.6155,54.412 L372.187,67.346 L346.2075,67.346 L342.4165,79.165 L326.3605,79.165 L350.6675,6.244 Z M352.34,1.115 L369.288,1.115 L396.8285,79.165 L379.8805,79.165 L352.34,1.115 Z M420.9125,1.115 L420.9125,79.165 L404.6335,79.165 L404.6335,1.115 L420.9125,1.115 Z M424.2575,53.297 L424.2575,39.8055 L433.512,39.8055 C440.202,39.8055 446.669,36.6835 446.669,26.537 C446.669,18.8435 441.6515,14.6065 433.512,14.6065 L424.2575,14.6065 L424.2575,1.115 L434.7385,1.115 C455.2545,1.115 462.948,13.603 462.948,26.537 C462.948,41.701 454.3625,53.297 435.296,53.297 L424.2575,53.297 Z M489.262,1.115 L489.262,79.165 L472.983,79.165 L472.983,1.115 L489.262,1.115 Z M519.7015,1.115 L535.9805,1.115 L535.9805,79.165 L519.7015,79.165 L519.7015,1.115 Z M516.3565,33.5615 L492.607,73.59 L492.607,46.9415 L516.3565,6.8015 L516.3565,33.5615 Z M578.3505,81.395 L578.3505,-2.84217094e-14 L594.6295,-2.84217094e-14 L594.6295,81.395 L578.3505,81.395 Z M575.0055,56.3075 L575.0055,71.583 C559.73,68.907 546.0155,58.7605 546.0155,40.363 C546.0155,20.07 560.9565,11.0385 575.0055,8.697 L575.0055,23.7495 C567.2005,26.314 562.9635,32.558 562.9635,40.0285 C562.9635,48.168 567.4235,53.966 575.0055,56.3075 Z M597.9745,71.583 L597.9745,56.0845 C605.3335,53.8545 610.128,48.2795 610.128,40.0285 C610.128,32.112 605.7795,26.2025 597.9745,23.7495 L597.9745,8.697 C611.689,11.0385 626.9645,19.5125 626.9645,40.2515 C626.9645,60.0985 612.9155,69.2415 597.9745,71.583 Z" id="ВАШТАРИФ" fill="#FFFFFF"></path>
            <path d="M-5.68434189e-14,123.3695 L15.387,164.513 L15.387,192.165 L-5.68434189e-14,192.165 L-5.68434189e-14,123.3695 Z M46.2725,187.3705 L38.6905,167.0775 L58.0915,114.115 L73.4785,114.115 L46.2725,187.3705 Z M15.387,114.115 L44.4885,192.165 L29.213,192.165 L-5.68434189e-14,114.115 L15.387,114.115 Z M58.0915,164.8475 L73.4785,123.3695 L73.4785,192.165 L58.0915,192.165 L58.0915,164.8475 Z M122.3155,127.1605 L122.3155,112.108 C137.145,112.777 157.7725,122.2545 157.7725,153.14 C157.7725,181.461 139.4865,193.503 122.3155,194.172 L122.3155,179.1195 C131.4585,178.339 140.8245,170.6455 140.8245,153.14 C140.8245,134.185 130.3435,127.941 122.3155,127.1605 Z M118.9705,112.108 L118.9705,127.1605 C110.608,127.941 100.4615,134.5195 100.4615,153.14 C100.4615,170.1995 109.6045,178.2275 118.9705,179.1195 L118.9705,194.172 C101.3535,193.3915 83.5135,180.6805 83.5135,153.14 C83.5135,123.035 103.472,112.777 118.9705,112.108 Z M261.579,114.115 L233.5925,149.349 L262.471,192.165 L242.847,192.165 L220.77,157.9345 L220.77,143.105 L242.624,114.115 L261.579,114.115 Z M217.425,114.115 L217.425,192.165 L201.146,192.165 L201.146,114.115 L217.425,114.115 Z M184.9785,149.349 L156.992,114.115 L175.947,114.115 L197.801,143.105 L197.801,157.9345 L175.724,192.165 L156.1,192.165 L184.9785,149.349 Z M290.4575,128.61 L290.4575,114.115 L323.796,114.115 L323.796,128.61 L290.4575,128.61 Z M290.4575,159.4955 L290.4575,145.335 L322.012,145.335 L322.012,159.4955 L290.4575,159.4955 Z M290.4575,192.165 L290.4575,177.67 L325.2455,177.67 L325.2455,192.165 L290.4575,192.165 Z M287.1125,114.115 L287.1125,192.165 L270.8335,192.165 L270.8335,114.115 L287.1125,114.115 Z M373.4135,128.61 L373.4135,114.115 L391.9225,114.115 L391.9225,128.61 L373.4135,128.61 Z M350.4445,128.61 L331.9355,128.61 L331.9355,114.115 L350.4445,114.115 L350.4445,128.61 Z M353.7895,114.115 L370.0685,114.115 L370.0685,192.165 L353.7895,192.165 L353.7895,114.115 Z M445.8885,128.61 L445.8885,114.115 L479.227,114.115 L479.227,128.61 L445.8885,128.61 Z M445.8885,159.4955 L445.8885,145.335 L477.443,145.335 L477.443,159.4955 L445.8885,159.4955 Z M445.8885,192.165 L445.8885,177.67 L480.6765,177.67 L480.6765,192.165 L445.8885,192.165 Z M442.5435,114.115 L442.5435,192.165 L426.2645,192.165 L426.2645,114.115 L442.5435,114.115 Z M560.176,192.165 L560.176,177.67 L569.8765,177.67 L569.8765,114.115 L586.1555,114.115 L586.1555,177.67 L596.748,177.67 L596.748,211.12 L580.469,211.12 L580.469,192.165 L560.176,192.165 Z M556.831,177.67 L556.831,192.165 L521.151,192.165 L521.151,177.67 L530.8515,177.67 L530.8515,114.115 L547.1305,114.115 L547.1305,177.67 L556.831,177.67 Z M517.806,177.67 L517.806,192.165 L491.8265,192.165 L491.8265,114.115 L508.1055,114.115 L508.1055,177.67 L517.806,177.67 Z M625.292,128.61 L625.292,114.115 L658.6305,114.115 L658.6305,128.61 L625.292,128.61 Z M625.292,159.4955 L625.292,145.335 L656.8465,145.335 L656.8465,159.4955 L625.292,159.4955 Z M625.292,192.165 L625.292,177.67 L660.08,177.67 L660.08,192.165 L625.292,192.165 Z M621.947,114.115 L621.947,192.165 L605.668,192.165 L605.668,114.115 L621.947,114.115 Z M16.279,305.165 L-5.68434189e-14,305.165 L-5.68434189e-14,227.115 L16.279,227.115 L16.279,305.165 Z M19.624,305.165 L19.624,290.67 L30.105,290.67 C38.2445,290.67 43.262,286.433 43.262,278.7395 C43.262,268.593 36.795,266.9205 30.105,266.9205 L19.624,266.9205 L19.624,253.7635 L31.7775,253.7635 C50.844,253.7635 58.3145,263.7985 58.3145,278.7395 C58.3145,291.339 51.736,305.165 31.22,305.165 L19.624,305.165 Z M19.624,227.115 L51.4015,227.115 L51.4015,241.61 L19.624,241.61 L19.624,227.115 Z M103.8065,240.1605 L103.8065,225.108 C118.636,225.777 139.2635,235.2545 139.2635,266.14 C139.2635,294.461 120.9775,306.503 103.8065,307.172 L103.8065,292.1195 C112.9495,291.339 122.3155,283.6455 122.3155,266.14 C122.3155,247.185 111.8345,240.941 103.8065,240.1605 Z M100.4615,225.108 L100.4615,240.1605 C92.099,240.941 81.9525,247.5195 81.9525,266.14 C81.9525,283.1995 91.0955,291.2275 100.4615,292.1195 L100.4615,307.172 C82.8445,306.3915 65.0045,293.6805 65.0045,266.14 C65.0045,236.035 84.963,225.777 100.4615,225.108 Z M180.7415,227.115 L180.7415,241.61 L171.264,241.61 L171.264,258.0005 C171.264,278.2935 169.926,287.771 164.797,295.0185 C160.4485,301.151 153.9815,305.165 142.6085,305.165 L142.6085,290.67 C154.985,290.67 154.985,280.0775 154.985,256.2165 L154.985,227.115 L180.7415,227.115 Z M184.198,241.61 L184.198,227.115 L210.066,227.115 L210.066,305.165 L193.787,305.165 L193.787,241.61 L184.198,241.61 Z M239.725,305.165 L223.446,305.165 L223.446,227.115 L239.725,227.115 L239.725,305.165 Z M243.07,265.3595 L243.07,251.9795 L255.2235,251.9795 C274.29,251.9795 281.7605,263.7985 281.7605,278.7395 C281.7605,291.339 275.182,305.165 254.666,305.165 L243.07,305.165 L243.07,290.67 L253.551,290.67 C261.6905,290.67 266.708,286.433 266.708,278.7395 C266.708,268.593 260.241,265.3595 253.551,265.3595 L243.07,265.3595 Z M317.775,290.67 L317.775,305.165 L291.7955,305.165 L291.7955,227.115 L308.0745,227.115 L308.0745,290.67 L317.775,290.67 Z M360.145,305.165 L360.145,290.67 L369.8455,290.67 L369.8455,227.115 L386.1245,227.115 L386.1245,305.165 L360.145,305.165 Z M356.8,290.67 L356.8,305.165 L321.12,305.165 L321.12,290.67 L330.8205,290.67 L330.8205,227.115 L347.0995,227.115 L347.0995,290.67 L356.8,290.67 Z M419.1285,241.61 L419.1285,227.115 L452.467,227.115 L452.467,241.61 L419.1285,241.61 Z M419.1285,272.4955 L419.1285,258.335 L450.683,258.335 L450.683,272.4955 L419.1285,272.4955 Z M419.1285,305.165 L419.1285,290.67 L453.9165,290.67 L453.9165,305.165 L419.1285,305.165 Z M415.7835,227.115 L415.7835,305.165 L399.5045,305.165 L399.5045,227.115 L415.7835,227.115 Z" id="МОЖЕТЕЩЕБОЛЬШЕ" fill="#FF59A3"></path>
        </g>
    </g>
</svg>