<svg xmlns="http://www.w3.org/2000/svg" width="122" height="121" viewBox="0 0 122 121">
    <g fill="none" fill-rule="evenodd">
        <g fill="#000" fill-rule="nonzero">
            <path d="M841.768 4823.375c2.828 0 5.12 2.292 5.12 5.12 0 2.829-2.292 5.12-5.12 5.12-27.582 0-50.023 22.442-50.023 50.024s22.44 50.022 50.023 50.022c27.583 0 50.023-22.44 50.023-50.022 0-2.829 2.292-5.12 5.12-5.12 2.828 0 5.12 2.291 5.12 5.12 0 33.228-27.034 60.263-60.263 60.263-33.23 0-60.264-27.034-60.264-60.263 0-33.23 27.034-60.264 60.264-60.264zm49.743 15.973c1.994-2.023 5.233-2.02 7.226.008 1.86 1.893 1.982 4.895.32 6.94l-.16.19-.17.18-57.045 57.772c-.897.907-2.095 1.443-3.355 1.506l-.298.006-.064-.001c-1.21-.026-2.366-.486-3.277-1.302l-.192-.18-.18-.19-22.55-24.866c-1.905-2.101-1.772-5.37.298-7.304 1.944-1.815 4.915-1.818 6.868-.048l.18.17.172.18 18.946 20.895 53.281-53.956z" transform="translate(-781.000000, -4823.000000)"/>
        </g>
    </g>
</svg>
