<svg xmlns="http://www.w3.org/2000/svg" width="120" height="117" viewBox="0 0 120 117">
    <g fill="none" fill-rule="evenodd">
        <g fill="#000" fill-rule="nonzero">
            <path d="M1151.856 2127.648c2.79 0 5.045 2.193 5.045 4.896l-.001 19.853h14.041c2.691 0 4.88 2.157 4.993 4.857l.005.22v81.228c0 2.808-2.234 5.077-4.998 5.077h-94.951c-11.025 0-19.99-9.108-19.99-20.307v-65.998c0-.077.002-.154.005-.23-.003-.074-.005-.149-.005-.223v-9.791c0-10.8 9.05-19.582 20.18-19.582zm14.088 34.903h-99.95v60.921c0 5.6 4.483 10.154 9.996 10.154h89.954l-.001-14.597-9.994.001c-10.91 0-19.803-8.78-19.987-19.646l-.003-.344c0-11.024 8.966-19.99 19.99-19.99h9.994v-16.499zm0 26.494h-9.995c-5.512 0-9.995 4.483-9.995 9.995s4.483 9.995 9.995 9.995h9.995v-19.99zm-19.133-51.606h-70.63c-5.565 0-10.09 4.391-10.09 9.79v4.896h80.72v-14.686z" transform="translate(-1056.000000, -2127.000000)"/>
        </g>
    </g>
</svg>
