<svg width="255" height="265" viewBox="0 0 255 265" fill="none" xmlns="http://www.w3.org/2000/svg">
<path d="M108.421 7.64351C119.349 -1.90274 135.651 -1.90273 146.579 7.64352L153.978 14.1073C159.94 19.315 167.771 21.8595 175.655 21.1504L185.44 20.2704C199.892 18.9706 213.081 28.5524 216.31 42.6988L218.497 52.2774C220.259 59.9946 225.099 66.6561 231.894 70.7165L240.328 75.7563C252.784 83.1995 257.822 98.7033 252.119 112.046L248.259 121.081C245.148 128.36 245.148 136.594 248.259 143.873L252.119 152.908C257.822 166.251 252.784 181.755 240.328 189.198L231.894 194.238C225.099 198.298 220.259 204.96 218.497 212.677L216.31 222.255C213.081 236.402 199.892 245.984 185.44 244.684L175.655 243.804C167.771 243.095 159.94 245.639 153.978 250.847L146.579 257.311C135.651 266.857 119.349 266.857 108.421 257.311L101.022 250.847C95.0604 245.639 87.2292 243.095 79.3453 243.804L69.5598 244.684C55.1077 245.984 41.9194 236.402 38.6896 222.255L36.5027 212.677C34.7408 204.96 29.9009 198.298 23.1059 194.238L14.6719 189.198C2.21596 181.755 -2.82151 166.251 2.88058 152.908L6.74149 143.873C9.8521 136.594 9.8521 128.36 6.74149 121.081L2.88058 112.046C-2.82151 98.7033 2.21597 83.1995 14.6719 75.7563L23.1059 70.7165C29.9009 66.6561 34.7408 59.9946 36.5027 52.2774L38.6896 42.6988C41.9194 28.5524 55.1077 18.9706 69.5598 20.2704L79.3453 21.1504C87.2292 21.8595 95.0604 19.315 101.022 14.1073L108.421 7.64351Z" fill="#D1D6DB"/>
</svg>
